Playfair Display-SemiBold Italic.ufo
<glyph name="exclam" format="1">
  <advance width="286"/>
  <unicode hex="0021"/>
  <outline>
    <contour>
      <point x="123" y="196" type="line"/>
      <point x="179" y="405"/>
      <point x="288" y="597"/>
      <point x="310" y="712" type="curve" smooth="yes"/>
      <point x="318" y="752"/>
      <point x="301" y="782"/>
      <point x="257" y="782" type="curve" smooth="yes"/>
      <point x="212" y="782"/>
      <point x="191" y="736"/>
      <point x="186" y="691" type="curve" smooth="yes"/>
      <point x="163" y="574"/>
      <point x="153" y="386"/>
      <point x="105" y="199" type="curve"/>
    </contour>
    <component base="period" xOffset="16"/>
  </outline>
</glyph>
<glyph name="numbersign" format="1">
  <advance width="633"/>
  <unicode hex="0023"/>
  <outline>
    <contour>
      <point x="129" y="454" type="line"/>
      <point x="121" y="434" type="line"/>
      <point x="622" y="434" type="line"/>
      <point x="630" y="454" type="line"/>
    </contour>
    <contour>
      <point x="43" y="267" type="line"/>
      <point x="34" y="247" type="line"/>
      <point x="534" y="247" type="line"/>
      <point x="544" y="267" type="line"/>
    </contour>
    <contour>
      <point x="556" y="602" type="line"/>
      <point x="532" y="602" type="line"/>
      <point x="300" y="101" type="line"/>
      <point x="324" y="101" type="line"/>
    </contour>
    <contour>
      <point x="369" y="602" type="line"/>
      <point x="345" y="602" type="line"/>
      <point x="113" y="101" type="line"/>
      <point x="137" y="101" type="line"/>
    </contour>
  </outline>
</glyph>
<glyph name="dollar" format="1">
  <advance width="577"/>
  <unicode hex="0024"/>
  <outline>
    <contour>
      <point x="372" y="840" type="line"/>
      <point x="102" y="-132" type="line"/>
      <point x="124" y="-132" type="line"/>
      <point x="394" y="840" type="line"/>
    </contour>
    <contour>
      <point x="471" y="840" type="line"/>
      <point x="201" y="-132" type="line"/>
      <point x="223" y="-132" type="line"/>
      <point x="493" y="840" type="line"/>
    </contour>
    <contour>
      <point x="428" y="702"/>
      <point x="477" y="683"/>
      <point x="507" y="656" type="curve"/>
      <point x="489" y="628"/>
      <point x="465" y="589"/>
      <point x="465" y="541" type="curve" smooth="yes"/>
      <point x="465" y="501"/>
      <point x="485" y="467"/>
      <point x="525" y="467" type="curve" smooth="yes"/>
      <point x="567" y="467"/>
      <point x="592" y="509"/>
      <point x="592" y="557" type="curve" smooth="yes"/>
      <point x="592" y="605"/>
      <point x="563" y="647"/>
      <point x="534" y="667" type="curve" smooth="yes"/>
      <point x="498" y="693"/>
      <point x="453" y="722"/>
      <point x="363" y="722" type="curve" smooth="yes"/>
      <point x="253" y="722"/>
      <point x="131" y="661"/>
      <point x="131" y="520" type="curve" smooth="yes"/>
      <point x="131" y="340"/>
      <point x="373" y="279"/>
      <point x="373" y="125" type="curve" smooth="yes"/>
      <point x="373" y="45"/>
      <point x="321" y="7"/>
      <point x="229" y="7" type="curve" smooth="yes"/>
      <point x="167" y="7"/>
      <point x="118" y="24"/>
      <point x="87" y="52" type="curve"/>
      <point x="105" y="80"/>
      <point x="130" y="119"/>
      <point x="130" y="167" type="curve" smooth="yes"/>
      <point x="130" y="207"/>
      <point x="110" y="241"/>
      <point x="70" y="241" type="curve" smooth="yes"/>
      <point x="27" y="241"/>
      <point x="2" y="199"/>
      <point x="2" y="151" type="curve" smooth="yes"/>
      <point x="2" y="103"/>
      <point x="27" y="64"/>
      <point x="60" y="41" type="curve" smooth="yes"/>
      <point x="96" y="15"/>
      <point x="141" y="-14"/>
      <point x="231" y="-14" type="curve" smooth="yes"/>
      <point x="349" y="-14"/>
      <point x="500" y="40"/>
      <point x="500" y="189" type="curve" smooth="yes"/>
      <point x="500" y="355"/>
      <point x="236" y="441"/>
      <point x="236" y="585" type="curve" smooth="yes"/>
      <point x="236" y="665"/>
      <point x="294" y="702"/>
      <point x="368" y="702" type="curve" smooth="yes"/>
    </contour>
  </outline>
</glyph>
<glyph name="percent" format="1">
  <advance width="779"/>
  <unicode hex="0025"/>
  <outline>
    <contour>
      <point x="347" y="744"/>
      <point x="363" y="722"/>
      <point x="363" y="680" type="curve" smooth="yes"/>
      <point x="363" y="604"/>
      <point x="320" y="449"/>
      <point x="239" y="449" type="curve" smooth="yes"/>
      <point x="210" y="449"/>
      <point x="195" y="472"/>
      <point x="195" y="514" type="curve" smooth="yes"/>
      <point x="195" y="589"/>
      <point x="238" y="744"/>
      <point x="319" y="744" type="curve" smooth="yes"/>
    </contour>
    <contour>
      <point x="112" y="471"/>
      <point x="157" y="432"/>
      <point x="232" y="432" type="curve" smooth="yes"/>
      <point x="356" y="432"/>
      <point x="446" y="549"/>
      <point x="446" y="652" type="curve" smooth="yes"/>
      <point x="446" y="721"/>
      <point x="402" y="761"/>
      <point x="327" y="761" type="curve" smooth="yes"/>
      <point x="203" y="761"/>
      <point x="112" y="644"/>
      <point x="112" y="541" type="curve" smooth="yes"/>
    </contour>
    <contour>
      <point x="609" y="298"/>
      <point x="625" y="276"/>
      <point x="625" y="234" type="curve" smooth="yes"/>
      <point x="625" y="158"/>
      <point x="582" y="3"/>
      <point x="501" y="3" type="curve" smooth="yes"/>
      <point x="473" y="3"/>
      <point x="457" y="26"/>
      <point x="457" y="68" type="curve" smooth="yes"/>
      <point x="457" y="143"/>
      <point x="501" y="298"/>
      <point x="581" y="298" type="curve" smooth="yes"/>
    </contour>
    <contour>
      <point x="374" y="25"/>
      <point x="420" y="-14"/>
      <point x="494" y="-14" type="curve" smooth="yes"/>
      <point x="618" y="-14"/>
      <point x="708" y="103"/>
      <point x="708" y="206" type="curve" smooth="yes"/>
      <point x="708" y="275"/>
      <point x="664" y="315"/>
      <point x="589" y="315" type="curve" smooth="yes"/>
      <point x="466" y="315"/>
      <point x="374" y="198"/>
      <point x="374" y="95" type="curve" smooth="yes"/>
    </contour>
    <component base="fraction" xOffset="368"/>
  </outline>
</glyph>
<glyph name="ampersand" format="1">
  <advance width="838"/>
  <unicode hex="0026"/>
  <outline>
    <contour>
      <point x="537" y="221" type="line"/>
      <point x="527" y="204"/>
      <point x="494" y="161"/>
      <point x="434" y="161" type="curve" smooth="yes"/>
      <point x="393" y="161"/>
      <point x="355" y="181"/>
      <point x="355" y="223" type="curve" smooth="yes"/>
      <point x="355" y="272"/>
      <point x="408" y="299"/>
      <point x="455" y="316" type="curve" smooth="yes"/>
      <point x="533" y="345"/>
      <point x="662" y="387"/>
      <point x="735" y="420" type="curve" smooth="yes"/>
      <point x="838" y="463"/>
      <point x="887" y="516"/>
      <point x="887" y="599" type="curve" smooth="yes"/>
      <point x="887" y="688"/>
      <point x="833" y="722"/>
      <point x="758" y="722" type="curve" smooth="yes"/>
      <point x="733" y="722"/>
      <point x="706" y="719"/>
      <point x="681" y="708" type="curve" smooth="yes"/>
      <point x="650" y="695"/>
      <point x="626" y="672"/>
      <point x="626" y="639" type="curve" smooth="yes"/>
      <point x="626" y="607"/>
      <point x="650" y="588"/>
      <point x="683" y="588" type="curve" smooth="yes"/>
      <point x="721" y="588"/>
      <point x="759" y="615"/>
      <point x="759" y="652" type="curve" smooth="yes"/>
      <point x="759" y="671"/>
      <point x="749" y="689"/>
      <point x="728" y="699" type="curve"/>
      <point x="733" y="704"/>
      <point x="745" y="706"/>
      <point x="759" y="706" type="curve" smooth="yes"/>
      <point x="815" y="706"/>
      <point x="858" y="672"/>
      <point x="858" y="622" type="curve" smooth="yes"/>
      <point x="858" y="567"/>
      <point x="805" y="538"/>
      <point x="747" y="513" type="curve" smooth="yes"/>
      <point x="668" y="479"/>
      <point x="545" y="439"/>
      <point x="486" y="419" type="curve" smooth="yes"/>
      <point x="379" y="381"/>
      <point x="316" y="331"/>
      <point x="316" y="248" type="curve" smooth="yes"/>
      <point x="316" y="170"/>
      <point x="373" y="143"/>
      <point x="430" y="143" type="curve" smooth="yes"/>
      <point x="498" y="143"/>
      <point x="534" y="182"/>
      <point x="551" y="213" type="curve"/>
    </contour>
    <contour>
      <point x="434" y="545" type="line"/>
      <point x="472" y="545"/>
      <point x="516" y="568"/>
      <point x="516" y="618" type="curve" smooth="yes"/>
      <point x="516" y="668"/>
      <point x="471" y="702"/>
      <point x="392" y="702" type="curve" smooth="yes"/>
      <point x="300" y="702"/>
      <point x="195" y="655"/>
      <point x="195" y="567" type="curve" smooth="yes"/>
      <point x="195" y="524"/>
      <point x="220" y="482"/>
      <point x="273" y="459" type="curve"/>
      <point x="133" y="424"/>
      <point x="34" y="325"/>
      <point x="34" y="201" type="curve" smooth="yes"/>
      <point x="34" y="63"/>
      <point x="155" y="-14"/>
      <point x="333" y="-14" type="curve" smooth="yes"/>
      <point x="559" y="-14"/>
      <point x="678" y="111"/>
      <point x="678" y="240" type="curve" smooth="yes"/>
      <point x="678" y="307"/>
      <point x="647" y="360"/>
      <point x="591" y="395" type="curve"/>
      <point x="578" y="387" type="line"/>
      <point x="636" y="355"/>
      <point x="658" y="301"/>
      <point x="658" y="251" type="curve" smooth="yes"/>
      <point x="658" y="133"/>
      <point x="533" y="65"/>
      <point x="386" y="65" type="curve" smooth="yes"/>
      <point x="244" y="65"/>
      <point x="146" y="128"/>
      <point x="146" y="249" type="curve" smooth="yes"/>
      <point x="146" y="342"/>
      <point x="204" y="424"/>
      <point x="286" y="451" type="curve"/>
      <point x="300" y="444"/>
      <point x="330" y="429"/>
      <point x="355" y="429" type="curve" smooth="yes"/>
      <point x="370" y="429"/>
      <point x="386" y="435"/>
      <point x="386" y="450" type="curve" smooth="yes"/>
      <point x="386" y="463"/>
      <point x="373" y="471"/>
      <point x="350" y="471" type="curve" smooth="yes"/>
      <point x="338" y="471"/>
      <point x="311" y="469"/>
      <point x="287" y="465" type="curve"/>
      <point x="275" y="487"/>
      <point x="270" y="511"/>
      <point x="270" y="534" type="curve" smooth="yes"/>
      <point x="270" y="619"/>
      <point x="331" y="680"/>
      <point x="409" y="680" type="curve" smooth="yes"/>
      <point x="458" y="680"/>
      <point x="494" y="655"/>
      <point x="494" y="616" type="curve" smooth="yes"/>
      <point x="494" y="583"/>
      <point x="470" y="563"/>
      <point x="436" y="563" type="curve"/>
    </contour>
  </outline>
</glyph>
<glyph name="quotesingle" format="1">
  <advance width="205"/>
  <unicode hex="0027"/>
  <outline>
    <contour>
      <point x="251" y="714"/>
      <point x="238" y="730"/>
      <point x="212" y="730" type="curve" smooth="yes"/>
      <point x="183" y="730"/>
      <point x="158" y="708"/>
      <point x="153" y="671" type="curve" smooth="yes"/>
      <point x="146" y="628"/>
      <point x="154" y="597"/>
      <point x="148" y="505" type="curve"/>
      <point x="162" y="505" type="line"/>
      <point x="201" y="592"/>
      <point x="252" y="639"/>
      <point x="252" y="691" type="curve" smooth="yes"/>
    </contour>
  </outline>
</glyph>
<glyph name="parenright" format="1">
  <advance width="377"/>
  <unicode hex="0029"/>
  <outline>
    <contour>
      <point x="146" y="793" type="line"/>
      <point x="214" y="684"/>
      <point x="245" y="563"/>
      <point x="245" y="421" type="curve" smooth="yes"/>
      <point x="245" y="160"/>
      <point x="104" y="-21"/>
      <point x="-110" y="-169" type="curve" smooth="yes"/>
      <point x="-100" y="-182" type="line"/>
      <point x="156" y="-44"/>
      <point x="349" y="178"/>
      <point x="349" y="401" type="curve" smooth="yes"/>
      <point x="349" y="577"/>
      <point x="276" y="691"/>
      <point x="164" y="806" type="curve"/>
    </contour>
  </outline>
</glyph>
<glyph name="asterisk" format="1">
  <advance width="490"/>
  <unicode hex="002A"/>
  <outline>
    <contour>
      <point x="302" y="518" type="line"/>
      <point x="295" y="589"/>
      <point x="287" y="637"/>
      <point x="294" y="675" type="curve" smooth="yes"/>
      <point x="303" y="715"/>
      <point x="328" y="729"/>
      <point x="348" y="729" type="curve" smooth="yes"/>
      <point x="369" y="729"/>
      <point x="387" y="715"/>
      <point x="377" y="675" type="curve" smooth="yes"/>
      <point x="370" y="637"/>
      <point x="341" y="593"/>
      <point x="305" y="518" type="curve"/>
    </contour>
    <contour>
      <point x="300" y="516" type="line"/>
      <point x="234" y="535"/>
      <point x="182" y="541"/>
      <point x="155" y="559" type="curve" smooth="yes"/>
      <point x="124" y="579"/>
      <point x="129" y="606"/>
      <point x="144" y="624" type="curve" smooth="yes"/>
      <point x="157" y="641"/>
      <point x="183" y="653"/>
      <point x="212" y="633" type="curve" smooth="yes"/>
      <point x="241" y="614"/>
      <point x="261" y="574"/>
      <point x="304" y="519" type="curve"/>
    </contour>
    <contour>
      <point x="302" y="516" type="line"/>
      <point x="240" y="464"/>
      <point x="198" y="421"/>
      <point x="163" y="402" type="curve"/>
      <point x="122" y="382"/>
      <point x="102" y="395"/>
      <point x="96" y="413" type="curve" smooth="yes"/>
      <point x="89" y="430"/>
      <point x="97" y="455"/>
      <point x="136" y="476" type="curve" smooth="yes"/>
      <point x="175" y="495"/>
      <point x="223" y="499"/>
      <point x="303" y="519" type="curve"/>
    </contour>
    <contour>
      <point x="306" y="518" type="line"/>
      <point x="309" y="447"/>
      <point x="318" y="398"/>
      <point x="312" y="361" type="curve" smooth="yes"/>
      <point x="302" y="321"/>
      <point x="277" y="307"/>
      <point x="256" y="307" type="curve" smooth="yes"/>
      <point x="236" y="307"/>
      <point x="218" y="320"/>
      <point x="227" y="361" type="curve" smooth="yes"/>
      <point x="234" y="399"/>
      <point x="263" y="443"/>
      <point x="302" y="518" type="curve"/>
    </contour>
    <contour>
      <point x="448" y="395"/>
      <point x="422" y="383"/>
      <point x="393" y="403" type="curve" smooth="yes"/>
      <point x="363" y="422"/>
      <point x="344" y="462"/>
      <point x="300" y="517" type="curve"/>
      <point x="305" y="520" type="line"/>
      <point x="371" y="501"/>
      <point x="423" y="495"/>
      <point x="450" y="477" type="curve" smooth="yes"/>
      <point x="481" y="457"/>
      <point x="476" y="430"/>
      <point x="461" y="412" type="curve" smooth="yes"/>
    </contour>
    <contour>
      <point x="515" y="606"/>
      <point x="507" y="580"/>
      <point x="469" y="560" type="curve" smooth="yes"/>
      <point x="430" y="541"/>
      <point x="382" y="537"/>
      <point x="301" y="517" type="curve"/>
      <point x="303" y="520" type="line"/>
      <point x="365" y="572"/>
      <point x="406" y="615"/>
      <point x="442" y="634" type="curve" smooth="yes"/>
      <point x="482" y="654"/>
      <point x="502" y="641"/>
      <point x="509" y="623" type="curve" smooth="yes"/>
    </contour>
  </outline>
</glyph>
<glyph name="plus" format="1">
  <advance width="581"/>
  <unicode hex="002B"/>
  <outline>
    <contour>
      <point x="52" y="340" type="line"/>
      <point x="285" y="340" type="line"/>
      <point x="218" y="105" type="line"/>
      <point x="254" y="105" type="line"/>
      <point x="321" y="340" type="line"/>
      <point x="553" y="340" type="line"/>
      <point x="562" y="370" type="line"/>
      <point x="330" y="370" type="line"/>
      <point x="397" y="606" type="line"/>
      <point x="361" y="606" type="line"/>
      <point x="294" y="370" type="line"/>
      <point x="61" y="370" type="line"/>
    </contour>
  </outline>
</glyph>
<glyph name="comma" format="1">
  <advance width="267"/>
  <unicode hex="002C"/>
  <outline>
    <contour>
      <point x="146" y="98"/>
      <point x="128" y="126"/>
      <point x="92" y="126" type="curve" smooth="yes"/>
      <point x="41" y="126"/>
      <point x="-5" y="77"/>
      <point x="-5" y="29" type="curve" smooth="yes"/>
      <point x="-5" y="2"/>
      <point x="12" y="-14"/>
      <point x="43" y="-14" type="curve" smooth="yes"/>
      <point x="64" y="-14"/>
      <point x="83" y="-3"/>
      <point x="100" y="13" type="curve"/>
      <point x="96" y="-37"/>
      <point x="54" y="-86"/>
      <point x="-7" y="-120" type="curve"/>
      <point x="-2" y="-135" type="line"/>
      <point x="90" y="-91"/>
      <point x="146" y="-15"/>
      <point x="146" y="61" type="curve" smooth="yes"/>
    </contour>
  </outline>
</glyph>
<glyph name="hyphen" format="1">
  <advance width="505"/>
  <unicode hex="002D"/>
  <outline>
    <contour>
      <point x="53" y="224" type="line"/>
      <point x="414" y="224" type="line"/>
      <point x="432" y="293" type="line"/>
      <point x="71" y="293" type="line"/>
    </contour>
  </outline>
</glyph>
<glyph name="period" format="1">
  <advance width="259"/>
  <unicode hex="002E"/>
  <outline>
    <contour>
      <point x="-1" y="8"/>
      <point x="21" y="-14"/>
      <point x="56" y="-14" type="curve" smooth="yes"/>
      <point x="102" y="-14"/>
      <point x="142" y="26"/>
      <point x="142" y="69" type="curve" smooth="yes"/>
      <point x="142" y="103"/>
      <point x="119" y="126"/>
      <point x="83" y="126" type="curve" smooth="yes"/>
      <point x="38" y="126"/>
      <point x="-1" y="87"/>
      <point x="-1" y="41" type="curve" smooth="yes"/>
    </contour>
  </outline>
</glyph>
<glyph name="slash" format="1">
  <advance width="465"/>
  <unicode hex="002F"/>
  <outline>
    <contour>
      <point x="-9" y="-14" type="line"/>
      <point x="539" y="722" type="line"/>
      <point x="506" y="722" type="line"/>
      <point x="-42" y="-14" type="line"/>
    </contour>
  </outline>
</glyph>
<glyph name="zero" format="1">
  <advance width="590"/>
  <unicode hex="0030"/>
  <outline>
    <contour>
      <point x="185" y="530"/>
      <point x="28" y="346"/>
      <point x="28" y="166" type="curve" smooth="yes"/>
      <point x="28" y="50"/>
      <point x="97" y="-14"/>
      <point x="208" y="-14" type="curve" smooth="yes"/>
      <point x="390" y="-14"/>
      <point x="542" y="171"/>
      <point x="542" y="351" type="curve" smooth="yes"/>
      <point x="542" y="462"/>
      <point x="480" y="530"/>
      <point x="367" y="530" type="curve" smooth="yes"/>
    </contour>
    <contour>
      <point x="394" y="512"/>
      <point x="426" y="474"/>
      <point x="426" y="369" type="curve" smooth="yes"/>
      <point x="426" y="195"/>
      <point x="341" y="4"/>
      <point x="225" y="4" type="curve" smooth="yes"/>
      <point x="179" y="4"/>
      <point x="144" y="43"/>
      <point x="144" y="152" type="curve" smooth="yes"/>
      <point x="144" y="332"/>
      <point x="238" y="512"/>
      <point x="350" y="512" type="curve" smooth="yes"/>
    </contour>
  </outline>
</glyph>
<glyph name="one" format="1">
  <advance width="355"/>
  <unicode hex="0031"/>
  <outline>
    <contour>
      <point x="311" y="527" type="line"/>
      <point x="253" y="484"/>
      <point x="185" y="434"/>
      <point x="51" y="397" type="curve"/>
      <point x="48" y="376" type="line"/>
      <point x="113" y="394"/>
      <point x="154" y="410"/>
      <point x="190" y="428" type="curve"/>
      <point x="63" y="0" type="line"/>
      <point x="174" y="0" type="line"/>
      <point x="331" y="527" type="line"/>
    </contour>
  </outline>
</glyph>
<glyph name="two" format="1">
  <advance width="517"/>
  <unicode hex="0032"/>
  <outline>
    <contour>
      <point x="175" y="529"/>
      <point x="72" y="433"/>
      <point x="72" y="345" type="curve" smooth="yes"/>
      <point x="72" y="289"/>
      <point x="114" y="277"/>
      <point x="147" y="277" type="curve" smooth="yes"/>
      <point x="180" y="277"/>
      <point x="221" y="290"/>
      <point x="258" y="325" type="curve"/>
      <point x="246" y="339" type="line"/>
      <point x="215" y="312"/>
      <point x="191" y="298"/>
      <point x="153" y="298" type="curve" smooth="yes"/>
      <point x="112" y="298"/>
      <point x="96" y="314"/>
      <point x="96" y="346" type="curve" smooth="yes"/>
      <point x="96" y="425"/>
      <point x="191" y="505"/>
      <point x="267" y="505" type="curve" smooth="yes"/>
      <point x="316" y="505"/>
      <point x="344" y="473"/>
      <point x="344" y="420" type="curve" smooth="yes"/>
      <point x="344" y="253"/>
      <point x="74" y="94"/>
      <point x="-18" y="21" type="curve"/>
      <point x="-23" y="0" type="line"/>
      <point x="18" y="17"/>
      <point x="47" y="26"/>
      <point x="97" y="24" type="curve" smooth="yes"/>
      <point x="171" y="21"/>
      <point x="222" y="-6"/>
      <point x="286" y="-6" type="curve" smooth="yes"/>
      <point x="385" y="-6"/>
      <point x="425" y="53"/>
      <point x="425" y="111" type="curve" smooth="yes"/>
      <point x="425" y="150"/>
      <point x="406" y="174"/>
      <point x="370" y="192" type="curve"/>
      <point x="358" y="179" type="line"/>
      <point x="383" y="167"/>
      <point x="398" y="150"/>
      <point x="398" y="126" type="curve" smooth="yes"/>
      <point x="398" y="94"/>
      <point x="370" y="78"/>
      <point x="322" y="78" type="curve" smooth="yes"/>
      <point x="261" y="78"/>
      <point x="176" y="106"/>
      <point x="123" y="106" type="curve"/>
      <point x="210" y="174"/>
      <point x="457" y="296"/>
      <point x="457" y="428" type="curve" smooth="yes"/>
      <point x="457" y="492"/>
      <point x="399" y="529"/>
      <point x="310" y="529" type="curve" smooth="yes"/>
    </contour>
  </outline>
</glyph>
<glyph name="three" format="1">
  <advance width="499"/>
  <unicode hex="0033"/>
  <outline>
    <contour>
      <point x="180" y="532"/>
      <point x="80" y="451"/>
      <point x="80" y="378" type="curve" smooth="yes"/>
      <point x="80" y="322"/>
      <point x="122" y="310"/>
      <point x="155" y="310" type="curve" smooth="yes"/>
      <point x="179" y="310"/>
      <point x="207" y="316"/>
      <point x="235" y="331" type="curve"/>
      <point x="224" y="346" type="line"/>
      <point x="205" y="336"/>
      <point x="186" y="331"/>
      <point x="162" y="331" type="curve" smooth="yes"/>
      <point x="120" y="331"/>
      <point x="104" y="347"/>
      <point x="104" y="379" type="curve" smooth="yes"/>
      <point x="104" y="441"/>
      <point x="190" y="504"/>
      <point x="260" y="504" type="curve" smooth="yes"/>
      <point x="314" y="504"/>
      <point x="347" y="470"/>
      <point x="347" y="414" type="curve" smooth="yes"/>
      <point x="347" y="340"/>
      <point x="284" y="279"/>
      <point x="210" y="250" type="curve"/>
      <point x="175" y="252"/>
      <point x="147" y="250"/>
      <point x="143" y="232" type="curve"/>
      <point x="139" y="220"/>
      <point x="149" y="217"/>
      <point x="160" y="217" type="curve" smooth="yes"/>
      <point x="177" y="217"/>
      <point x="196" y="225"/>
      <point x="218" y="234" type="curve"/>
      <point x="265" y="231"/>
      <point x="292" y="196"/>
      <point x="292" y="143" type="curve" smooth="yes"/>
      <point x="292" y="-32"/>
      <point x="80" y="-123"/>
      <point x="-78" y="-133" type="curve"/>
      <point x="-83" y="-151" type="line"/>
      <point x="111" y="-148"/>
      <point x="409" y="-47"/>
      <point x="409" y="132" type="curve" smooth="yes"/>
      <point x="409" y="211"/>
      <point x="333" y="248"/>
      <point x="236" y="250" type="curve"/>
      <point x="330" y="273"/>
      <point x="454" y="340"/>
      <point x="454" y="432" type="curve" smooth="yes"/>
      <point x="454" y="495"/>
      <point x="395" y="532"/>
      <point x="306" y="532" type="curve" smooth="yes"/>
    </contour>
  </outline>
</glyph>
<glyph name="four" format="1">
  <advance width="524"/>
  <unicode hex="0034"/>
  <outline>
    <contour>
      <point x="-48" y="60" type="line"/>
      <point x="-54" y="39" type="line"/>
      <point x="434" y="39" type="line"/>
      <point x="447" y="87" type="line"/>
      <point x="-9" y="87" type="line"/>
      <point x="-31" y="50" type="line"/>
      <point x="409" y="505" type="line"/>
      <point x="407" y="530" type="line"/>
    </contour>
    <contour>
      <point x="407" y="530" type="line"/>
      <point x="287" y="397" type="line"/>
      <point x="143" y="-141" type="line"/>
      <point x="254" y="-141" type="line"/>
      <point x="433" y="530" type="line"/>
    </contour>
  </outline>
</glyph>
<glyph name="five" format="1">
  <advance width="465"/>
  <unicode hex="0035"/>
  <outline>
    <contour>
      <point x="408" y="504"/>
      <point x="378" y="493"/>
      <point x="342" y="493" type="curve" smooth="yes"/>
      <point x="274" y="493"/>
      <point x="248" y="521"/>
      <point x="193" y="518" type="curve"/>
      <point x="48" y="209" type="line"/>
      <point x="58" y="204" type="line"/>
      <point x="107" y="228"/>
      <point x="141" y="231"/>
      <point x="163" y="231" type="curve" smooth="yes"/>
      <point x="235" y="231"/>
      <point x="263" y="196"/>
      <point x="263" y="143" type="curve" smooth="yes"/>
      <point x="263" y="-33"/>
      <point x="69" y="-129"/>
      <point x="-79" y="-130" type="curve"/>
      <point x="-84" y="-148" type="line"/>
      <point x="94" y="-142"/>
      <point x="382" y="-48"/>
      <point x="382" y="145" type="curve" smooth="yes"/>
      <point x="382" y="213"/>
      <point x="334" y="261"/>
      <point x="221" y="261" type="curve" smooth="yes"/>
      <point x="161" y="261"/>
      <point x="116" y="248"/>
      <point x="75" y="226" type="curve"/>
      <point x="178" y="443" type="line"/>
      <point x="213" y="448"/>
      <point x="259" y="408"/>
      <point x="299" y="408" type="curve" smooth="yes"/>
      <point x="362" y="408"/>
      <point x="409" y="456"/>
      <point x="441" y="531" type="curve"/>
      <point x="429" y="538" type="line"/>
    </contour>
  </outline>
</glyph>
<glyph name="six" format="1">
  <advance width="545"/>
  <unicode hex="0036"/>
  <outline>
    <contour>
      <point x="347" y="688"/>
      <point x="32" y="467"/>
      <point x="32" y="167" type="curve" smooth="yes"/>
      <point x="32" y="45"/>
      <point x="85" y="-14"/>
      <point x="190" y="-14" type="curve" smooth="yes"/>
      <point x="356" y="-14"/>
      <point x="496" y="131"/>
      <point x="496" y="287" type="curve" smooth="yes"/>
      <point x="496" y="386"/>
      <point x="441" y="438"/>
      <point x="363" y="438" type="curve" smooth="yes"/>
      <point x="299" y="438"/>
      <point x="231" y="404"/>
      <point x="198" y="293" type="curve"/>
      <point x="214" y="287" type="line"/>
      <point x="243" y="373"/>
      <point x="285" y="401"/>
      <point x="320" y="401" type="curve" smooth="yes"/>
      <point x="355" y="401"/>
      <point x="378" y="374"/>
      <point x="378" y="306" type="curve" smooth="yes"/>
      <point x="378" y="191"/>
      <point x="313" y="6"/>
      <point x="210" y="6" type="curve" smooth="yes"/>
      <point x="171" y="6"/>
      <point x="147" y="32"/>
      <point x="147" y="131" type="curve" smooth="yes"/>
      <point x="147" y="425"/>
      <point x="356" y="656"/>
      <point x="540" y="702" type="curve"/>
      <point x="534" y="722" type="line"/>
    </contour>
  </outline>
</glyph>
<glyph name="seven" format="1">
  <advance width="494"/>
  <unicode hex="0037"/>
  <outline>
    <contour>
      <point x="89" y="521"/>
      <point x="46" y="453"/>
      <point x="46" y="392" type="curve" smooth="yes"/>
      <point x="46" y="309"/>
      <point x="108" y="267"/>
      <point x="201" y="249" type="curve"/>
      <point x="206" y="265" type="line"/>
      <point x="119" y="286"/>
      <point x="75" y="320"/>
      <point x="75" y="374" type="curve" smooth="yes"/>
      <point x="75" y="417"/>
      <point x="110" y="437"/>
      <point x="156" y="437" type="curve" smooth="yes"/>
      <point x="213" y="437"/>
      <point x="247" y="407"/>
      <point x="321" y="407" type="curve" smooth="yes"/>
      <point x="386" y="407"/>
      <point x="446" y="435"/>
      <point x="520" y="491" type="curve"/>
      <point x="520" y="491"/>
      <point x="504" y="485"/>
      <point x="504" y="485" type="curve"/>
      <point x="396" y="354"/>
      <point x="116" y="109"/>
      <point x="79" y="-76" type="curve" smooth="yes"/>
      <point x="71" y="-115"/>
      <point x="75" y="-148"/>
      <point x="120" y="-148" type="curve" smooth="yes"/>
      <point x="160" y="-148"/>
      <point x="186" y="-121"/>
      <point x="194" y="-89" type="curve"/>
      <point x="199" y="-67"/>
      <point x="200" y="-51"/>
      <point x="211" y="-10" type="curve"/>
      <point x="272" y="223"/>
      <point x="423" y="355"/>
      <point x="551" y="515" type="curve"/>
      <point x="525" y="515" type="line"/>
      <point x="497" y="478"/>
      <point x="463" y="471"/>
      <point x="422" y="473" type="curve" smooth="yes"/>
      <point x="337" y="477"/>
      <point x="281" y="521"/>
      <point x="194" y="521" type="curve" smooth="yes"/>
    </contour>
  </outline>
</glyph>
<glyph name="eight" format="1">
  <advance width="558"/>
  <unicode hex="0038"/>
  <outline>
    <contour>
      <point x="280" y="722"/>
      <point x="156" y="648"/>
      <point x="156" y="533" type="curve" smooth="yes"/>
      <point x="156" y="376"/>
      <point x="366" y="335"/>
      <point x="366" y="172" type="curve" smooth="yes"/>
      <point x="366" y="70"/>
      <point x="287" y="4"/>
      <point x="204" y="4" type="curve" smooth="yes"/>
      <point x="138" y="4"/>
      <point x="116" y="45"/>
      <point x="116" y="105" type="curve" smooth="yes"/>
      <point x="116" y="210"/>
      <point x="181" y="309"/>
      <point x="268" y="360" type="curve"/>
      <point x="264" y="371" type="line"/>
      <point x="144" y="324"/>
      <point x="4" y="236"/>
      <point x="4" y="116" type="curve" smooth="yes"/>
      <point x="4" y="25"/>
      <point x="85" y="-14"/>
      <point x="190" y="-14" type="curve" smooth="yes"/>
      <point x="345" y="-14"/>
      <point x="476" y="71"/>
      <point x="476" y="200" type="curve" smooth="yes"/>
      <point x="476" y="367"/>
      <point x="258" y="414"/>
      <point x="258" y="561" type="curve" smooth="yes"/>
      <point x="258" y="642"/>
      <point x="317" y="704"/>
      <point x="385" y="704" type="curve" smooth="yes"/>
      <point x="431" y="704"/>
      <point x="453" y="676"/>
      <point x="453" y="620" type="curve" smooth="yes"/>
      <point x="453" y="533"/>
      <point x="396" y="448"/>
      <point x="333" y="404" type="curve"/>
      <point x="337" y="393" type="line"/>
      <point x="431" y="438"/>
      <point x="558" y="514"/>
      <point x="558" y="615" type="curve" smooth="yes"/>
      <point x="558" y="689"/>
      <point x="492" y="722"/>
      <point x="406" y="722" type="curve" smooth="yes"/>
    </contour>
  </outline>
</glyph>
<glyph name="nine" format="1">
  <advance width="531"/>
  <unicode hex="0039"/>
  <outline>
    <contour>
      <point x="165" y="529"/>
      <point x="24" y="385"/>
      <point x="24" y="228" type="curve" smooth="yes"/>
      <point x="24" y="130"/>
      <point x="79" y="77"/>
      <point x="157" y="77" type="curve" smooth="yes"/>
      <point x="221" y="77"/>
      <point x="289" y="111"/>
      <point x="323" y="222" type="curve"/>
      <point x="307" y="228" type="line"/>
      <point x="278" y="143"/>
      <point x="236" y="114"/>
      <point x="201" y="114" type="curve" smooth="yes"/>
      <point x="166" y="114"/>
      <point x="142" y="141"/>
      <point x="142" y="210" type="curve" smooth="yes"/>
      <point x="142" y="324"/>
      <point x="207" y="509"/>
      <point x="310" y="509" type="curve" smooth="yes"/>
      <point x="349" y="509"/>
      <point x="373" y="483"/>
      <point x="373" y="385" type="curve" smooth="yes"/>
      <point x="373" y="101"/>
      <point x="169" y="-124"/>
      <point x="-9" y="-168" type="curve"/>
      <point x="-3" y="-188" type="line"/>
      <point x="179" y="-156"/>
      <point x="488" y="59"/>
      <point x="488" y="348" type="curve" smooth="yes"/>
      <point x="488" y="470"/>
      <point x="435" y="529"/>
      <point x="330" y="529" type="curve" smooth="yes"/>
    </contour>
  </outline>
</glyph>
<glyph name="less" format="1">
  <advance width="598"/>
  <unicode hex="003C"/>
  <outline>
    <contour>
      <point x="50" y="355" type="line"/>
      <point x="440" y="145" type="line"/>
      <point x="456" y="177" type="line"/>
      <point x="125" y="351" type="line"/>
      <point x="612" y="553" type="line"/>
      <point x="602" y="582" type="line"/>
    </contour>
  </outline>
</glyph>
<glyph name="equal" format="1">
  <advance width="657"/>
  <unicode hex="003D"/>
  <outline>
    <contour>
      <point x="568" y="270" type="line"/>
      <point x="577" y="300" type="line"/>
      <point x="76" y="300" type="line"/>
      <point x="67" y="270" type="line"/>
    </contour>
    <contour>
      <point x="608" y="410" type="line"/>
      <point x="617" y="440" type="line"/>
      <point x="116" y="440" type="line"/>
      <point x="107" y="410" type="line"/>
    </contour>
  </outline>
</glyph>
<glyph name="greater" format="1">
  <advance width="599"/>
  <unicode hex="003E"/>
  <outline>
    <contour>
      <point x="585" y="372" type="line"/>
      <point x="156" y="603" type="line"/>
      <point x="140" y="574" type="line"/>
      <point x="510" y="376" type="line"/>
      <point x="50" y="184" type="line"/>
      <point x="60" y="155" type="line"/>
    </contour>
  </outline>
</glyph>
<glyph name="question" format="1">
  <advance width="459"/>
  <unicode hex="003F"/>
  <outline>
    <contour>
      <point x="366" y="763"/>
      <point x="394" y="725"/>
      <point x="394" y="673" type="curve" smooth="yes"/>
      <point x="394" y="610"/>
      <point x="351" y="572"/>
      <point x="259" y="500" type="curve" smooth="yes"/>
      <point x="164" y="427"/>
      <point x="83" y="375"/>
      <point x="83" y="291" type="curve" smooth="yes"/>
      <point x="83" y="222"/>
      <point x="139" y="188"/>
      <point x="215" y="188" type="curve" smooth="yes"/>
      <point x="289" y="188"/>
      <point x="391" y="224"/>
      <point x="391" y="296" type="curve" smooth="yes"/>
      <point x="391" y="326"/>
      <point x="370" y="341"/>
      <point x="347" y="341" type="curve" smooth="yes"/>
      <point x="313" y="341"/>
      <point x="291" y="316"/>
      <point x="291" y="289" type="curve" smooth="yes"/>
      <point x="290" y="264"/>
      <point x="310" y="245"/>
      <point x="327" y="242" type="curve"/>
      <point x="311" y="219"/>
      <point x="272" y="206"/>
      <point x="239" y="206" type="curve" smooth="yes"/>
      <point x="189" y="206"/>
      <point x="170" y="237"/>
      <point x="170" y="273" type="curve" smooth="yes"/>
      <point x="170" y="334"/>
      <point x="218" y="362"/>
      <point x="330" y="447" type="curve" smooth="yes"/>
      <point x="456" y="543"/>
      <point x="501" y="600"/>
      <point x="501" y="661" type="curve" smooth="yes"/>
      <point x="501" y="741"/>
      <point x="428" y="782"/>
      <point x="334" y="782" type="curve" smooth="yes"/>
      <point x="243" y="782"/>
      <point x="138" y="742"/>
      <point x="138" y="666" type="curve" smooth="yes"/>
      <point x="138" y="633"/>
      <point x="159" y="612"/>
      <point x="191" y="612" type="curve" smooth="yes"/>
      <point x="226" y="612"/>
      <point x="253" y="636"/>
      <point x="255" y="669" type="curve" smooth="yes"/>
      <point x="256" y="699"/>
      <point x="232" y="721"/>
      <point x="210" y="722" type="curve"/>
      <point x="225" y="751"/>
      <point x="274" y="763"/>
      <point x="306" y="763" type="curve" smooth="yes"/>
    </contour>
    <component base="period" xOffset="110"/>
  </outline>
</glyph>
<glyph name="at" format="1">
  <advance width="855"/>
  <unicode hex="0040"/>
  <outline>
    <contour>
      <point x="550" y="54"/>
      <point x="544" y="70"/>
      <point x="557" y="114" type="curve" smooth="yes"/>
      <point x="663" y="478" type="line"/>
      <point x="631" y="467"/>
      <point x="592" y="464"/>
      <point x="556" y="464" type="curve"/>
      <point x="471" y="166" type="line" smooth="yes"/>
      <point x="460" y="127"/>
      <point x="426" y="26"/>
      <point x="532" y="26" type="curve" smooth="yes"/>
      <point x="650" y="26"/>
      <point x="829" y="159"/>
      <point x="829" y="383" type="curve" smooth="yes"/>
      <point x="829" y="574"/>
      <point x="693" y="657"/>
      <point x="514" y="657" type="curve" smooth="yes"/>
      <point x="231" y="657"/>
      <point x="28" y="405"/>
      <point x="28" y="149" type="curve" smooth="yes"/>
      <point x="28" y="-68"/>
      <point x="176" y="-156"/>
      <point x="360" y="-156" type="curve" smooth="yes"/>
      <point x="455" y="-156"/>
      <point x="535" y="-130"/>
      <point x="588" y="-94" type="curve"/>
      <point x="582" y="-81" type="line"/>
      <point x="514" y="-121"/>
      <point x="439" y="-138"/>
      <point x="361" y="-138" type="curve" smooth="yes"/>
      <point x="188" y="-138"/>
      <point x="49" y="-57"/>
      <point x="49" y="151" type="curve" smooth="yes"/>
      <point x="49" y="405"/>
      <point x="253" y="639"/>
      <point x="514" y="639" type="curve" smooth="yes"/>
      <point x="677" y="639"/>
      <point x="808" y="566"/>
      <point x="808" y="384" type="curve" smooth="yes"/>
      <point x="808" y="167"/>
      <point x="638" y="54"/>
      <point x="577" y="54" type="curve" smooth="yes"/>
    </contour>
    <contour>
      <point x="498" y="259" type="line"/>
      <point x="452" y="131"/>
      <point x="411" y="64"/>
      <point x="362" y="64" type="curve" smooth="yes"/>
      <point x="330" y="64"/>
      <point x="315" y="92"/>
      <point x="315" y="151" type="curve" smooth="yes"/>
      <point x="315" y="292"/>
      <point x="401" y="450"/>
      <point x="485" y="450" type="curve" smooth="yes"/>
      <point x="520" y="450"/>
      <point x="533" y="421"/>
      <point x="532" y="376" type="curve"/>
      <point x="541" y="381" type="line"/>
      <point x="547" y="448"/>
      <point x="525" y="478"/>
      <point x="473" y="478" type="curve" smooth="yes"/>
      <point x="342" y="478"/>
      <point x="211" y="294"/>
      <point x="211" y="148" type="curve" smooth="yes"/>
      <point x="211" y="73"/>
      <point x="246" y="26"/>
      <point x="318" y="26" type="curve" smooth="yes"/>
      <point x="404" y="26"/>
      <point x="456" y="92"/>
      <point x="505" y="243" type="curve"/>
    </contour>
  </outline>
</glyph>
<glyph name="A" format="1">
  <advance width="640"/>
  <unicode hex="0041"/>
  <outline>
    <contour>
      <point x="387" y="600" type="line"/>
      <point x="368" y="583" type="line"/>
      <point x="394" y="104" type="line" smooth="yes"/>
      <point x="397" y="36"/>
      <point x="372" y="23"/>
      <point x="308" y="20" type="curve"/>
      <point x="304" y="0" type="line"/>
      <point x="332" y="2"/>
      <point x="384" y="3"/>
      <point x="437" y="3" type="curve" smooth="yes"/>
      <point x="480" y="3"/>
      <point x="532" y="2"/>
      <point x="562" y="0" type="curve"/>
      <point x="566" y="20" type="line"/>
      <point x="546" y="21"/>
      <point x="521" y="36"/>
      <point x="517" y="84" type="curve" smooth="yes"/>
      <point x="477" y="713" type="line"/>
      <point x="468" y="712"/>
      <point x="456" y="712"/>
      <point x="446" y="713" type="curve"/>
      <point x="21" y="116" type="line" smooth="yes"/>
      <point x="-24" y="51"/>
      <point x="-54" y="27"/>
      <point x="-85" y="20" type="curve"/>
      <point x="-89" y="0" type="line"/>
      <point x="-68" y="2"/>
      <point x="-49" y="3"/>
      <point x="-17" y="3" type="curve" smooth="yes"/>
      <point x="18" y="3"/>
      <point x="59" y="2"/>
      <point x="104" y="0" type="curve"/>
      <point x="109" y="20" type="line"/>
      <point x="28" y="23"/>
      <point x="3" y="56"/>
      <point x="71" y="154" type="curve" smooth="yes"/>
    </contour>
    <contour>
      <point x="139" y="268" type="line"/>
      <point x="441" y="268" type="line"/>
      <point x="449" y="288" type="line"/>
      <point x="157" y="288" type="line"/>
    </contour>
    <contour>
      <point x="539" y="0" type="move" name="ogonek"/>
    </contour>
    <contour>
      <point x="229" y="0" type="move" name="bottom"/>
    </contour>
    <contour>
      <point x="460" y="708" type="move" name="top"/>
    </contour>
  </outline>
</glyph>
<glyph name="B" format="1">
  <advance width="653"/>
  <unicode hex="0042"/>
  <outline>
    <contour>
      <point x="377" y="707"/>
      <point x="335" y="705"/>
      <point x="282" y="705" type="curve" smooth="yes"/>
      <point x="236" y="705"/>
      <point x="179" y="706"/>
      <point x="148" y="708" type="curve"/>
      <point x="143" y="688" type="line"/>
      <point x="221" y="687"/>
      <point x="217" y="662"/>
      <point x="202" y="602" type="curve" smooth="yes"/>
      <point x="70" y="106" type="line" smooth="yes"/>
      <point x="51" y="33"/>
      <point x="35" y="23"/>
      <point x="-33" y="20" type="curve"/>
      <point x="-37" y="0" type="line"/>
      <point x="-5" y="2"/>
      <point x="51" y="3"/>
      <point x="100" y="3" type="curve" smooth="yes"/>
      <point x="175" y="3"/>
      <point x="226" y="0"/>
      <point x="273" y="0" type="curve" smooth="yes"/>
      <point x="437" y="0"/>
      <point x="585" y="71"/>
      <point x="585" y="213" type="curve" smooth="yes"/>
      <point x="585" y="294"/>
      <point x="528" y="359"/>
      <point x="394" y="373" type="curve"/>
      <point x="522" y="398"/>
      <point x="627" y="473"/>
      <point x="627" y="577" type="curve" smooth="yes"/>
      <point x="627" y="656"/>
      <point x="564" y="707"/>
      <point x="425" y="707" type="curve" smooth="yes"/>
    </contour>
    <contour>
      <point x="325" y="359" type="line" smooth="yes"/>
      <point x="418" y="359"/>
      <point x="455" y="308"/>
      <point x="455" y="230" type="curve" smooth="yes"/>
      <point x="455" y="107"/>
      <point x="390" y="23"/>
      <point x="238" y="23" type="curve" smooth="yes"/>
      <point x="174" y="23"/>
      <point x="178" y="52"/>
      <point x="192" y="106" type="curve" smooth="yes"/>
      <point x="327" y="617" type="line" smooth="yes"/>
      <point x="342" y="675"/>
      <point x="357" y="688"/>
      <point x="408" y="688" type="curve" smooth="yes"/>
      <point x="476" y="688"/>
      <point x="502" y="650"/>
      <point x="502" y="580" type="curve" smooth="yes"/>
      <point x="502" y="475"/>
      <point x="432" y="376"/>
      <point x="316" y="376" type="curve" smooth="yes"/>
      <point x="241" y="376" type="line"/>
      <point x="237" y="359" type="line"/>
    </contour>
    <contour>
      <point x="418" y="708" type="move" name="top"/>
    </contour>
    <contour>
      <point x="262" y="0" type="move" name="bottom"/>
    </contour>
  </outline>
</glyph>
<glyph name="C" format="1">
  <advance width="680"/>
  <unicode hex="0043"/>
  <outline>
    <contour>
      <point x="706" y="708" type="line"/>
      <point x="684" y="650"/>
      <point x="669" y="637"/>
      <point x="651" y="657" type="curve" smooth="yes"/>
      <point x="620" y="690"/>
      <point x="587" y="722"/>
      <point x="502" y="722" type="curve" smooth="yes"/>
      <point x="239" y="722"/>
      <point x="47" y="457"/>
      <point x="47" y="227" type="curve" smooth="yes"/>
      <point x="47" y="70"/>
      <point x="134" y="-14"/>
      <point x="296" y="-14" type="curve" smooth="yes"/>
      <point x="382" y="-14"/>
      <point x="433" y="15"/>
      <point x="488" y="51" type="curve" smooth="yes"/>
      <point x="510" y="66"/>
      <point x="521" y="63"/>
      <point x="521" y="34" type="curve" smooth="yes"/>
      <point x="521" y="25"/>
      <point x="520" y="14"/>
      <point x="518" y="0" type="curve"/>
      <point x="540" y="0" type="line"/>
      <point x="549" y="51"/>
      <point x="566" y="119"/>
      <point x="599" y="240" type="curve"/>
      <point x="577" y="240" type="line"/>
      <point x="545" y="162"/>
      <point x="523" y="119"/>
      <point x="487" y="82" type="curve" smooth="yes"/>
      <point x="441" y="35"/>
      <point x="375" y="9"/>
      <point x="322" y="9" type="curve" smooth="yes"/>
      <point x="236" y="9"/>
      <point x="182" y="73"/>
      <point x="182" y="206" type="curve" smooth="yes"/>
      <point x="182" y="437"/>
      <point x="337" y="701"/>
      <point x="506" y="701" type="curve" smooth="yes"/>
      <point x="560" y="701"/>
      <point x="606" y="677"/>
      <point x="632" y="629" type="curve" smooth="yes"/>
      <point x="650" y="594"/>
      <point x="651" y="546"/>
      <point x="641" y="478" type="curve"/>
      <point x="663" y="478" type="line"/>
      <point x="686" y="585"/>
      <point x="707" y="656"/>
      <point x="727" y="708" type="curve"/>
    </contour>
    <contour>
      <point x="495" y="708" type="move" name="top"/>
    </contour>
    <contour>
      <point x="301" y="0" type="move" name="bottom"/>
    </contour>
  </outline>
</glyph>
<glyph name="D" format="1">
  <advance width="746"/>
  <unicode hex="0044"/>
  <outline>
    <contour>
      <point x="727" y="629"/>
      <point x="627" y="708"/>
      <point x="436" y="708" type="curve" smooth="yes"/>
      <point x="398" y="708"/>
      <point x="327" y="706"/>
      <point x="286" y="705" type="curve" smooth="yes"/>
      <point x="237" y="704"/>
      <point x="177" y="706"/>
      <point x="146" y="708" type="curve"/>
      <point x="143" y="688" type="line"/>
      <point x="215" y="685"/>
      <point x="216" y="664"/>
      <point x="201" y="602" type="curve" smooth="yes"/>
      <point x="70" y="106" type="line" smooth="yes"/>
      <point x="51" y="33"/>
      <point x="34" y="23"/>
      <point x="-30" y="20" type="curve"/>
      <point x="-33" y="0" type="line"/>
      <point x="-4" y="2"/>
      <point x="53" y="3"/>
      <point x="100" y="3" type="curve" smooth="yes"/>
      <point x="153" y="3"/>
      <point x="214" y="0"/>
      <point x="245" y="0" type="curve" smooth="yes"/>
      <point x="546" y="0"/>
      <point x="727" y="243"/>
      <point x="727" y="479" type="curve" smooth="yes"/>
    </contour>
    <contour>
      <point x="172" y="18"/>
      <point x="175" y="43"/>
      <point x="192" y="104" type="curve" smooth="yes"/>
      <point x="323" y="604" type="line" smooth="yes"/>
      <point x="341" y="675"/>
      <point x="355" y="690"/>
      <point x="411" y="690" type="curve" smooth="yes"/>
      <point x="546" y="690"/>
      <point x="602" y="628"/>
      <point x="602" y="507" type="curve" smooth="yes"/>
      <point x="602" y="261"/>
      <point x="476" y="18"/>
      <point x="238" y="18" type="curve" smooth="yes"/>
    </contour>
    <contour>
      <point x="231" y="354" type="move" name="center"/>
    </contour>
    <contour>
      <point x="309" y="0" type="move" name="bottom"/>
    </contour>
    <contour>
      <point x="425" y="708" type="move" name="top"/>
    </contour>
  </outline>
</glyph>
<glyph name="E" format="1">
  <advance width="617"/>
  <unicode hex="0045"/>
  <outline>
    <contour>
      <point x="395" y="346" type="line"/>
      <point x="401" y="366" type="line"/>
      <point x="217" y="366" type="line"/>
      <point x="211" y="346" type="line"/>
    </contour>
    <contour>
      <point x="306" y="346" type="line"/>
      <point x="390" y="346"/>
      <point x="384" y="279"/>
      <point x="377" y="219" type="curve"/>
      <point x="400" y="219" type="line"/>
      <point x="414" y="293"/>
      <point x="421" y="321"/>
      <point x="430" y="356" type="curve" smooth="yes"/>
      <point x="440" y="391"/>
      <point x="446" y="423"/>
      <point x="469" y="493" type="curve"/>
      <point x="447" y="493" type="line"/>
      <point x="425" y="442"/>
      <point x="396" y="366"/>
      <point x="315" y="366" type="curve"/>
    </contour>
    <contour>
      <point x="603" y="528" type="line"/>
      <point x="606" y="543"/>
      <point x="610" y="566"/>
      <point x="617" y="590" type="curve" smooth="yes"/>
      <point x="624" y="619"/>
      <point x="638" y="661"/>
      <point x="655" y="708" type="curve"/>
      <point x="595" y="705"/>
      <point x="513" y="705"/>
      <point x="454" y="705" type="curve" smooth="yes"/>
      <point x="391" y="705"/>
      <point x="251" y="705"/>
      <point x="149" y="708" type="curve"/>
      <point x="144" y="688" type="line"/>
      <point x="211" y="685"/>
      <point x="222" y="675"/>
      <point x="202" y="602" type="curve" smooth="yes"/>
      <point x="69" y="106" type="line" smooth="yes"/>
      <point x="50" y="33"/>
      <point x="34" y="23"/>
      <point x="-34" y="20" type="curve"/>
      <point x="-38" y="0" type="line"/>
      <point x="64" y="3"/>
      <point x="203" y="3"/>
      <point x="266" y="3" type="curve" smooth="yes"/>
      <point x="333" y="3"/>
      <point x="426" y="3"/>
      <point x="494" y="0" type="curve"/>
      <point x="502" y="51"/>
      <point x="514" y="103"/>
      <point x="521" y="128" type="curve" smooth="yes"/>
      <point x="528" y="156"/>
      <point x="536" y="182"/>
      <point x="543" y="200" type="curve"/>
      <point x="520" y="200" type="line"/>
      <point x="467" y="68"/>
      <point x="424" y="23"/>
      <point x="307" y="23" type="curve" smooth="yes"/>
      <point x="250" y="23" type="line" smooth="yes"/>
      <point x="183" y="23"/>
      <point x="172" y="33"/>
      <point x="192" y="106" type="curve" smooth="yes"/>
      <point x="324" y="602" type="line" smooth="yes"/>
      <point x="344" y="675"/>
      <point x="359" y="685"/>
      <point x="427" y="685" type="curve" smooth="yes"/>
      <point x="481" y="685" type="line" smooth="yes"/>
      <point x="580" y="685"/>
      <point x="595" y="646"/>
      <point x="581" y="528" type="curve"/>
    </contour>
    <contour>
      <point x="482" y="0" type="move" name="ogonek"/>
    </contour>
    <contour>
      <point x="269" y="0" type="move" name="bottom"/>
    </contour>
    <contour>
      <point x="422" y="708" type="move" name="top"/>
    </contour>
  </outline>
</glyph>
<glyph name="F" format="1">
  <advance width="576"/>
  <unicode hex="0046"/>
  <outline>
    <contour>
      <point x="416" y="339" type="line"/>
      <point x="421" y="359" type="line"/>
      <point x="217" y="359" type="line"/>
      <point x="212" y="339" type="line"/>
    </contour>
    <contour>
      <point x="595" y="498" type="line"/>
      <point x="599" y="520"/>
      <point x="606" y="550"/>
      <point x="615" y="583" type="curve" smooth="yes"/>
      <point x="623" y="613"/>
      <point x="637" y="658"/>
      <point x="655" y="708" type="curve"/>
      <point x="595" y="705"/>
      <point x="513" y="705"/>
      <point x="454" y="705" type="curve" smooth="yes"/>
      <point x="391" y="705"/>
      <point x="251" y="705"/>
      <point x="149" y="708" type="curve"/>
      <point x="144" y="688" type="line"/>
      <point x="211" y="685"/>
      <point x="222" y="675"/>
      <point x="202" y="602" type="curve" smooth="yes"/>
      <point x="69" y="106" type="line" smooth="yes"/>
      <point x="50" y="33"/>
      <point x="34" y="23"/>
      <point x="-34" y="20" type="curve"/>
      <point x="-38" y="0" type="line"/>
      <point x="-7" y="2"/>
      <point x="46" y="3"/>
      <point x="104" y="3" type="curve" smooth="yes"/>
      <point x="164" y="3"/>
      <point x="227" y="2"/>
      <point x="265" y="0" type="curve"/>
      <point x="270" y="20" type="line"/>
      <point x="187" y="23"/>
      <point x="172" y="33"/>
      <point x="192" y="106" type="curve" smooth="yes"/>
      <point x="324" y="602" type="line" smooth="yes"/>
      <point x="344" y="675"/>
      <point x="358" y="685"/>
      <point x="424" y="685" type="curve" smooth="yes"/>
      <point x="464" y="685" type="line" smooth="yes"/>
      <point x="576" y="685"/>
      <point x="592" y="638"/>
      <point x="572" y="498" type="curve"/>
    </contour>
    <contour>
      <point x="313" y="339" type="line"/>
      <point x="392" y="339"/>
      <point x="388" y="275"/>
      <point x="381" y="204" type="curve"/>
      <point x="404" y="204" type="line"/>
      <point x="419" y="277"/>
      <point x="427" y="314"/>
      <point x="436" y="349" type="curve" smooth="yes"/>
      <point x="445" y="384"/>
      <point x="452" y="416"/>
      <point x="475" y="485" type="curve"/>
      <point x="452" y="485" type="line"/>
      <point x="429" y="432"/>
      <point x="400" y="359"/>
      <point x="320" y="359" type="curve"/>
    </contour>
    <contour>
      <point x="400" y="708" type="move" name="top"/>
    </contour>
    <contour>
      <point x="104" y="0" type="move" name="bottom"/>
    </contour>
  </outline>
</glyph>
<glyph name="G" format="1">
  <advance width="720"/>
  <unicode hex="0047"/>
  <outline>
    <contour>
      <point x="219" y="6"/>
      <point x="167" y="62"/>
      <point x="167" y="182" type="curve" smooth="yes"/>
      <point x="167" y="369"/>
      <point x="281" y="704"/>
      <point x="495" y="704" type="curve" smooth="yes"/>
      <point x="565" y="704"/>
      <point x="622" y="675"/>
      <point x="649" y="626" type="curve" smooth="yes"/>
      <point x="661" y="604"/>
      <point x="663" y="581"/>
      <point x="663" y="553" type="curve" smooth="yes"/>
      <point x="663" y="529"/>
      <point x="661" y="504"/>
      <point x="658" y="478" type="curve"/>
      <point x="680" y="478" type="line"/>
      <point x="703" y="585"/>
      <point x="724" y="656"/>
      <point x="744" y="708" type="curve"/>
      <point x="722" y="708" type="line"/>
      <point x="701" y="647"/>
      <point x="685" y="637"/>
      <point x="665" y="657" type="curve" smooth="yes"/>
      <point x="628" y="693"/>
      <point x="588" y="722"/>
      <point x="501" y="722" type="curve" smooth="yes"/>
      <point x="229" y="722"/>
      <point x="45" y="441"/>
      <point x="45" y="215" type="curve" smooth="yes"/>
      <point x="45" y="69"/>
      <point x="139" y="-14"/>
      <point x="307" y="-14" type="curve" smooth="yes"/>
      <point x="365" y="-14"/>
      <point x="414" y="3"/>
      <point x="466" y="33" type="curve" smooth="yes"/>
      <point x="492" y="48"/>
      <point x="508" y="57"/>
      <point x="524" y="57" type="curve" smooth="yes"/>
      <point x="544" y="57"/>
      <point x="547" y="28"/>
      <point x="543" y="0" type="curve"/>
      <point x="563" y="0" type="line"/>
      <point x="616" y="198" type="line" smooth="yes"/>
      <point x="636" y="272"/>
      <point x="645" y="281"/>
      <point x="690" y="284" type="curve"/>
      <point x="695" y="304" type="line"/>
      <point x="668" y="302"/>
      <point x="625" y="301"/>
      <point x="574" y="301" type="curve" smooth="yes"/>
      <point x="525" y="301"/>
      <point x="459" y="302"/>
      <point x="421" y="304" type="curve"/>
      <point x="416" y="284" type="line"/>
      <point x="499" y="281"/>
      <point x="512" y="269"/>
      <point x="491" y="188" type="curve" smooth="yes"/>
      <point x="468" y="100" type="line" smooth="yes"/>
      <point x="460" y="70"/>
      <point x="451" y="49"/>
      <point x="424" y="32" type="curve" smooth="yes"/>
      <point x="403" y="19"/>
      <point x="366" y="6"/>
      <point x="327" y="6" type="curve" smooth="yes"/>
    </contour>
    <contour>
      <point x="499" y="708" type="move" name="top"/>
    </contour>
    <contour>
      <point x="321" y="0" type="move" name="bottom"/>
    </contour>
  </outline>
</glyph>
<glyph name="H" format="1">
  <advance width="779"/>
  <unicode hex="0048"/>
  <outline>
    <contour>
      <point x="575" y="346" type="line"/>
      <point x="583" y="366" type="line"/>
      <point x="230" y="366" type="line"/>
      <point x="223" y="346" type="line"/>
    </contour>
    <contour>
      <point x="486" y="106" type="line" smooth="yes"/>
      <point x="467" y="33"/>
      <point x="451" y="23"/>
      <point x="383" y="20" type="curve"/>
      <point x="379" y="0" type="line"/>
      <point x="413" y="2"/>
      <point x="468" y="3"/>
      <point x="519" y="3" type="curve" smooth="yes"/>
      <point x="578" y="3"/>
      <point x="632" y="2"/>
      <point x="663" y="0" type="curve"/>
      <point x="667" y="20" type="line"/>
      <point x="599" y="23"/>
      <point x="589" y="33"/>
      <point x="608" y="106" type="curve" smooth="yes"/>
      <point x="740" y="602" type="line" smooth="yes"/>
      <point x="759" y="675"/>
      <point x="774" y="685"/>
      <point x="843" y="688" type="curve"/>
      <point x="848" y="708" type="line"/>
      <point x="816" y="706"/>
      <point x="762" y="705"/>
      <point x="703" y="705" type="curve" smooth="yes"/>
      <point x="652" y="705"/>
      <point x="597" y="706"/>
      <point x="564" y="708" type="curve"/>
      <point x="559" y="688" type="line"/>
      <point x="626" y="685"/>
      <point x="638" y="675"/>
      <point x="618" y="602" type="curve" smooth="yes"/>
    </contour>
    <contour>
      <point x="324" y="602" type="line" smooth="yes"/>
      <point x="343" y="675"/>
      <point x="358" y="685"/>
      <point x="427" y="688" type="curve"/>
      <point x="432" y="708" type="line"/>
      <point x="396" y="706"/>
      <point x="342" y="705"/>
      <point x="290" y="705" type="curve" smooth="yes"/>
      <point x="232" y="705"/>
      <point x="177" y="706"/>
      <point x="147" y="708" type="curve"/>
      <point x="142" y="688" type="line"/>
      <point x="209" y="685"/>
      <point x="220" y="675"/>
      <point x="201" y="602" type="curve" smooth="yes"/>
      <point x="69" y="106" type="line" smooth="yes"/>
      <point x="50" y="33"/>
      <point x="34" y="23"/>
      <point x="-32" y="20" type="curve"/>
      <point x="-37" y="0" type="line"/>
      <point x="-5" y="2"/>
      <point x="48" y="3"/>
      <point x="106" y="3" type="curve" smooth="yes"/>
      <point x="158" y="3"/>
      <point x="213" y="2"/>
      <point x="247" y="0" type="curve"/>
      <point x="251" y="20" type="line"/>
      <point x="183" y="23"/>
      <point x="173" y="33"/>
      <point x="192" y="106" type="curve" smooth="yes"/>
    </contour>
    <contour>
      <point x="451" y="515" type="move" name="center"/>
    </contour>
    <contour>
      <point x="322" y="0" type="move" name="bottom"/>
    </contour>
    <contour>
      <point x="499" y="708" type="move" name="top"/>
    </contour>
  </outline>
</glyph>
<glyph name="I" format="1">
  <advance width="363"/>
  <unicode hex="0049"/>
  <outline>
    <contour>
      <point x="324" y="602" type="line" smooth="yes"/>
      <point x="343" y="675"/>
      <point x="358" y="685"/>
      <point x="427" y="688" type="curve"/>
      <point x="432" y="708" type="line"/>
      <point x="395" y="706"/>
      <point x="340" y="705"/>
      <point x="288" y="705" type="curve" smooth="yes"/>
      <point x="230" y="705"/>
      <point x="177" y="706"/>
      <point x="147" y="708" type="curve"/>
      <point x="142" y="688" type="line"/>
      <point x="209" y="685"/>
      <point x="220" y="675"/>
      <point x="201" y="602" type="curve" smooth="yes"/>
      <point x="69" y="106" type="line" smooth="yes"/>
      <point x="50" y="33"/>
      <point x="34" y="23"/>
      <point x="-32" y="20" type="curve"/>
      <point x="-37" y="0" type="line"/>
      <point x="-5" y="2"/>
      <point x="46" y="3"/>
      <point x="104" y="3" type="curve" smooth="yes"/>
      <point x="156" y="3"/>
      <point x="212" y="2"/>
      <point x="247" y="0" type="curve"/>
      <point x="251" y="20" type="line"/>
      <point x="183" y="23"/>
      <point x="173" y="33"/>
      <point x="192" y="106" type="curve" smooth="yes"/>
    </contour>
    <contour>
      <point x="242" y="0" type="move" name="ogonek"/>
    </contour>
    <contour>
      <point x="104" y="0" type="move" name="bottom"/>
    </contour>
    <contour>
      <point x="296" y="708" type="move" name="top"/>
    </contour>
  </outline>
</glyph>
<glyph name="J" format="1">
  <advance width="657"/>
  <unicode hex="004A"/>
  <outline>
    <contour>
      <point x="246" y="366" type="line"/>
      <point x="243" y="346" type="line"/>
      <point x="594" y="346" type="line"/>
      <point x="597" y="366" type="line"/>
    </contour>
    <contour>
      <point x="524" y="587"/>
      <point x="586" y="626"/>
      <point x="667" y="660" type="curve"/>
      <point x="520" y="559"/>
      <point x="402" y="462"/>
      <point x="349" y="262" type="curve" smooth="yes"/>
      <point x="309" y="112" type="line" smooth="yes"/>
      <point x="268" y="-40"/>
      <point x="245" y="-172"/>
      <point x="148" y="-172" type="curve" smooth="yes"/>
      <point x="136" y="-172"/>
      <point x="125" y="-170"/>
      <point x="116" y="-168" type="curve"/>
      <point x="144" y="-155"/>
      <point x="164" y="-134"/>
      <point x="163" y="-106" type="curve" smooth="yes"/>
      <point x="162" y="-77"/>
      <point x="138" y="-57"/>
      <point x="105" y="-57" type="curve" smooth="yes"/>
      <point x="63" y="-57"/>
      <point x="36" y="-89"/>
      <point x="37" y="-124" type="curve" smooth="yes"/>
      <point x="38" y="-169"/>
      <point x="88" y="-188"/>
      <point x="156" y="-188" type="curve" smooth="yes"/>
      <point x="304" y="-188"/>
      <point x="384" y="-71"/>
      <point x="419" y="65" type="curve" smooth="yes"/>
      <point x="481" y="307" type="line" smooth="yes"/>
      <point x="521" y="462"/>
      <point x="584" y="590"/>
      <point x="690" y="666" type="curve"/>
      <point x="761" y="693"/>
      <point x="773" y="716"/>
      <point x="757" y="730" type="curve" smooth="yes"/>
      <point x="737" y="747"/>
      <point x="709" y="720"/>
      <point x="681" y="677" type="curve"/>
      <point x="620" y="650"/>
      <point x="569" y="635"/>
      <point x="507" y="635" type="curve" smooth="yes"/>
      <point x="390" y="635"/>
      <point x="345" y="739"/>
      <point x="226" y="739" type="curve" smooth="yes"/>
      <point x="143" y="739"/>
      <point x="97" y="686"/>
      <point x="99" y="611" type="curve" smooth="yes"/>
      <point x="100" y="529"/>
      <point x="164" y="493"/>
      <point x="237" y="484" type="curve"/>
      <point x="237" y="484"/>
      <point x="240" y="503"/>
      <point x="240" y="503" type="curve"/>
      <point x="180" y="512"/>
      <point x="150" y="537"/>
      <point x="149" y="578" type="curve" smooth="yes"/>
      <point x="148" y="618"/>
      <point x="171" y="640"/>
      <point x="212" y="640" type="curve" smooth="yes"/>
      <point x="298" y="640"/>
      <point x="352" y="587"/>
      <point x="444" y="587" type="curve" smooth="yes"/>
    </contour>
    <contour>
      <point x="500" y="708" type="move" name="top"/>
    </contour>
  </outline>
</glyph>
<glyph name="L" format="1">
  <advance width="594"/>
  <unicode hex="004C"/>
  <outline>
    <contour>
      <point x="524" y="210" type="line"/>
      <point x="472" y="71"/>
      <point x="418" y="23"/>
      <point x="308" y="23" type="curve" smooth="yes"/>
      <point x="250" y="23" type="line" smooth="yes"/>
      <point x="182" y="23"/>
      <point x="172" y="33"/>
      <point x="191" y="106" type="curve" smooth="yes"/>
      <point x="324" y="602" type="line" smooth="yes"/>
      <point x="344" y="675"/>
      <point x="359" y="685"/>
      <point x="428" y="688" type="curve"/>
      <point x="433" y="708" type="line"/>
      <point x="398" y="706"/>
      <point x="344" y="705"/>
      <point x="293" y="705" type="curve" smooth="yes"/>
      <point x="235" y="705"/>
      <point x="180" y="706"/>
      <point x="149" y="708" type="curve"/>
      <point x="144" y="688" type="line"/>
      <point x="211" y="685"/>
      <point x="222" y="675"/>
      <point x="202" y="602" type="curve" smooth="yes"/>
      <point x="69" y="106" type="line" smooth="yes"/>
      <point x="50" y="33"/>
      <point x="34" y="23"/>
      <point x="-34" y="20" type="curve"/>
      <point x="-38" y="0" type="line"/>
      <point x="64" y="3"/>
      <point x="204" y="3"/>
      <point x="267" y="3" type="curve" smooth="yes"/>
      <point x="334" y="3"/>
      <point x="428" y="3"/>
      <point x="496" y="0" type="curve"/>
      <point x="503" y="51"/>
      <point x="515" y="103"/>
      <point x="522" y="128" type="curve" smooth="yes"/>
      <point x="531" y="160"/>
      <point x="539" y="189"/>
      <point x="547" y="210" type="curve"/>
    </contour>
    <contour>
      <point x="293" y="708" type="move" name="top"/>
    </contour>
    <contour>
      <point x="270" y="0" type="move" name="bottom"/>
    </contour>
    <contour>
      <point x="423" y="708" type="move" name="topright"/>
    </contour>
  </outline>
</glyph>
<glyph name="M" format="1">
  <advance width="890"/>
  <unicode hex="004D"/>
  <outline>
    <contour>
      <point x="403" y="152" type="line"/>
      <point x="348" y="708" type="line"/>
      <point x="324" y="706"/>
      <point x="289" y="705"/>
      <point x="259" y="705" type="curve" smooth="yes"/>
      <point x="215" y="705"/>
      <point x="174" y="706"/>
      <point x="148" y="708" type="curve"/>
      <point x="143" y="688" type="line"/>
      <point x="210" y="685"/>
      <point x="221" y="675"/>
      <point x="202" y="602" type="curve" smooth="yes"/>
      <point x="74" y="122" type="line" smooth="yes"/>
      <point x="56" y="53"/>
      <point x="36" y="23"/>
      <point x="-33" y="20" type="curve"/>
      <point x="-37" y="0" type="line"/>
      <point x="-15" y="2"/>
      <point x="23" y="3"/>
      <point x="57" y="3" type="curve" smooth="yes"/>
      <point x="91" y="3"/>
      <point x="139" y="2"/>
      <point x="163" y="0" type="curve"/>
      <point x="167" y="20" type="line"/>
      <point x="85" y="23"/>
      <point x="79" y="53"/>
      <point x="97" y="122" type="curve" smooth="yes"/>
      <point x="232" y="633" type="line"/>
      <point x="305" y="-5" type="line"/>
      <point x="327" y="-5" type="line"/>
      <point x="742" y="645" type="line"/>
      <point x="597" y="106" type="line" smooth="yes"/>
      <point x="578" y="33"/>
      <point x="563" y="23"/>
      <point x="494" y="20" type="curve"/>
      <point x="490" y="0" type="line"/>
      <point x="521" y="2"/>
      <point x="576" y="3"/>
      <point x="634" y="3" type="curve" smooth="yes"/>
      <point x="686" y="3"/>
      <point x="738" y="2"/>
      <point x="774" y="0" type="curve"/>
      <point x="778" y="20" type="line"/>
      <point x="711" y="23"/>
      <point x="700" y="33"/>
      <point x="719" y="106" type="curve" smooth="yes"/>
      <point x="851" y="602" type="line" smooth="yes"/>
      <point x="870" y="675"/>
      <point x="885" y="685"/>
      <point x="954" y="688" type="curve"/>
      <point x="959" y="708" type="line"/>
      <point x="922" y="706"/>
      <point x="870" y="705"/>
      <point x="818" y="705" type="curve" smooth="yes"/>
      <point x="756" y="705" type="line"/>
    </contour>
    <contour>
      <point x="557" y="708" type="move" name="top"/>
    </contour>
    <contour>
      <point x="381" y="0" type="move" name="bottom"/>
    </contour>
  </outline>
</glyph>
<glyph name="N" format="1">
  <advance width="794"/>
  <unicode hex="004E"/>
  <outline>
    <contour>
      <point x="533" y="-5" type="line"/>
      <point x="533" y="-5"/>
      <point x="559" y="180"/>
      <point x="559" y="180" type="curve"/>
      <point x="359" y="708" type="line"/>
      <point x="336" y="706"/>
      <point x="308" y="705"/>
      <point x="278" y="705" type="curve" smooth="yes"/>
      <point x="243" y="705"/>
      <point x="210" y="706"/>
      <point x="189" y="708" type="curve"/>
      <point x="184" y="688" type="line"/>
      <point x="262" y="685"/>
      <point x="270" y="675"/>
      <point x="255" y="602" type="curve"/>
      <point x="255" y="602"/>
      <point x="268" y="608"/>
      <point x="268" y="608" type="curve"/>
      <point x="511" y="-5" type="line"/>
    </contour>
    <contour>
      <point x="820" y="734"/>
      <point x="823" y="733"/>
      <point x="825" y="732" type="curve"/>
      <point x="797" y="718"/>
      <point x="774" y="688"/>
      <point x="774" y="656" type="curve" smooth="yes"/>
      <point x="774" y="631"/>
      <point x="789" y="607"/>
      <point x="826" y="607" type="curve" smooth="yes"/>
      <point x="871" y="607"/>
      <point x="899" y="647"/>
      <point x="899" y="688" type="curve" smooth="yes"/>
      <point x="899" y="724"/>
      <point x="876" y="754"/>
      <point x="824" y="754" type="curve" smooth="yes"/>
      <point x="775" y="754"/>
      <point x="741" y="726"/>
      <point x="716" y="690" type="curve" smooth="yes"/>
      <point x="639" y="578"/>
      <point x="568" y="248"/>
      <point x="519" y="23" type="curve"/>
      <point x="533" y="-5" type="line"/>
      <point x="611" y="364"/>
      <point x="673" y="591"/>
      <point x="734" y="682" type="curve" smooth="yes"/>
      <point x="754" y="712"/>
      <point x="780" y="733"/>
      <point x="817" y="734" type="curve" smooth="yes"/>
    </contour>
    <contour>
      <point x="3" y="-54"/>
      <point x="0" y="-53"/>
      <point x="-2" y="-52" type="curve"/>
      <point x="26" y="-38"/>
      <point x="49" y="-8"/>
      <point x="49" y="24" type="curve" smooth="yes"/>
      <point x="49" y="49"/>
      <point x="34" y="73"/>
      <point x="-2" y="73" type="curve" smooth="yes"/>
      <point x="-47" y="73"/>
      <point x="-75" y="34"/>
      <point x="-75" y="-7" type="curve" smooth="yes"/>
      <point x="-75" y="-44"/>
      <point x="-54" y="-74"/>
      <point x="0" y="-74" type="curve" smooth="yes"/>
      <point x="53" y="-74"/>
      <point x="83" y="-43"/>
      <point x="107" y="-11" type="curve" smooth="yes"/>
      <point x="168" y="70"/>
      <point x="235" y="392"/>
      <point x="288" y="664" type="curve"/>
      <point x="271" y="685" type="line"/>
      <point x="208" y="352"/>
      <point x="149" y="90"/>
      <point x="91" y="-1" type="curve" smooth="yes"/>
      <point x="70" y="-33"/>
      <point x="43" y="-53"/>
      <point x="7" y="-54" type="curve" smooth="yes"/>
    </contour>
    <contour>
      <point x="514" y="708" type="move" name="top"/>
    </contour>
    <contour>
      <point x="304" y="0" type="move" name="bottom"/>
    </contour>
  </outline>
</glyph>
<glyph name="O" format="1">
  <advance width="750"/>
  <unicode hex="004F"/>
  <outline>
    <contour>
      <point x="546" y="704"/>
      <point x="597" y="626"/>
      <point x="597" y="495" type="curve" smooth="yes"/>
      <point x="597" y="254"/>
      <point x="457" y="4"/>
      <point x="309" y="4" type="curve" smooth="yes"/>
      <point x="236" y="4"/>
      <point x="184" y="82"/>
      <point x="184" y="213" type="curve" smooth="yes"/>
      <point x="184" y="454"/>
      <point x="324" y="704"/>
      <point x="473" y="704" type="curve" smooth="yes"/>
    </contour>
    <contour>
      <point x="49" y="73"/>
      <point x="142" y="-14"/>
      <point x="300" y="-14" type="curve" smooth="yes"/>
      <point x="560" y="-14"/>
      <point x="734" y="261"/>
      <point x="734" y="481" type="curve" smooth="yes"/>
      <point x="734" y="635"/>
      <point x="639" y="722"/>
      <point x="482" y="722" type="curve" smooth="yes"/>
      <point x="220" y="722"/>
      <point x="49" y="447"/>
      <point x="49" y="226" type="curve" smooth="yes"/>
    </contour>
    <contour>
      <point x="474" y="708" type="move" name="top"/>
    </contour>
    <contour>
      <point x="306" y="0" type="move" name="bottom"/>
    </contour>
  </outline>
</glyph>
<glyph name="P" format="1">
  <advance width="613"/>
  <unicode hex="0050"/>
  <outline>
    <contour>
      <point x="255" y="284" type="line" smooth="yes"/>
      <point x="489" y="284"/>
      <point x="648" y="399"/>
      <point x="648" y="556" type="curve" smooth="yes"/>
      <point x="648" y="650"/>
      <point x="578" y="707"/>
      <point x="433" y="707" type="curve" smooth="yes"/>
      <point x="383" y="707"/>
      <point x="335" y="705"/>
      <point x="287" y="705" type="curve" smooth="yes"/>
      <point x="237" y="705"/>
      <point x="178" y="706"/>
      <point x="148" y="708" type="curve"/>
      <point x="143" y="688" type="line"/>
      <point x="218" y="686"/>
      <point x="217" y="664"/>
      <point x="202" y="602" type="curve" smooth="yes"/>
      <point x="70" y="106" type="line" smooth="yes"/>
      <point x="51" y="33"/>
      <point x="35" y="23"/>
      <point x="-33" y="20" type="curve"/>
      <point x="-37" y="0" type="line"/>
      <point x="-6" y="2"/>
      <point x="51" y="3"/>
      <point x="109" y="3" type="curve" smooth="yes"/>
      <point x="160" y="3"/>
      <point x="211" y="2"/>
      <point x="246" y="0" type="curve"/>
      <point x="250" y="20" type="line"/>
      <point x="174" y="23"/>
      <point x="176" y="46"/>
      <point x="191" y="106" type="curve" smooth="yes"/>
      <point x="323" y="602" type="line" smooth="yes"/>
      <point x="341" y="670"/>
      <point x="353" y="688"/>
      <point x="404" y="688" type="curve" smooth="yes"/>
      <point x="485" y="688"/>
      <point x="518" y="650"/>
      <point x="518" y="575" type="curve" smooth="yes"/>
      <point x="518" y="435"/>
      <point x="453" y="304"/>
      <point x="265" y="304" type="curve" smooth="yes"/>
      <point x="220" y="304" type="line"/>
      <point x="215" y="284" type="line"/>
    </contour>
    <contour>
      <point x="417" y="708" type="move" name="top"/>
    </contour>
    <contour>
      <point x="104" y="0" type="move" name="bottom"/>
    </contour>
  </outline>
</glyph>
<glyph name="Q" format="1">
  <advance width="803"/>
  <unicode hex="0051"/>
  <outline>
    <contour>
      <point x="439" y="243"/>
      <point x="533" y="329"/>
      <point x="533" y="435" type="curve" smooth="yes"/>
      <point x="533" y="498"/>
      <point x="501" y="539"/>
      <point x="449" y="539" type="curve" smooth="yes"/>
      <point x="404" y="539"/>
      <point x="369" y="507"/>
      <point x="369" y="464" type="curve" smooth="yes"/>
      <point x="369" y="430"/>
      <point x="390" y="405"/>
      <point x="427" y="405" type="curve" smooth="yes"/>
      <point x="457" y="405"/>
      <point x="493" y="422"/>
      <point x="507" y="456" type="curve"/>
      <point x="510" y="445"/>
      <point x="511" y="427"/>
      <point x="509" y="413" type="curve" smooth="yes"/>
      <point x="502" y="344"/>
      <point x="438" y="269"/>
      <point x="350" y="269" type="curve" smooth="yes"/>
      <point x="281" y="269"/>
      <point x="241" y="312"/>
      <point x="241" y="403" type="curve" smooth="yes"/>
      <point x="241" y="548"/>
      <point x="336" y="704"/>
      <point x="485" y="704" type="curve" smooth="yes"/>
      <point x="590" y="704"/>
      <point x="647" y="626"/>
      <point x="647" y="506" type="curve" smooth="yes"/>
      <point x="647" y="290"/>
      <point x="458" y="78"/>
      <point x="260" y="-11" type="curve" smooth="yes"/>
      <point x="197" y="-40"/>
      <point x="124" y="-65"/>
      <point x="72" y="-65" type="curve" smooth="yes"/>
      <point x="13" y="-65"/>
      <point x="-22" y="-46"/>
      <point x="-22" y="-7" type="curve" smooth="yes"/>
      <point x="-22" y="30"/>
      <point x="10" y="51"/>
      <point x="45" y="51" type="curve" smooth="yes"/>
      <point x="164" y="51"/>
      <point x="244" y="-188"/>
      <point x="455" y="-188" type="curve" smooth="yes"/>
      <point x="591" y="-188"/>
      <point x="721" y="-91"/>
      <point x="721" y="5" type="curve" smooth="yes"/>
      <point x="721" y="49"/>
      <point x="694" y="73"/>
      <point x="657" y="73" type="curve" smooth="yes"/>
      <point x="614" y="73"/>
      <point x="584" y="41"/>
      <point x="584" y="3" type="curve" smooth="yes"/>
      <point x="584" y="-32"/>
      <point x="609" y="-56"/>
      <point x="646" y="-56" type="curve" smooth="yes"/>
      <point x="661" y="-56"/>
      <point x="677" y="-52"/>
      <point x="691" y="-43" type="curve"/>
      <point x="664" y="-90"/>
      <point x="619" y="-112"/>
      <point x="554" y="-112" type="curve" smooth="yes"/>
      <point x="345" y="-112"/>
      <point x="255" y="94"/>
      <point x="88" y="94" type="curve" smooth="yes"/>
      <point x="13" y="94"/>
      <point x="-42" y="53"/>
      <point x="-42" y="-5" type="curve" smooth="yes"/>
      <point x="-42" y="-55"/>
      <point x="-3" y="-82"/>
      <point x="62" y="-82" type="curve" smooth="yes"/>
      <point x="279" y="-82"/>
      <point x="780" y="237"/>
      <point x="780" y="517" type="curve" smooth="yes"/>
      <point x="780" y="643"/>
      <point x="671" y="722"/>
      <point x="504" y="722" type="curve" smooth="yes"/>
      <point x="303" y="722"/>
      <point x="109" y="594"/>
      <point x="109" y="419" type="curve" smooth="yes"/>
      <point x="109" y="312"/>
      <point x="183" y="243"/>
      <point x="304" y="243" type="curve" smooth="yes"/>
    </contour>
    <contour>
      <point x="514" y="708" type="move" name="top"/>
    </contour>
  </outline>
</glyph>
<glyph name="R" format="1">
  <advance width="685"/>
  <unicode hex="0052"/>
  <outline>
    <contour>
      <point x="244" y="338" type="line"/>
      <point x="400" y="338"/>
      <point x="421" y="299"/>
      <point x="412" y="204" type="curve" smooth="yes"/>
      <point x="401" y="91" type="line" smooth="yes"/>
      <point x="395" y="34"/>
      <point x="427" y="-14"/>
      <point x="505" y="-14" type="curve" smooth="yes"/>
      <point x="577" y="-14"/>
      <point x="615" y="26"/>
      <point x="639" y="108" type="curve" smooth="yes"/>
      <point x="643" y="121" type="line"/>
      <point x="620" y="121" type="line"/>
      <point x="615" y="107" type="line" smooth="yes"/>
      <point x="597" y="57"/>
      <point x="580" y="29"/>
      <point x="555" y="28" type="curve" smooth="yes"/>
      <point x="526" y="28"/>
      <point x="520" y="64"/>
      <point x="524" y="105" type="curve" smooth="yes"/>
      <point x="534" y="208" type="line" smooth="yes"/>
      <point x="544" y="304"/>
      <point x="486" y="329"/>
      <point x="391" y="342" type="curve" smooth="yes"/>
      <point x="359" y="347"/>
      <point x="334" y="350"/>
      <point x="246" y="354" type="curve"/>
    </contour>
    <contour>
      <point x="274" y="338" type="line" smooth="yes"/>
      <point x="497" y="338"/>
      <point x="648" y="432"/>
      <point x="648" y="567" type="curve" smooth="yes"/>
      <point x="648" y="656"/>
      <point x="578" y="707"/>
      <point x="431" y="707" type="curve" smooth="yes"/>
      <point x="384" y="707"/>
      <point x="337" y="705"/>
      <point x="284" y="705" type="curve" smooth="yes"/>
      <point x="238" y="705"/>
      <point x="178" y="706"/>
      <point x="148" y="708" type="curve"/>
      <point x="143" y="688" type="line"/>
      <point x="217" y="686"/>
      <point x="218" y="664"/>
      <point x="202" y="602" type="curve" smooth="yes"/>
      <point x="70" y="106" type="line" smooth="yes"/>
      <point x="51" y="33"/>
      <point x="35" y="23"/>
      <point x="-33" y="20" type="curve"/>
      <point x="-37" y="0" type="line"/>
      <point x="-6" y="2"/>
      <point x="51" y="3"/>
      <point x="108" y="3" type="curve" smooth="yes"/>
      <point x="161" y="3"/>
      <point x="211" y="2"/>
      <point x="246" y="0" type="curve"/>
      <point x="250" y="20" type="line"/>
      <point x="173" y="22"/>
      <point x="175" y="45"/>
      <point x="192" y="106" type="curve" smooth="yes"/>
      <point x="326" y="611" type="line" smooth="yes"/>
      <point x="342" y="672"/>
      <point x="358" y="688"/>
      <point x="409" y="688" type="curve" smooth="yes"/>
      <point x="486" y="688"/>
      <point x="520" y="652"/>
      <point x="520" y="577" type="curve" smooth="yes"/>
      <point x="520" y="446"/>
      <point x="443" y="357"/>
      <point x="278" y="357" type="curve" smooth="yes"/>
      <point x="239" y="357" type="line"/>
      <point x="234" y="338" type="line"/>
    </contour>
    <contour>
      <point x="411" y="708" type="move" name="top"/>
    </contour>
    <contour>
      <point x="305" y="0" type="move" name="bottom"/>
    </contour>
  </outline>
</glyph>
<glyph name="S" format="1">
  <advance width="569"/>
  <unicode hex="0053"/>
  <outline>
    <contour>
      <point x="575" y="715" type="line"/>
      <point x="562" y="678"/>
      <point x="553" y="662"/>
      <point x="542" y="662" type="curve" smooth="yes"/>
      <point x="535" y="662"/>
      <point x="524" y="669"/>
      <point x="509" y="679" type="curve" smooth="yes"/>
      <point x="474" y="704"/>
      <point x="433" y="722"/>
      <point x="367" y="722" type="curve" smooth="yes"/>
      <point x="257" y="722"/>
      <point x="135" y="657"/>
      <point x="135" y="525" type="curve" smooth="yes"/>
      <point x="135" y="346"/>
      <point x="358" y="291"/>
      <point x="358" y="123" type="curve" smooth="yes"/>
      <point x="358" y="45"/>
      <point x="308" y="7"/>
      <point x="219" y="7" type="curve" smooth="yes"/>
      <point x="112" y="7"/>
      <point x="60" y="60"/>
      <point x="56" y="153" type="curve" smooth="yes"/>
      <point x="55" y="180"/>
      <point x="60" y="207"/>
      <point x="65" y="233" type="curve"/>
      <point x="45" y="233" type="line"/>
      <point x="15" y="94"/>
      <point x="-5" y="36"/>
      <point x="-23" y="-7" type="curve"/>
      <point x="-3" y="-7" type="line"/>
      <point x="13" y="31"/>
      <point x="22" y="47"/>
      <point x="39" y="47" type="curve" smooth="yes"/>
      <point x="47" y="47"/>
      <point x="60" y="43"/>
      <point x="74" y="32" type="curve" smooth="yes"/>
      <point x="107" y="10"/>
      <point x="144" y="-14"/>
      <point x="230" y="-14" type="curve" smooth="yes"/>
      <point x="346" y="-14"/>
      <point x="493" y="43"/>
      <point x="493" y="184" type="curve" smooth="yes"/>
      <point x="493" y="349"/>
      <point x="248" y="434"/>
      <point x="248" y="582" type="curve" smooth="yes"/>
      <point x="248" y="665"/>
      <point x="306" y="701"/>
      <point x="380" y="701" type="curve" smooth="yes"/>
      <point x="478" y="701"/>
      <point x="522" y="643"/>
      <point x="522" y="567" type="curve" smooth="yes"/>
      <point x="522" y="550"/>
      <point x="520" y="530"/>
      <point x="516" y="511" type="curve"/>
      <point x="536" y="511" type="line"/>
      <point x="557" y="616"/>
      <point x="581" y="680"/>
      <point x="595" y="715" type="curve"/>
    </contour>
    <contour>
      <point x="390" y="708" type="move" name="top"/>
    </contour>
    <contour>
      <point x="221" y="0" type="move" name="bottom"/>
    </contour>
  </outline>
</glyph>
<glyph name="T" format="1">
  <advance width="669"/>
  <unicode hex="0054"/>
  <outline>
    <contour>
      <point x="733" y="835"/>
      <point x="712" y="804"/>
      <point x="712" y="768" type="curve" smooth="yes"/>
      <point x="712" y="737"/>
      <point x="729" y="712"/>
      <point x="746" y="697" type="curve"/>
      <point x="747" y="705" type="line"/>
      <point x="715" y="689"/>
      <point x="679" y="684"/>
      <point x="622" y="684" type="curve" smooth="yes"/>
      <point x="511" y="684"/>
      <point x="406" y="709"/>
      <point x="286" y="709" type="curve" smooth="yes"/>
      <point x="261" y="709"/>
      <point x="197" y="708"/>
      <point x="152" y="686" type="curve" smooth="yes"/>
      <point x="106" y="664"/>
      <point x="93" y="629"/>
      <point x="93" y="599" type="curve" smooth="yes"/>
      <point x="93" y="564"/>
      <point x="113" y="537"/>
      <point x="150" y="537" type="curve" smooth="yes"/>
      <point x="190" y="537"/>
      <point x="212" y="571"/>
      <point x="212" y="606" type="curve" smooth="yes"/>
      <point x="212" y="635"/>
      <point x="196" y="662"/>
      <point x="175" y="674" type="curve"/>
      <point x="197" y="688"/>
      <point x="244" y="691"/>
      <point x="288" y="691" type="curve" smooth="yes"/>
      <point x="388" y="691"/>
      <point x="508" y="664"/>
      <point x="614" y="664" type="curve" smooth="yes"/>
      <point x="686" y="664"/>
      <point x="739" y="675"/>
      <point x="776" y="695" type="curve" smooth="yes"/>
      <point x="810" y="713"/>
      <point x="833" y="741"/>
      <point x="833" y="777" type="curve" smooth="yes"/>
      <point x="833" y="808"/>
      <point x="813" y="835"/>
      <point x="774" y="835" type="curve" smooth="yes"/>
    </contour>
    <contour>
      <point x="262" y="116" type="line" smooth="yes"/>
      <point x="241" y="44"/>
      <point x="219" y="23"/>
      <point x="135" y="20" type="curve"/>
      <point x="131" y="0" type="line"/>
      <point x="166" y="2"/>
      <point x="228" y="3"/>
      <point x="290" y="3" type="curve" smooth="yes"/>
      <point x="354" y="3"/>
      <point x="417" y="2"/>
      <point x="455" y="0" type="curve"/>
      <point x="459" y="20" type="line"/>
      <point x="377" y="23"/>
      <point x="364" y="41"/>
      <point x="384" y="116" type="curve" smooth="yes"/>
      <point x="534" y="677" type="line"/>
      <point x="534" y="677"/>
      <point x="415" y="690"/>
      <point x="415" y="690" type="curve"/>
    </contour>
    <contour>
      <point x="379" y="354" type="move" name="center"/>
    </contour>
    <contour>
      <point x="291" y="0" type="move" name="bottom"/>
    </contour>
    <contour>
      <point x="472" y="708" type="move" name="top"/>
    </contour>
  </outline>
</glyph>
<glyph name="U" format="1">
  <advance width="687"/>
  <unicode hex="0055"/>
  <outline>
    <contour>
      <point x="560" y="280" type="line" smooth="yes"/>
      <point x="521" y="131"/>
      <point x="451" y="21"/>
      <point x="302" y="21" type="curve" smooth="yes"/>
      <point x="181" y="21"/>
      <point x="180" y="122"/>
      <point x="219" y="271" type="curve" smooth="yes"/>
      <point x="307" y="602" type="line" smooth="yes"/>
      <point x="326" y="675"/>
      <point x="341" y="685"/>
      <point x="410" y="688" type="curve"/>
      <point x="416" y="708" type="line"/>
      <point x="380" y="706"/>
      <point x="329" y="705"/>
      <point x="278" y="705" type="curve" smooth="yes"/>
      <point x="220" y="705"/>
      <point x="163" y="706"/>
      <point x="133" y="708" type="curve"/>
      <point x="127" y="688" type="line"/>
      <point x="194" y="685"/>
      <point x="205" y="675"/>
      <point x="186" y="602" type="curve" smooth="yes"/>
      <point x="103" y="288" type="line" smooth="yes"/>
      <point x="73" y="174"/>
      <point x="68" y="104"/>
      <point x="111" y="51" type="curve" smooth="yes"/>
      <point x="144" y="8"/>
      <point x="203" y="-14"/>
      <point x="283" y="-14" type="curve" smooth="yes"/>
      <point x="366" y="-14"/>
      <point x="440" y="23"/>
      <point x="488" y="79" type="curve" smooth="yes"/>
      <point x="531" y="130"/>
      <point x="562" y="198"/>
      <point x="586" y="291" type="curve" smooth="yes"/>
      <point x="660" y="576" type="line" smooth="yes"/>
      <point x="681" y="660"/>
      <point x="700" y="682"/>
      <point x="767" y="688" type="curve"/>
      <point x="773" y="708" type="line"/>
      <point x="750" y="706"/>
      <point x="714" y="705"/>
      <point x="681" y="705" type="curve" smooth="yes"/>
      <point x="646" y="705"/>
      <point x="601" y="706"/>
      <point x="578" y="708" type="curve"/>
      <point x="572" y="688" type="line"/>
      <point x="646" y="682"/>
      <point x="660" y="660"/>
      <point x="636" y="571" type="curve" smooth="yes"/>
    </contour>
    <contour>
      <point x="368" y="0" type="move" name="ogonek"/>
    </contour>
    <contour>
      <point x="293" y="0" type="move" name="bottom"/>
    </contour>
    <contour>
      <point x="479" y="708" type="move" name="top"/>
    </contour>
  </outline>
</glyph>
<glyph name="V" format="1">
  <advance width="645"/>
  <unicode hex="0056"/>
  <outline>
    <contour>
      <point x="312" y="117" type="line"/>
      <point x="328" y="126" type="line"/>
      <point x="273" y="604" type="line" smooth="yes"/>
      <point x="264" y="677"/>
      <point x="290" y="685"/>
      <point x="353" y="688" type="curve"/>
      <point x="358" y="708" type="line"/>
      <point x="326" y="706"/>
      <point x="281" y="705"/>
      <point x="223" y="705" type="curve" smooth="yes"/>
      <point x="179" y="705"/>
      <point x="129" y="706"/>
      <point x="99" y="708" type="curve"/>
      <point x="94" y="688" type="line"/>
      <point x="113" y="687"/>
      <point x="140" y="672"/>
      <point x="146" y="624" type="curve" smooth="yes"/>
      <point x="225" y="-5" type="line"/>
      <point x="236" y="-4"/>
      <point x="246" y="-4"/>
      <point x="256" y="-5" type="curve"/>
      <point x="645" y="592" type="line" smooth="yes"/>
      <point x="687" y="659"/>
      <point x="721" y="680"/>
      <point x="754" y="688" type="curve"/>
      <point x="759" y="708" type="line"/>
      <point x="738" y="706"/>
      <point x="716" y="705"/>
      <point x="683" y="705" type="curve" smooth="yes"/>
      <point x="648" y="705"/>
      <point x="594" y="706"/>
      <point x="562" y="708" type="curve"/>
      <point x="557" y="688" type="line"/>
      <point x="638" y="685"/>
      <point x="663" y="654"/>
      <point x="598" y="554" type="curve" smooth="yes"/>
    </contour>
    <contour>
      <point x="434" y="708" type="move" name="top"/>
    </contour>
    <contour>
      <point x="258" y="0" type="move" name="bottom"/>
    </contour>
  </outline>
</glyph>
<glyph name="W" format="1">
  <advance width="937"/>
  <unicode hex="0057"/>
  <outline>
    <contour>
      <point x="536" y="508" type="line"/>
      <point x="302" y="119" type="line"/>
      <point x="321" y="134" type="line"/>
      <point x="267" y="604" type="line" smooth="yes"/>
      <point x="260" y="672"/>
      <point x="277" y="685"/>
      <point x="321" y="688" type="curve"/>
      <point x="325" y="708" type="line"/>
      <point x="299" y="706"/>
      <point x="256" y="705"/>
      <point x="208" y="705" type="curve" smooth="yes"/>
      <point x="163" y="705"/>
      <point x="120" y="706"/>
      <point x="90" y="708" type="curve"/>
      <point x="86" y="688" type="line"/>
      <point x="106" y="687"/>
      <point x="133" y="675"/>
      <point x="140" y="624" type="curve" smooth="yes"/>
      <point x="219" y="-5" type="line"/>
      <point x="251" y="-5" type="line"/>
      <point x="544" y="483" type="line"/>
    </contour>
    <contour>
      <point x="670" y="137" type="line"/>
      <point x="687" y="150" type="line"/>
      <point x="622" y="604" type="line" smooth="yes"/>
      <point x="612" y="673"/>
      <point x="631" y="685"/>
      <point x="699" y="688" type="curve"/>
      <point x="703" y="708" type="line"/>
      <point x="672" y="706"/>
      <point x="620" y="705"/>
      <point x="563" y="705" type="curve" smooth="yes"/>
      <point x="522" y="705"/>
      <point x="482" y="706"/>
      <point x="455" y="708" type="curve"/>
      <point x="451" y="688" type="line"/>
      <point x="468" y="687"/>
      <point x="488" y="674"/>
      <point x="495" y="624" type="curve" smooth="yes"/>
      <point x="589" y="-5" type="line"/>
      <point x="621" y="-5" type="line"/>
      <point x="927" y="592" type="line" smooth="yes"/>
      <point x="963" y="663"/>
      <point x="999" y="680"/>
      <point x="1032" y="688" type="curve"/>
      <point x="1037" y="708" type="line"/>
      <point x="1016" y="706"/>
      <point x="994" y="705"/>
      <point x="961" y="705" type="curve" smooth="yes"/>
      <point x="926" y="705"/>
      <point x="872" y="706"/>
      <point x="840" y="708" type="curve"/>
      <point x="835" y="688" type="line"/>
      <point x="916" y="685"/>
      <point x="939" y="661"/>
      <point x="885" y="554" type="curve" smooth="yes"/>
    </contour>
    <contour>
      <point x="595" y="707" type="move" name="top"/>
    </contour>
    <contour>
      <point x="405" y="0" type="move" name="bottom"/>
    </contour>
  </outline>
</glyph>
<glyph name="X" format="1">
  <advance width="718"/>
  <unicode hex="0058"/>
  <outline>
    <contour>
      <point x="414" y="566" type="line" smooth="yes"/>
      <point x="404" y="648"/>
      <point x="374" y="722"/>
      <point x="275" y="722" type="curve" smooth="yes"/>
      <point x="213" y="722"/>
      <point x="168" y="690"/>
      <point x="142" y="615" type="curve" smooth="yes"/>
      <point x="116" y="538" type="line"/>
      <point x="136" y="538" type="line"/>
      <point x="153" y="589" type="line" smooth="yes"/>
      <point x="171" y="640"/>
      <point x="192" y="662"/>
      <point x="228" y="662" type="curve" smooth="yes"/>
      <point x="273" y="662"/>
      <point x="290" y="621"/>
      <point x="296" y="568" type="curve" smooth="yes"/>
      <point x="347" y="142" type="line" smooth="yes"/>
      <point x="357" y="62"/>
      <point x="386" y="-14"/>
      <point x="489" y="-14" type="curve" smooth="yes"/>
      <point x="550" y="-14"/>
      <point x="592" y="18"/>
      <point x="618" y="93" type="curve" smooth="yes"/>
      <point x="644" y="170" type="line"/>
      <point x="624" y="170" type="line"/>
      <point x="607" y="119" type="line" smooth="yes"/>
      <point x="590" y="69"/>
      <point x="569" y="48"/>
      <point x="533" y="48" type="curve" smooth="yes"/>
      <point x="487" y="48"/>
      <point x="470" y="90"/>
      <point x="464" y="142" type="curve" smooth="yes"/>
    </contour>
    <contour>
      <point x="698" y="702"/>
      <point x="701" y="701"/>
      <point x="703" y="700" type="curve"/>
      <point x="673" y="684"/>
      <point x="653" y="654"/>
      <point x="652" y="624" type="curve" smooth="yes"/>
      <point x="650" y="594"/>
      <point x="666" y="570"/>
      <point x="701" y="570" type="curve" smooth="yes"/>
      <point x="746" y="570"/>
      <point x="772" y="609"/>
      <point x="774" y="648" type="curve" smooth="yes"/>
      <point x="776" y="688"/>
      <point x="755" y="722"/>
      <point x="702" y="722" type="curve" smooth="yes"/>
      <point x="670" y="722"/>
      <point x="640" y="710"/>
      <point x="610" y="687" type="curve" smooth="yes"/>
      <point x="539" y="627"/>
      <point x="448" y="484"/>
      <point x="401" y="354" type="curve"/>
      <point x="386" y="278" type="line"/>
      <point x="466" y="493"/>
      <point x="566" y="632"/>
      <point x="629" y="680" type="curve" smooth="yes"/>
      <point x="649" y="695"/>
      <point x="669" y="702"/>
      <point x="694" y="702" type="curve" smooth="yes"/>
    </contour>
    <contour>
      <point x="40" y="6"/>
      <point x="37" y="7"/>
      <point x="35" y="8" type="curve"/>
      <point x="64" y="24"/>
      <point x="84" y="54"/>
      <point x="86" y="84" type="curve" smooth="yes"/>
      <point x="87" y="114"/>
      <point x="71" y="138"/>
      <point x="36" y="138" type="curve" smooth="yes"/>
      <point x="-8" y="138"/>
      <point x="-34" y="99"/>
      <point x="-36" y="60" type="curve" smooth="yes"/>
      <point x="-38" y="20"/>
      <point x="-17" y="-14"/>
      <point x="36" y="-14" type="curve" smooth="yes"/>
      <point x="67" y="-14"/>
      <point x="98" y="-2"/>
      <point x="128" y="20" type="curve" smooth="yes"/>
      <point x="204" y="76"/>
      <point x="299" y="202"/>
      <point x="349" y="320" type="curve"/>
      <point x="365" y="396" type="line"/>
      <point x="282" y="196"/>
      <point x="175" y="72"/>
      <point x="109" y="28" type="curve" smooth="yes"/>
      <point x="89" y="14"/>
      <point x="69" y="7"/>
      <point x="45" y="6" type="curve" smooth="yes"/>
    </contour>
    <contour>
      <point x="471" y="708" type="move" name="top"/>
    </contour>
    <contour>
      <point x="295" y="0" type="move" name="bottom"/>
    </contour>
  </outline>
</glyph>
<glyph name="Y" format="1">
  <advance width="698"/>
  <unicode hex="0059"/>
  <outline>
    <contour>
      <point x="444" y="416" type="line"/>
      <point x="410" y="336" type="line"/>
      <point x="361" y="317" type="line"/>
      <point x="313" y="380" type="line"/>
      <point x="244" y="106" type="line" smooth="yes"/>
      <point x="226" y="33"/>
      <point x="209" y="23"/>
      <point x="141" y="20" type="curve"/>
      <point x="136" y="0" type="line"/>
      <point x="168" y="2"/>
      <point x="223" y="3"/>
      <point x="280" y="3" type="curve" smooth="yes"/>
      <point x="333" y="3"/>
      <point x="392" y="2"/>
      <point x="426" y="0" type="curve"/>
      <point x="431" y="20" type="line"/>
      <point x="363" y="23"/>
      <point x="348" y="33"/>
      <point x="366" y="106" type="curve" smooth="yes"/>
    </contour>
    <contour>
      <point x="703" y="702"/>
      <point x="707" y="701"/>
      <point x="709" y="700" type="curve"/>
      <point x="680" y="686"/>
      <point x="658" y="658"/>
      <point x="657" y="627" type="curve" smooth="yes"/>
      <point x="657" y="599"/>
      <point x="672" y="575"/>
      <point x="709" y="575" type="curve" smooth="yes"/>
      <point x="754" y="575"/>
      <point x="781" y="613"/>
      <point x="782" y="650" type="curve" smooth="yes"/>
      <point x="784" y="687"/>
      <point x="762" y="722"/>
      <point x="710" y="722" type="curve" smooth="yes"/>
      <point x="665" y="722"/>
      <point x="623" y="691"/>
      <point x="592" y="658" type="curve" smooth="yes"/>
      <point x="526" y="590"/>
      <point x="463" y="490"/>
      <point x="415" y="362" type="curve"/>
      <point x="390" y="585"/>
      <point x="359" y="722"/>
      <point x="237" y="722" type="curve" smooth="yes"/>
      <point x="177" y="722"/>
      <point x="143" y="693"/>
      <point x="120" y="626" type="curve" smooth="yes"/>
      <point x="91" y="538" type="line"/>
      <point x="91" y="538"/>
      <point x="113" y="538"/>
      <point x="113" y="538" type="curve"/>
      <point x="138" y="612" type="line" smooth="yes"/>
      <point x="148" y="642"/>
      <point x="161" y="659"/>
      <point x="185" y="659" type="curve" smooth="yes"/>
      <point x="262" y="659"/>
      <point x="294" y="418"/>
      <point x="307" y="265" type="curve"/>
      <point x="401" y="270" type="line"/>
      <point x="480" y="506"/>
      <point x="580" y="635"/>
      <point x="642" y="680" type="curve" smooth="yes"/>
      <point x="661" y="693"/>
      <point x="679" y="701"/>
      <point x="700" y="702" type="curve" smooth="yes"/>
    </contour>
    <contour>
      <point x="473" y="708" type="move" name="top"/>
    </contour>
    <contour>
      <point x="277" y="0" type="move" name="bottom"/>
    </contour>
  </outline>
</glyph>
<glyph name="Z" format="1">
  <advance width="655"/>
  <unicode hex="005A"/>
  <outline>
    <contour>
      <point x="512" y="346" type="line"/>
      <point x="520" y="366" type="line"/>
      <point x="167" y="366" type="line"/>
      <point x="160" y="346" type="line"/>
    </contour>
    <contour>
      <point x="497" y="198"/>
      <point x="521" y="176"/>
      <point x="521" y="142" type="curve" smooth="yes"/>
      <point x="521" y="107"/>
      <point x="501" y="87"/>
      <point x="463" y="87" type="curve" smooth="yes"/>
      <point x="387" y="87"/>
      <point x="342" y="138"/>
      <point x="252" y="138" type="curve" smooth="yes"/>
      <point x="190" y="138"/>
      <point x="125" y="111"/>
      <point x="65" y="68" type="curve"/>
      <point x="645" y="638" type="line"/>
      <point x="716" y="665"/>
      <point x="730" y="699"/>
      <point x="714" y="713" type="curve" smooth="yes"/>
      <point x="694" y="730"/>
      <point x="656" y="703"/>
      <point x="626" y="660" type="curve"/>
      <point x="580" y="638"/>
      <point x="546" y="623"/>
      <point x="497" y="623" type="curve" smooth="yes"/>
      <point x="395" y="623"/>
      <point x="355" y="722"/>
      <point x="249" y="722" type="curve" smooth="yes"/>
      <point x="168" y="722"/>
      <point x="118" y="669"/>
      <point x="118" y="596" type="curve" smooth="yes"/>
      <point x="118" y="520"/>
      <point x="178" y="490"/>
      <point x="234" y="480" type="curve"/>
      <point x="234" y="480"/>
      <point x="239" y="500"/>
      <point x="239" y="500" type="curve"/>
      <point x="190" y="510"/>
      <point x="166" y="532"/>
      <point x="166" y="566" type="curve" smooth="yes"/>
      <point x="166" y="601"/>
      <point x="186" y="621"/>
      <point x="224" y="621" type="curve" smooth="yes"/>
      <point x="300" y="621"/>
      <point x="345" y="570"/>
      <point x="435" y="570" type="curve" smooth="yes"/>
      <point x="497" y="570"/>
      <point x="562" y="597"/>
      <point x="621" y="640" type="curve"/>
      <point x="41" y="70" type="line"/>
      <point x="-30" y="43"/>
      <point x="-44" y="9"/>
      <point x="-28" y="-5" type="curve" smooth="yes"/>
      <point x="-9" y="-22"/>
      <point x="30" y="5"/>
      <point x="60" y="48" type="curve"/>
      <point x="107" y="70"/>
      <point x="141" y="85"/>
      <point x="190" y="85" type="curve" smooth="yes"/>
      <point x="292" y="85"/>
      <point x="332" y="-14"/>
      <point x="437" y="-14" type="curve" smooth="yes"/>
      <point x="519" y="-14"/>
      <point x="569" y="39"/>
      <point x="569" y="112" type="curve" smooth="yes"/>
      <point x="569" y="188"/>
      <point x="509" y="218"/>
      <point x="452" y="228" type="curve"/>
      <point x="452" y="228"/>
      <point x="448" y="208"/>
      <point x="448" y="208" type="curve"/>
    </contour>
    <contour>
      <point x="440" y="708" type="move" name="top"/>
    </contour>
    <contour>
      <point x="256" y="0" type="move" name="bottom"/>
    </contour>
  </outline>
</glyph>
<glyph name="bracketright" format="1">
  <advance width="328"/>
  <unicode hex="005D"/>
  <outline>
    <contour>
      <point x="155" y="772" type="line"/>
      <point x="151" y="753" type="line"/>
      <point x="232" y="753" type="line"/>
      <point x="3" y="-162" type="line"/>
      <point x="-78" y="-162" type="line"/>
      <point x="-82" y="-181" type="line"/>
      <point x="114" y="-181" type="line"/>
      <point x="351" y="772" type="line"/>
    </contour>
  </outline>
</glyph>
<glyph name="asciicircum" format="1">
  <advance width="532"/>
  <unicode hex="005E"/>
  <outline>
    <contour>
      <point x="322" y="381"/>
      <point x="394" y="340"/>
      <point x="468" y="317" type="curve"/>
      <point x="478" y="331" type="line"/>
      <point x="399" y="374"/>
      <point x="350" y="451"/>
      <point x="339" y="528" type="curve"/>
      <point x="321" y="528" type="line"/>
      <point x="269" y="451"/>
      <point x="177" y="374"/>
      <point x="77" y="331" type="curve"/>
      <point x="81" y="317" type="line"/>
      <point x="152" y="342"/>
      <point x="229" y="382"/>
      <point x="279" y="421" type="curve"/>
    </contour>
  </outline>
</glyph>
<glyph name="a" format="1">
  <advance width="539"/>
  <unicode hex="0061"/>
  <outline>
    <contour>
      <point x="130" y="28"/>
      <point x="119" y="46"/>
      <point x="119" y="98" type="curve" smooth="yes"/>
      <point x="119" y="276"/>
      <point x="234" y="502"/>
      <point x="314" y="502" type="curve" smooth="yes"/>
      <point x="349" y="502"/>
      <point x="365" y="463"/>
      <point x="357" y="403" type="curve"/>
      <point x="368" y="409" type="line"/>
      <point x="381" y="488"/>
      <point x="352" y="529"/>
      <point x="307" y="529" type="curve" smooth="yes"/>
      <point x="158" y="529"/>
      <point x="5" y="277"/>
      <point x="5" y="108" type="curve" smooth="yes"/>
      <point x="5" y="35"/>
      <point x="38" y="-14"/>
      <point x="107" y="-14" type="curve" smooth="yes"/>
      <point x="184" y="-14"/>
      <point x="255" y="52"/>
      <point x="320" y="237" type="curve"/>
      <point x="339" y="345" type="line"/>
      <point x="297" y="167"/>
      <point x="205" y="28"/>
      <point x="151" y="28" type="curve" smooth="yes"/>
    </contour>
    <contour>
      <point x="285" y="135" type="line" smooth="yes"/>
      <point x="272" y="87"/>
      <point x="262" y="44"/>
      <point x="281" y="14" type="curve" smooth="yes"/>
      <point x="292" y="-3"/>
      <point x="315" y="-14"/>
      <point x="344" y="-14" type="curve" smooth="yes"/>
      <point x="387" y="-14"/>
      <point x="438" y="9"/>
      <point x="467" y="90" type="curve" smooth="yes"/>
      <point x="492" y="163" type="line"/>
      <point x="473" y="163" type="line"/>
      <point x="458" y="121" type="line" smooth="yes"/>
      <point x="434" y="49"/>
      <point x="410" y="29"/>
      <point x="388" y="29" type="curve" smooth="yes"/>
      <point x="359" y="29"/>
      <point x="367" y="64"/>
      <point x="373" y="86" type="curve" smooth="yes"/>
      <point x="501" y="529" type="line"/>
      <point x="467" y="520"/>
      <point x="428" y="516"/>
      <point x="385" y="515" type="curve"/>
    </contour>
    <contour>
      <point x="394" y="0" type="move" name="ogonek"/>
    </contour>
    <contour>
      <point x="205" y="0" type="move" name="bottom"/>
    </contour>
    <contour>
      <point x="343" y="515" type="move" name="top"/>
    </contour>
  </outline>
</glyph>
<glyph name="b" format="1">
  <advance width="523"/>
  <unicode hex="0062"/>
  <outline>
    <contour>
      <point x="361" y="488"/>
      <point x="376" y="465"/>
      <point x="376" y="409" type="curve" smooth="yes"/>
      <point x="376" y="256"/>
      <point x="282" y="12"/>
      <point x="175" y="12" type="curve" smooth="yes"/>
      <point x="147" y="12"/>
      <point x="127" y="25"/>
      <point x="110" y="63" type="curve"/>
      <point x="103" y="45" type="line"/>
      <point x="115" y="8"/>
      <point x="149" y="-14"/>
      <point x="188" y="-14" type="curve" smooth="yes"/>
      <point x="380" y="-14"/>
      <point x="489" y="230"/>
      <point x="489" y="382" type="curve" smooth="yes"/>
      <point x="489" y="480"/>
      <point x="447" y="529"/>
      <point x="376" y="529" type="curve" smooth="yes"/>
      <point x="291" y="529"/>
      <point x="223" y="440"/>
      <point x="146" y="211" type="curve"/>
      <point x="128" y="106" type="line"/>
      <point x="175" y="302"/>
      <point x="273" y="488"/>
      <point x="335" y="488" type="curve" smooth="yes"/>
    </contour>
    <contour>
      <point x="324" y="795" type="line"/>
      <point x="266" y="769"/>
      <point x="206" y="755"/>
      <point x="123" y="754" type="curve"/>
      <point x="118" y="733" type="line"/>
      <point x="183" y="733"/>
      <point x="192" y="712"/>
      <point x="181" y="667" type="curve" smooth="yes"/>
      <point x="3" y="49" type="line" smooth="yes"/>
      <point x="-1" y="29"/>
      <point x="-8" y="9"/>
      <point x="-17" y="-9" type="curve"/>
      <point x="-2" y="-16" type="line"/>
      <point x="36" y="8"/>
      <point x="77" y="32"/>
      <point x="114" y="47" type="curve"/>
    </contour>
    <contour>
      <point x="395" y="772" type="move" name="top"/>
    </contour>
    <contour>
      <point x="197" y="0" type="move" name="bottom"/>
    </contour>
  </outline>
</glyph>
<glyph name="c" format="1">
  <advance width="446"/>
  <unicode hex="0063"/>
  <outline>
    <contour>
      <point x="368" y="509"/>
      <point x="386" y="499"/>
      <point x="398" y="483" type="curve"/>
      <point x="355" y="474"/>
      <point x="315" y="439"/>
      <point x="315" y="393" type="curve" smooth="yes"/>
      <point x="315" y="365"/>
      <point x="334" y="346"/>
      <point x="364" y="346" type="curve" smooth="yes"/>
      <point x="413" y="346"/>
      <point x="447" y="394"/>
      <point x="447" y="439" type="curve" smooth="yes"/>
      <point x="447" y="493"/>
      <point x="398" y="529"/>
      <point x="333" y="529" type="curve" smooth="yes"/>
      <point x="136" y="529"/>
      <point x="14" y="295"/>
      <point x="14" y="136" type="curve" smooth="yes"/>
      <point x="14" y="35"/>
      <point x="72" y="-14"/>
      <point x="158" y="-14" type="curve" smooth="yes"/>
      <point x="251" y="-14"/>
      <point x="326" y="53"/>
      <point x="366" y="120" type="curve"/>
      <point x="346" y="128" type="line"/>
      <point x="298" y="56"/>
      <point x="250" y="33"/>
      <point x="204" y="33" type="curve" smooth="yes"/>
      <point x="161" y="33"/>
      <point x="132" y="62"/>
      <point x="132" y="131" type="curve" smooth="yes"/>
      <point x="132" y="327"/>
      <point x="237" y="509"/>
      <point x="339" y="509" type="curve" smooth="yes"/>
    </contour>
    <contour>
      <point x="316" y="515" type="move" name="top"/>
    </contour>
    <contour>
      <point x="153" y="0" type="move" name="bottom"/>
    </contour>
  </outline>
</glyph>
<glyph name="d" format="1">
  <advance width="558"/>
  <unicode hex="0064"/>
  <outline>
    <contour>
      <point x="589" y="795" type="line"/>
      <point x="531" y="769"/>
      <point x="470" y="755"/>
      <point x="387" y="754" type="curve"/>
      <point x="381" y="733" type="line"/>
      <point x="446" y="733"/>
      <point x="457" y="712"/>
      <point x="445" y="667" type="curve" smooth="yes"/>
      <point x="303" y="135" type="line" smooth="yes"/>
      <point x="291" y="93"/>
      <point x="288" y="61"/>
      <point x="294" y="38" type="curve" smooth="yes"/>
      <point x="300" y="4"/>
      <point x="324" y="-14"/>
      <point x="364" y="-14" type="curve" smooth="yes"/>
      <point x="407" y="-14"/>
      <point x="461" y="7"/>
      <point x="487" y="89" type="curve" smooth="yes"/>
      <point x="511" y="162" type="line"/>
      <point x="492" y="162" type="line"/>
      <point x="477" y="120" type="line" smooth="yes"/>
      <point x="453" y="49"/>
      <point x="432" y="28"/>
      <point x="410" y="28" type="curve" smooth="yes"/>
      <point x="385" y="28"/>
      <point x="383" y="53"/>
      <point x="393" y="85" type="curve" smooth="yes"/>
    </contour>
    <contour>
      <point x="136" y="26"/>
      <point x="124" y="52"/>
      <point x="124" y="105" type="curve" smooth="yes"/>
      <point x="124" y="278"/>
      <point x="233" y="506"/>
      <point x="343" y="506" type="curve" smooth="yes"/>
      <point x="369" y="506"/>
      <point x="387" y="488"/>
      <point x="393" y="446" type="curve"/>
      <point x="401" y="466" type="line"/>
      <point x="398" y="507"/>
      <point x="372" y="529"/>
      <point x="336" y="529" type="curve" smooth="yes"/>
      <point x="141" y="529"/>
      <point x="9" y="278"/>
      <point x="9" y="122" type="curve" smooth="yes"/>
      <point x="9" y="28"/>
      <point x="55" y="-14"/>
      <point x="119" y="-14" type="curve" smooth="yes"/>
      <point x="213" y="-14"/>
      <point x="279" y="68"/>
      <point x="353" y="268" type="curve"/>
      <point x="368" y="376" type="line"/>
      <point x="320" y="175"/>
      <point x="219" y="26"/>
      <point x="162" y="26" type="curve" smooth="yes"/>
    </contour>
    <contour>
      <point x="449" y="608" type="move" name="center"/>
    </contour>
    <contour>
      <point x="388" y="772" type="move" name="top"/>
    </contour>
    <contour>
      <point x="582" y="772" type="move" name="topright"/>
    </contour>
    <contour>
      <point x="215" y="0" type="move" name="bottom"/>
    </contour>
  </outline>
</glyph>
<glyph name="e" format="1">
  <advance width="447"/>
  <unicode hex="0065"/>
  <outline>
    <contour>
      <point x="104" y="207" type="line"/>
      <point x="226" y="240"/>
      <point x="439" y="324"/>
      <point x="439" y="457" type="curve" smooth="yes"/>
      <point x="439" y="506"/>
      <point x="401" y="529"/>
      <point x="352" y="529" type="curve" smooth="yes"/>
      <point x="154" y="529"/>
      <point x="8" y="285"/>
      <point x="8" y="127" type="curve" smooth="yes"/>
      <point x="8" y="34"/>
      <point x="66" y="-14"/>
      <point x="151" y="-14" type="curve" smooth="yes"/>
      <point x="246" y="-14"/>
      <point x="325" y="53"/>
      <point x="366" y="120" type="curve"/>
      <point x="350" y="128" type="line"/>
      <point x="298" y="59"/>
      <point x="242" y="36"/>
      <point x="200" y="36" type="curve" smooth="yes"/>
      <point x="155" y="36"/>
      <point x="127" y="62"/>
      <point x="127" y="132" type="curve" smooth="yes"/>
      <point x="127" y="308"/>
      <point x="251" y="510"/>
      <point x="330" y="510" type="curve" smooth="yes"/>
      <point x="340" y="510"/>
      <point x="346" y="503"/>
      <point x="346" y="471" type="curve" smooth="yes"/>
      <point x="346" y="401"/>
      <point x="314" y="343"/>
      <point x="264" y="301" type="curve" smooth="yes"/>
      <point x="229" y="271"/>
      <point x="171" y="246"/>
      <point x="105" y="222" type="curve"/>
    </contour>
    <contour>
      <point x="222" y="0" type="move" name="ogonek"/>
    </contour>
    <contour>
      <point x="164" y="0" type="move" name="bottom"/>
    </contour>
    <contour>
      <point x="319" y="515" type="move" name="top"/>
    </contour>
  </outline>
</glyph>
<glyph name="g" format="1">
  <advance width="459"/>
  <unicode hex="0067"/>
  <outline>
    <contour>
      <point x="78" y="163"/>
      <point x="28" y="124"/>
      <point x="28" y="78" type="curve" smooth="yes"/>
      <point x="28" y="43"/>
      <point x="52" y="24"/>
      <point x="85" y="15" type="curve" smooth="yes"/>
      <point x="233" y="-25" type="line" smooth="yes"/>
      <point x="263" y="-33"/>
      <point x="279" y="-37"/>
      <point x="279" y="-59" type="curve" smooth="yes"/>
      <point x="279" y="-122"/>
      <point x="175" y="-176"/>
      <point x="92" y="-176" type="curve" smooth="yes"/>
      <point x="40" y="-176"/>
      <point x="3" y="-155"/>
      <point x="3" y="-109" type="curve" smooth="yes"/>
      <point x="3" y="-80"/>
      <point x="18" y="-49"/>
      <point x="67" y="-24" type="curve"/>
      <point x="61" y="-9" type="line"/>
      <point x="-28" y="-28"/>
      <point x="-99" y="-71"/>
      <point x="-99" y="-118" type="curve" smooth="yes"/>
      <point x="-99" y="-163"/>
      <point x="-34" y="-193"/>
      <point x="69" y="-193" type="curve" smooth="yes"/>
      <point x="258" y="-193"/>
      <point x="366" y="-93"/>
      <point x="366" y="-12" type="curve" smooth="yes"/>
      <point x="366" y="44"/>
      <point x="313" y="66"/>
      <point x="252" y="84" type="curve" smooth="yes"/>
      <point x="175" y="107" type="line" smooth="yes"/>
      <point x="137" y="117"/>
      <point x="121" y="126"/>
      <point x="121" y="139" type="curve" smooth="yes"/>
      <point x="121" y="163"/>
      <point x="178" y="189"/>
      <point x="254" y="227" type="curve"/>
      <point x="219" y="226" type="line"/>
    </contour>
    <contour>
      <point x="300" y="511"/>
      <point x="307" y="482"/>
      <point x="307" y="442" type="curve" smooth="yes"/>
      <point x="307" y="367"/>
      <point x="284" y="232"/>
      <point x="199" y="232" type="curve" smooth="yes"/>
      <point x="172" y="232"/>
      <point x="155" y="248"/>
      <point x="155" y="291" type="curve" smooth="yes"/>
      <point x="155" y="352"/>
      <point x="179" y="511"/>
      <point x="267" y="511" type="curve" smooth="yes"/>
    </contour>
    <contour>
      <point x="114" y="529"/>
      <point x="47" y="404"/>
      <point x="47" y="324" type="curve" smooth="yes"/>
      <point x="47" y="248"/>
      <point x="107" y="214"/>
      <point x="186" y="214" type="curve" smooth="yes"/>
      <point x="327" y="214"/>
      <point x="417" y="320"/>
      <point x="417" y="417" type="curve" smooth="yes"/>
      <point x="417" y="495"/>
      <point x="359" y="529"/>
      <point x="277" y="529" type="curve" smooth="yes"/>
    </contour>
    <contour>
      <point x="371" y="516"/>
      <point x="389" y="537"/>
      <point x="443" y="557" type="curve"/>
      <point x="432" y="561" type="line"/>
      <point x="400" y="486"/>
      <point x="436" y="454"/>
      <point x="468" y="454" type="curve" smooth="yes"/>
      <point x="490" y="454"/>
      <point x="513" y="472"/>
      <point x="513" y="510" type="curve" smooth="yes"/>
      <point x="513" y="550"/>
      <point x="490" y="572"/>
      <point x="452" y="572" type="curve" smooth="yes"/>
      <point x="402" y="572"/>
      <point x="352" y="532"/>
      <point x="332" y="484" type="curve"/>
      <point x="351" y="477" type="line"/>
    </contour>
    <contour>
      <point x="292" y="515" type="move" name="top"/>
    </contour>
    <contour>
      <point x="111" y="-191" type="move" name="bottom"/>
    </contour>
  </outline>
</glyph>
<glyph name="h" format="1">
  <advance width="551"/>
  <unicode hex="0068"/>
  <outline>
    <contour>
      <point x="331" y="795" type="line"/>
      <point x="273" y="769"/>
      <point x="210" y="755"/>
      <point x="128" y="754" type="curve"/>
      <point x="121" y="733" type="line"/>
      <point x="186" y="733"/>
      <point x="198" y="712"/>
      <point x="185" y="667" type="curve" smooth="yes"/>
      <point x="-13" y="0" type="line"/>
      <point x="98" y="0" type="line"/>
    </contour>
    <contour>
      <point x="102" y="15" type="line"/>
      <point x="173" y="279"/>
      <point x="287" y="489"/>
      <point x="364" y="489" type="curve" smooth="yes"/>
      <point x="401" y="489"/>
      <point x="391" y="445"/>
      <point x="380" y="413" type="curve" smooth="yes"/>
      <point x="288" y="135" type="line" smooth="yes"/>
      <point x="260" y="50"/>
      <point x="264" y="-14"/>
      <point x="351" y="-14" type="curve" smooth="yes"/>
      <point x="396" y="-14"/>
      <point x="449" y="5"/>
      <point x="478" y="89" type="curve" smooth="yes"/>
      <point x="503" y="162" type="line"/>
      <point x="484" y="162" type="line"/>
      <point x="469" y="120" type="line" smooth="yes"/>
      <point x="443" y="46"/>
      <point x="420" y="28"/>
      <point x="399" y="28" type="curve" smooth="yes"/>
      <point x="374" y="28"/>
      <point x="372" y="49"/>
      <point x="384" y="85" type="curve" smooth="yes"/>
      <point x="481" y="378" type="line" smooth="yes"/>
      <point x="506" y="454"/>
      <point x="506" y="529"/>
      <point x="410" y="529" type="curve" smooth="yes"/>
      <point x="305" y="529"/>
      <point x="227" y="439"/>
      <point x="125" y="147" type="curve"/>
    </contour>
    <contour>
      <point x="261" y="608" type="move" name="center"/>
    </contour>
    <contour>
      <point x="211" y="0" type="move" name="bottom"/>
    </contour>
    <contour>
      <point x="421" y="772" type="move" name="top"/>
    </contour>
  </outline>
</glyph>
<glyph name="i" format="1">
  <advance width="311"/>
  <unicode hex="0069"/>
  <outline>
    <contour>
      <point x="179" y="654"/>
      <point x="203" y="626"/>
      <point x="243" y="626" type="curve" smooth="yes"/>
      <point x="287" y="626"/>
      <point x="325" y="658"/>
      <point x="330" y="701" type="curve" smooth="yes"/>
      <point x="335" y="738"/>
      <point x="311" y="766"/>
      <point x="270" y="766" type="curve" smooth="yes"/>
      <point x="226" y="766"/>
      <point x="188" y="736"/>
      <point x="184" y="691" type="curve" smooth="yes"/>
    </contour>
    <contour>
      <point x="47" y="135" type="line" smooth="yes"/>
      <point x="17" y="51"/>
      <point x="23" y="-14"/>
      <point x="109" y="-14" type="curve" smooth="yes"/>
      <point x="157" y="-14"/>
      <point x="209" y="9"/>
      <point x="238" y="89" type="curve" smooth="yes"/>
      <point x="263" y="162" type="line"/>
      <point x="244" y="162" type="line"/>
      <point x="229" y="120" type="line" smooth="yes"/>
      <point x="202" y="49"/>
      <point x="180" y="28"/>
      <point x="157" y="28" type="curve" smooth="yes"/>
      <point x="134" y="28"/>
      <point x="129" y="48"/>
      <point x="142" y="85" type="curve" smooth="yes"/>
      <point x="249" y="389" type="line" smooth="yes"/>
      <point x="270" y="452"/>
      <point x="276" y="529"/>
      <point x="186" y="529" type="curve" smooth="yes"/>
      <point x="138" y="529"/>
      <point x="85" y="508"/>
      <point x="56" y="426" type="curve" smooth="yes"/>
      <point x="29" y="352" type="line"/>
      <point x="48" y="352" type="line"/>
      <point x="64" y="395" type="line" smooth="yes"/>
      <point x="88" y="459"/>
      <point x="109" y="487"/>
      <point x="137" y="487" type="curve" smooth="yes"/>
      <point x="157" y="487"/>
      <point x="163" y="468"/>
      <point x="150" y="430" type="curve" smooth="yes"/>
    </contour>
    <contour>
      <point x="162" y="0" type="move" name="ogonek"/>
    </contour>
    <contour>
      <point x="91" y="0" type="move" name="bottom"/>
    </contour>
    <contour>
      <point x="226" y="514" type="move" name="top"/>
    </contour>
  </outline>
</glyph>
<glyph name="k" format="1">
  <advance width="532"/>
  <unicode hex="006B"/>
  <outline>
    <contour>
      <point x="331" y="795" type="line"/>
      <point x="273" y="769"/>
      <point x="210" y="755"/>
      <point x="128" y="754" type="curve"/>
      <point x="121" y="733" type="line"/>
      <point x="186" y="733"/>
      <point x="198" y="712"/>
      <point x="185" y="667" type="curve" smooth="yes"/>
      <point x="-13" y="0" type="line"/>
      <point x="98" y="0" type="line"/>
    </contour>
    <contour>
      <point x="379" y="158" type="line" smooth="yes"/>
      <point x="404" y="279"/>
      <point x="278" y="299"/>
      <point x="169" y="290" type="curve"/>
      <point x="169" y="286" type="line"/>
      <point x="269" y="278"/>
      <point x="292" y="247"/>
      <point x="276" y="172" type="curve" smooth="yes"/>
      <point x="258" y="90" type="line" smooth="yes"/>
      <point x="242" y="19"/>
      <point x="274" y="-14"/>
      <point x="327" y="-14" type="curve" smooth="yes"/>
      <point x="378" y="-14"/>
      <point x="430" y="8"/>
      <point x="457" y="89" type="curve" smooth="yes"/>
      <point x="481" y="162" type="line"/>
      <point x="462" y="162" type="line"/>
      <point x="448" y="120" type="line" smooth="yes"/>
      <point x="423" y="49"/>
      <point x="402" y="28"/>
      <point x="379" y="28" type="curve" smooth="yes"/>
      <point x="361" y="28"/>
      <point x="355" y="39"/>
      <point x="362" y="70" type="curve" smooth="yes"/>
    </contour>
    <contour>
      <point x="434" y="509"/>
      <point x="437" y="508"/>
      <point x="439" y="505" type="curve"/>
      <point x="415" y="488"/>
      <point x="393" y="460"/>
      <point x="392" y="432" type="curve" smooth="yes"/>
      <point x="391" y="406"/>
      <point x="406" y="382"/>
      <point x="442" y="382" type="curve" smooth="yes"/>
      <point x="487" y="382"/>
      <point x="510" y="421"/>
      <point x="512" y="456" type="curve" smooth="yes"/>
      <point x="513" y="495"/>
      <point x="492" y="529"/>
      <point x="438" y="529" type="curve" smooth="yes"/>
      <point x="420" y="529"/>
      <point x="400" y="524"/>
      <point x="377" y="506" type="curve" smooth="yes"/>
      <point x="308" y="453"/>
      <point x="330" y="306"/>
      <point x="173" y="297" type="curve"/>
      <point x="171" y="286" type="line"/>
      <point x="181" y="287" type="line"/>
      <point x="341" y="284"/>
      <point x="330" y="444"/>
      <point x="392" y="494" type="curve" smooth="yes"/>
      <point x="403" y="503"/>
      <point x="414" y="509"/>
      <point x="431" y="509" type="curve" smooth="yes"/>
    </contour>
    <contour>
      <point x="400" y="772" type="move" name="top"/>
    </contour>
    <contour>
      <point x="183" y="0" type="move" name="bottom"/>
    </contour>
  </outline>
</glyph>
<glyph name="l" format="1">
  <advance width="287"/>
  <unicode hex="006C"/>
  <outline>
    <contour>
      <point x="329" y="795" type="line"/>
      <point x="270" y="769"/>
      <point x="210" y="755"/>
      <point x="127" y="754" type="curve"/>
      <point x="120" y="733" type="line"/>
      <point x="185" y="733"/>
      <point x="196" y="712"/>
      <point x="183" y="667" type="curve" smooth="yes"/>
      <point x="23" y="135" type="line" smooth="yes"/>
      <point x="0" y="57"/>
      <point x="2" y="-14"/>
      <point x="88" y="-14" type="curve" smooth="yes"/>
      <point x="138" y="-14"/>
      <point x="187" y="10"/>
      <point x="214" y="89" type="curve" smooth="yes"/>
      <point x="239" y="162" type="line"/>
      <point x="220" y="162" type="line"/>
      <point x="205" y="120" type="line" smooth="yes"/>
      <point x="180" y="48"/>
      <point x="158" y="28"/>
      <point x="137" y="28" type="curve" smooth="yes"/>
      <point x="115" y="28"/>
      <point x="109" y="48"/>
      <point x="120" y="85" type="curve" smooth="yes"/>
    </contour>
    <contour>
      <point x="262" y="772" type="move" name="top"/>
    </contour>
    <contour>
      <point x="323" y="772" type="move" name="topright"/>
    </contour>
    <contour>
      <point x="247" y="515" type="move" name="right"/>
    </contour>
    <contour>
      <point x="93" y="0" type="move" name="bottom"/>
    </contour>
  </outline>
</glyph>
<glyph name="m" format="1">
  <advance width="830"/>
  <unicode hex="006D"/>
  <outline>
    <contour>
      <point x="236" y="389" type="line"/>
      <point x="253" y="450"/>
      <point x="264" y="529"/>
      <point x="180" y="529" type="curve" smooth="yes"/>
      <point x="134" y="529"/>
      <point x="81" y="508"/>
      <point x="53" y="426" type="curve" smooth="yes"/>
      <point x="27" y="352" type="line"/>
      <point x="46" y="352" type="line" smooth="yes"/>
      <point x="62" y="395" type="line" smooth="yes"/>
      <point x="85" y="462"/>
      <point x="107" y="487"/>
      <point x="133" y="487" type="curve" smooth="yes"/>
      <point x="161" y="487"/>
      <point x="152" y="451"/>
      <point x="146" y="430" type="curve" smooth="yes"/>
      <point x="26" y="0" type="line"/>
      <point x="137" y="0" type="line"/>
    </contour>
    <contour>
      <point x="278" y="0" type="line"/>
      <point x="391" y="0" type="line"/>
      <point x="495" y="378" type="line" smooth="yes"/>
      <point x="515" y="450"/>
      <point x="522" y="529"/>
      <point x="437" y="529" type="curve" smooth="yes"/>
      <point x="333" y="529"/>
      <point x="263" y="441"/>
      <point x="175" y="191" type="curve"/>
      <point x="155" y="71" type="line"/>
      <point x="221" y="307"/>
      <point x="319" y="487"/>
      <point x="388" y="487" type="curve" smooth="yes"/>
      <point x="419" y="487"/>
      <point x="413" y="451"/>
      <point x="401" y="413" type="curve" smooth="yes"/>
    </contour>
    <contour>
      <point x="566" y="135" type="line" smooth="yes"/>
      <point x="549" y="83"/>
      <point x="544" y="43"/>
      <point x="560" y="17" type="curve" smooth="yes"/>
      <point x="572" y="-2"/>
      <point x="594" y="-14"/>
      <point x="630" y="-14" type="curve" smooth="yes"/>
      <point x="674" y="-14"/>
      <point x="728" y="5"/>
      <point x="757" y="89" type="curve" smooth="yes"/>
      <point x="782" y="162" type="line"/>
      <point x="763" y="162" type="line"/>
      <point x="748" y="120" type="line" smooth="yes"/>
      <point x="722" y="46"/>
      <point x="699" y="28"/>
      <point x="677" y="28" type="curve" smooth="yes"/>
      <point x="655" y="28"/>
      <point x="649" y="45"/>
      <point x="662" y="85" type="curve" smooth="yes"/>
      <point x="760" y="378" type="line" smooth="yes"/>
      <point x="784" y="452"/>
      <point x="784" y="529"/>
      <point x="698" y="529" type="curve" smooth="yes"/>
      <point x="591" y="529"/>
      <point x="519" y="435"/>
      <point x="420" y="146" type="curve"/>
      <point x="406" y="51" type="line"/>
      <point x="490" y="321"/>
      <point x="582" y="487"/>
      <point x="650" y="487" type="curve" smooth="yes"/>
      <point x="674" y="487"/>
      <point x="671" y="451"/>
      <point x="659" y="413" type="curve" smooth="yes"/>
    </contour>
    <contour>
      <point x="480" y="515" type="move" name="top"/>
    </contour>
    <contour>
      <point x="351" y="0" type="move" name="bottom"/>
    </contour>
  </outline>
</glyph>
<glyph name="n" format="1">
  <advance width="590"/>
  <unicode hex="006E"/>
  <outline>
    <contour>
      <point x="237" y="389" type="line" smooth="yes"/>
      <point x="253" y="453"/>
      <point x="264" y="529"/>
      <point x="177" y="529" type="curve" smooth="yes"/>
      <point x="127" y="529"/>
      <point x="82" y="507"/>
      <point x="54" y="426" type="curve" smooth="yes"/>
      <point x="28" y="352" type="line"/>
      <point x="47" y="352" type="line"/>
      <point x="62" y="395" type="line" smooth="yes"/>
      <point x="88" y="465"/>
      <point x="107" y="487"/>
      <point x="134" y="487" type="curve" smooth="yes"/>
      <point x="162" y="487"/>
      <point x="155" y="456"/>
      <point x="147" y="430" type="curve" smooth="yes"/>
      <point x="26" y="0" type="line"/>
      <point x="137" y="0" type="line"/>
    </contour>
    <contour>
      <point x="150" y="51" type="line"/>
      <point x="217" y="288"/>
      <point x="331" y="489"/>
      <point x="403" y="489" type="curve" smooth="yes"/>
      <point x="441" y="489"/>
      <point x="429" y="443"/>
      <point x="420" y="413" type="curve" smooth="yes"/>
      <point x="327" y="135" type="line" smooth="yes"/>
      <point x="309" y="81"/>
      <point x="304" y="42"/>
      <point x="321" y="17" type="curve" smooth="yes"/>
      <point x="333" y="-3"/>
      <point x="357" y="-14"/>
      <point x="391" y="-14" type="curve" smooth="yes"/>
      <point x="435" y="-14"/>
      <point x="489" y="5"/>
      <point x="518" y="89" type="curve" smooth="yes"/>
      <point x="543" y="162" type="line"/>
      <point x="524" y="162" type="line"/>
      <point x="509" y="120" type="line" smooth="yes"/>
      <point x="483" y="46"/>
      <point x="460" y="28"/>
      <point x="438" y="28" type="curve" smooth="yes"/>
      <point x="414" y="28"/>
      <point x="411" y="48"/>
      <point x="423" y="85" type="curve" smooth="yes"/>
      <point x="521" y="378" type="line" smooth="yes"/>
      <point x="546" y="454"/>
      <point x="545" y="529"/>
      <point x="450" y="529" type="curve" smooth="yes"/>
      <point x="350" y="529"/>
      <point x="275" y="453"/>
      <point x="177" y="191" type="curve"/>
    </contour>
    <contour>
      <point x="348" y="515" type="move" name="top"/>
    </contour>
    <contour>
      <point x="216" y="0" type="move" name="bottom"/>
    </contour>
  </outline>
</glyph>
<glyph name="o" format="1">
  <advance width="506"/>
  <unicode hex="006F"/>
  <outline>
    <contour>
      <point x="346" y="509"/>
      <point x="362" y="488"/>
      <point x="362" y="430" type="curve" smooth="yes"/>
      <point x="362" y="245"/>
      <point x="265" y="6"/>
      <point x="171" y="6" type="curve" smooth="yes"/>
      <point x="140" y="6"/>
      <point x="124" y="30"/>
      <point x="124" y="85" type="curve" smooth="yes"/>
      <point x="124" y="265"/>
      <point x="222" y="509"/>
      <point x="316" y="509" type="curve" smooth="yes"/>
    </contour>
    <contour>
      <point x="17" y="40"/>
      <point x="73" y="-14"/>
      <point x="165" y="-14" type="curve" smooth="yes"/>
      <point x="366" y="-14"/>
      <point x="470" y="219"/>
      <point x="470" y="369" type="curve" smooth="yes"/>
      <point x="470" y="476"/>
      <point x="414" y="529"/>
      <point x="322" y="529" type="curve" smooth="yes"/>
      <point x="121" y="529"/>
      <point x="17" y="296"/>
      <point x="17" y="146" type="curve" smooth="yes"/>
    </contour>
    <contour>
      <point x="242" y="258" type="move" name="center"/>
    </contour>
    <contour>
      <point x="336" y="515" type="move" name="top"/>
    </contour>
    <contour>
      <point x="551" y="515" type="move" name="topright"/>
    </contour>
    <contour>
      <point x="171" y="0" type="move" name="bottom"/>
    </contour>
  </outline>
</glyph>
<glyph name="p" format="1">
  <advance width="565"/>
  <unicode hex="0070"/>
  <outline>
    <contour>
      <point x="402" y="488"/>
      <point x="418" y="465"/>
      <point x="418" y="403" type="curve" smooth="yes"/>
      <point x="418" y="249"/>
      <point x="324" y="12"/>
      <point x="217" y="12" type="curve" smooth="yes"/>
      <point x="188" y="12"/>
      <point x="168" y="25"/>
      <point x="152" y="63" type="curve"/>
      <point x="145" y="45" type="line"/>
      <point x="158" y="8"/>
      <point x="194" y="-14"/>
      <point x="235" y="-14" type="curve" smooth="yes"/>
      <point x="424" y="-14"/>
      <point x="531" y="230"/>
      <point x="531" y="382" type="curve" smooth="yes"/>
      <point x="531" y="480"/>
      <point x="489" y="529"/>
      <point x="418" y="529" type="curve" smooth="yes"/>
      <point x="333" y="529"/>
      <point x="264" y="440"/>
      <point x="188" y="211" type="curve"/>
      <point x="170" y="106" type="line"/>
      <point x="217" y="302"/>
      <point x="315" y="488"/>
      <point x="377" y="488" type="curve" smooth="yes"/>
    </contour>
    <contour>
      <point x="5" y="-98" type="line" smooth="yes"/>
      <point x="-8" y="-145"/>
      <point x="-25" y="-160"/>
      <point x="-73" y="-160" type="curve"/>
      <point x="-79" y="-181" type="line"/>
      <point x="-55" y="-180"/>
      <point x="-2" y="-177"/>
      <point x="46" y="-177" type="curve" smooth="yes"/>
      <point x="104" y="-177"/>
      <point x="161" y="-180"/>
      <point x="190" y="-181" type="curve"/>
      <point x="196" y="-160" type="line"/>
      <point x="133" y="-160"/>
      <point x="99" y="-144"/>
      <point x="117" y="-82" type="curve" smooth="yes"/>
      <point x="335" y="683" type="line"/>
      <point x="300" y="672"/>
      <point x="261" y="665"/>
      <point x="219" y="663" type="curve"/>
    </contour>
    <contour>
      <point x="28" y="341" type="line"/>
      <point x="108" y="420"/>
      <point x="175" y="499"/>
      <point x="219" y="637" type="curve"/>
      <point x="216" y="653" type="line"/>
      <point x="151" y="493"/>
      <point x="92" y="430"/>
      <point x="17" y="354" type="curve"/>
    </contour>
    <contour>
      <point x="416" y="772" type="move" name="top"/>
    </contour>
    <contour>
      <point x="46" y="-181" type="move" name="bottom"/>
    </contour>
  </outline>
</glyph>
<glyph name="q" format="1">
  <advance width="527"/>
  <unicode hex="0071"/>
  <outline>
    <contour>
      <point x="499" y="466" type="line" smooth="yes"/>
      <point x="504" y="486"/>
      <point x="511" y="506"/>
      <point x="520" y="524" type="curve"/>
      <point x="505" y="531" type="line"/>
      <point x="467" y="506"/>
      <point x="426" y="483"/>
      <point x="389" y="467" type="curve"/>
      <point x="240" y="-95" type="line" smooth="yes"/>
      <point x="227" y="-143"/>
      <point x="203" y="-159"/>
      <point x="141" y="-160" type="curve"/>
      <point x="135" y="-181" type="line"/>
      <point x="159" y="-180"/>
      <point x="214" y="-177"/>
      <point x="262" y="-177" type="curve" smooth="yes"/>
      <point x="319" y="-177"/>
      <point x="377" y="-180"/>
      <point x="405" y="-181" type="curve"/>
      <point x="411" y="-160" type="line"/>
      <point x="362" y="-159"/>
      <point x="336" y="-141"/>
      <point x="350" y="-87" type="curve" smooth="yes"/>
    </contour>
    <contour>
      <point x="142" y="30"/>
      <point x="126" y="53"/>
      <point x="126" y="106" type="curve" smooth="yes"/>
      <point x="126" y="254"/>
      <point x="221" y="504"/>
      <point x="327" y="504" type="curve" smooth="yes"/>
      <point x="356" y="504"/>
      <point x="376" y="490"/>
      <point x="392" y="453" type="curve"/>
      <point x="400" y="471" type="line"/>
      <point x="387" y="508"/>
      <point x="354" y="529"/>
      <point x="315" y="529" type="curve" smooth="yes"/>
      <point x="128" y="529"/>
      <point x="14" y="285"/>
      <point x="14" y="133" type="curve" smooth="yes"/>
      <point x="14" y="35"/>
      <point x="56" y="-14"/>
      <point x="127" y="-14" type="curve" smooth="yes"/>
      <point x="200" y="-14"/>
      <point x="262" y="45"/>
      <point x="328" y="207" type="curve"/>
      <point x="348" y="313" type="line"/>
      <point x="310" y="164"/>
      <point x="223" y="30"/>
      <point x="167" y="30" type="curve" smooth="yes"/>
    </contour>
    <contour>
      <point x="328" y="515" type="move" name="top"/>
    </contour>
    <contour>
      <point x="274" y="-181" type="move" name="bottom"/>
    </contour>
  </outline>
</glyph>
<glyph name="r" format="1">
  <advance width="445"/>
  <unicode hex="0072"/>
  <outline>
    <contour>
      <point x="236" y="389" type="line" smooth="yes"/>
      <point x="251" y="451"/>
      <point x="264" y="529"/>
      <point x="181" y="529" type="curve" smooth="yes"/>
      <point x="133" y="529"/>
      <point x="81" y="508"/>
      <point x="53" y="426" type="curve" smooth="yes"/>
      <point x="27" y="352" type="line"/>
      <point x="46" y="352" type="line"/>
      <point x="62" y="395" type="line" smooth="yes"/>
      <point x="86" y="462"/>
      <point x="107" y="487"/>
      <point x="134" y="487" type="curve" smooth="yes"/>
      <point x="153" y="487"/>
      <point x="158" y="471"/>
      <point x="146" y="430" type="curve" smooth="yes"/>
      <point x="26" y="0" type="line"/>
      <point x="137" y="0" type="line"/>
    </contour>
    <contour>
      <point x="398" y="506"/>
      <point x="402" y="504"/>
      <point x="405" y="502" type="curve"/>
      <point x="370" y="491"/>
      <point x="343" y="461"/>
      <point x="343" y="422" type="curve" smooth="yes"/>
      <point x="343" y="392"/>
      <point x="362" y="376"/>
      <point x="392" y="376" type="curve" smooth="yes"/>
      <point x="437" y="376"/>
      <point x="474" y="414"/>
      <point x="474" y="462" type="curve" smooth="yes"/>
      <point x="474" y="500"/>
      <point x="448" y="529"/>
      <point x="405" y="529" type="curve" smooth="yes"/>
      <point x="311" y="529"/>
      <point x="254" y="441"/>
      <point x="169" y="167" type="curve"/>
      <point x="145" y="36" type="line"/>
      <point x="229" y="363"/>
      <point x="320" y="506"/>
      <point x="393" y="506" type="curve" smooth="yes"/>
    </contour>
    <contour>
      <point x="296" y="515" type="move" name="top"/>
    </contour>
    <contour>
      <point x="79" y="0" type="move" name="bottom"/>
    </contour>
  </outline>
</glyph>
<glyph name="s" format="1">
  <advance width="398"/>
  <unicode hex="0073"/>
  <outline>
    <contour>
      <point x="70" y="31"/>
      <point x="78" y="53"/>
      <point x="78" y="80" type="curve" smooth="yes"/>
      <point x="78" y="117"/>
      <point x="63" y="149"/>
      <point x="29" y="149" type="curve" smooth="yes"/>
      <point x="-5" y="149"/>
      <point x="-18" y="120"/>
      <point x="-18" y="93" type="curve" smooth="yes"/>
      <point x="-18" y="14"/>
      <point x="55" y="-14"/>
      <point x="130" y="-14" type="curve" smooth="yes"/>
      <point x="234" y="-14"/>
      <point x="310" y="51"/>
      <point x="310" y="141" type="curve" smooth="yes"/>
      <point x="310" y="191"/>
      <point x="286" y="234"/>
      <point x="250" y="292" type="curve" smooth="yes"/>
      <point x="214" y="347"/>
      <point x="190" y="374"/>
      <point x="191" y="420" type="curve" smooth="yes"/>
      <point x="191" y="477"/>
      <point x="224" y="510"/>
      <point x="273" y="510" type="curve" smooth="yes"/>
      <point x="291" y="510"/>
      <point x="306" y="507"/>
      <point x="317" y="500" type="curve"/>
      <point x="300" y="481"/>
      <point x="288" y="455"/>
      <point x="288" y="426" type="curve" smooth="yes"/>
      <point x="288" y="395"/>
      <point x="307" y="373"/>
      <point x="334" y="373" type="curve" smooth="yes"/>
      <point x="372" y="373"/>
      <point x="387" y="410"/>
      <point x="387" y="435" type="curve" smooth="yes"/>
      <point x="387" y="511"/>
      <point x="316" y="529"/>
      <point x="251" y="529" type="curve" smooth="yes"/>
      <point x="153" y="529"/>
      <point x="85" y="470"/>
      <point x="85" y="385" type="curve" smooth="yes"/>
      <point x="85" y="325"/>
      <point x="117" y="283"/>
      <point x="148" y="239" type="curve" smooth="yes"/>
      <point x="186" y="185"/>
      <point x="202" y="144"/>
      <point x="202" y="102" type="curve" smooth="yes"/>
      <point x="202" y="40"/>
      <point x="163" y="6"/>
      <point x="109" y="6" type="curve" smooth="yes"/>
      <point x="87" y="6"/>
      <point x="77" y="10"/>
      <point x="66" y="15" type="curve"/>
    </contour>
    <contour>
      <point x="272" y="515" type="move" name="top"/>
    </contour>
    <contour>
      <point x="121" y="0" type="move" name="bottom"/>
    </contour>
  </outline>
</glyph>
<glyph name="t" format="1">
  <advance width="344"/>
  <unicode hex="0074"/>
  <outline>
    <contour>
      <point x="62" y="515" type="line"/>
      <point x="57" y="495" type="line"/>
      <point x="384" y="495" type="line"/>
      <point x="387" y="515" type="line"/>
    </contour>
    <contour>
      <point x="311" y="680" type="line"/>
      <point x="277" y="671"/>
      <point x="239" y="667"/>
      <point x="196" y="666" type="curve"/>
      <point x="43" y="135" type="line" smooth="yes"/>
      <point x="19" y="49"/>
      <point x="42" y="-14"/>
      <point x="129" y="-14" type="curve" smooth="yes"/>
      <point x="194" y="-14"/>
      <point x="244" y="17"/>
      <point x="272" y="101" type="curve" smooth="yes"/>
      <point x="292" y="162" type="line"/>
      <point x="273" y="162" type="line"/>
      <point x="259" y="122" type="line" smooth="yes"/>
      <point x="233" y="50"/>
      <point x="203" y="28"/>
      <point x="174" y="28" type="curve" smooth="yes"/>
      <point x="148" y="28"/>
      <point x="129" y="45"/>
      <point x="140" y="85" type="curve" smooth="yes"/>
    </contour>
    <contour>
      <point x="161" y="348" type="move" name="center"/>
    </contour>
    <contour>
      <point x="272" y="772" type="move" name="top"/>
    </contour>
    <contour>
      <point x="324" y="792" type="move" name="topright"/>
    </contour>
    <contour>
      <point x="100" y="0" type="move" name="bottom"/>
    </contour>
  </outline>
</glyph>
<glyph name="u" format="1">
  <advance width="580"/>
  <unicode hex="0075"/>
  <outline>
    <contour>
      <point x="418" y="485" type="line"/>
      <point x="351" y="231"/>
      <point x="239" y="26"/>
      <point x="167" y="26" type="curve" smooth="yes"/>
      <point x="139" y="26"/>
      <point x="133" y="50"/>
      <point x="150" y="102" type="curve" smooth="yes"/>
      <point x="243" y="381" type="line" smooth="yes"/>
      <point x="270" y="463"/>
      <point x="266" y="529"/>
      <point x="179" y="529" type="curve" smooth="yes"/>
      <point x="135" y="529"/>
      <point x="81" y="510"/>
      <point x="52" y="426" type="curve" smooth="yes"/>
      <point x="27" y="353" type="line"/>
      <point x="46" y="353" type="line"/>
      <point x="61" y="395" type="line" smooth="yes"/>
      <point x="87" y="469"/>
      <point x="110" y="487"/>
      <point x="132" y="487" type="curve" smooth="yes"/>
      <point x="153" y="487"/>
      <point x="160" y="470"/>
      <point x="147" y="430" type="curve" smooth="yes"/>
      <point x="50" y="137" type="line" smooth="yes"/>
      <point x="19" y="47"/>
      <point x="36" y="-14"/>
      <point x="122" y="-14" type="curve" smooth="yes"/>
      <point x="222" y="-14"/>
      <point x="297" y="69"/>
      <point x="395" y="348" type="curve"/>
    </contour>
    <contour>
      <point x="540" y="529" type="line"/>
      <point x="508" y="520"/>
      <point x="467" y="516"/>
      <point x="425" y="515" type="curve"/>
      <point x="326" y="126" type="line" smooth="yes"/>
      <point x="312" y="73"/>
      <point x="308" y="40"/>
      <point x="321" y="16" type="curve" smooth="yes"/>
      <point x="331" y="-3"/>
      <point x="354" y="-14"/>
      <point x="382" y="-14" type="curve" smooth="yes"/>
      <point x="428" y="-14"/>
      <point x="480" y="7"/>
      <point x="509" y="89" type="curve" smooth="yes"/>
      <point x="535" y="163" type="line"/>
      <point x="516" y="163" type="line"/>
      <point x="500" y="120" type="line" smooth="yes"/>
      <point x="476" y="53"/>
      <point x="455" y="28"/>
      <point x="428" y="28" type="curve" smooth="yes"/>
      <point x="403" y="28"/>
      <point x="406" y="50"/>
      <point x="415" y="85" type="curve" smooth="yes"/>
    </contour>
    <contour>
      <point x="434" y="0" type="move" name="ogonek"/>
    </contour>
    <contour>
      <point x="243" y="0" type="move" name="bottom"/>
    </contour>
    <contour>
      <point x="326" y="515" type="move" name="top"/>
    </contour>
  </outline>
</glyph>
<glyph name="v" format="1">
  <advance width="529"/>
  <unicode hex="0076"/>
  <outline>
    <contour>
      <point x="458" y="232"/>
      <point x="365" y="24"/>
      <point x="222" y="24" type="curve" smooth="yes"/>
      <point x="190" y="24"/>
      <point x="174" y="53"/>
      <point x="178" y="122" type="curve" smooth="yes"/>
      <point x="187" y="251"/>
      <point x="249" y="395"/>
      <point x="350" y="529" type="curve"/>
      <point x="329" y="539" type="line"/>
      <point x="319" y="520" type="line"/>
      <point x="294" y="501"/>
      <point x="267" y="493"/>
      <point x="240" y="493" type="curve" smooth="yes"/>
      <point x="196" y="493"/>
      <point x="182" y="530"/>
      <point x="144" y="530" type="curve" smooth="yes"/>
      <point x="109" y="530"/>
      <point x="72" y="507"/>
      <point x="50" y="426" type="curve" smooth="yes"/>
      <point x="28" y="353" type="line"/>
      <point x="47" y="353" type="line"/>
      <point x="57" y="386" type="line" smooth="yes"/>
      <point x="71" y="427"/>
      <point x="82" y="441"/>
      <point x="101" y="441" type="curve" smooth="yes"/>
      <point x="122" y="441"/>
      <point x="138" y="419"/>
      <point x="162" y="419" type="curve" smooth="yes"/>
      <point x="203" y="419"/>
      <point x="247" y="477"/>
      <point x="302" y="490" type="curve"/>
      <point x="161" y="365"/>
      <point x="60" y="227"/>
      <point x="54" y="110" type="curve" smooth="yes"/>
      <point x="51" y="49"/>
      <point x="81" y="-14"/>
      <point x="180" y="-14" type="curve" smooth="yes"/>
      <point x="377" y="-14"/>
      <point x="483" y="207"/>
      <point x="500" y="401" type="curve" smooth="yes"/>
      <point x="506" y="477"/>
      <point x="488" y="530"/>
      <point x="440" y="530" type="curve" smooth="yes"/>
      <point x="413" y="530"/>
      <point x="388" y="513"/>
      <point x="387" y="477" type="curve" smooth="yes"/>
      <point x="384" y="420"/>
      <point x="426" y="379"/>
      <point x="471" y="357" type="curve"/>
    </contour>
    <contour>
      <point x="329" y="515" type="move" name="top"/>
    </contour>
    <contour>
      <point x="201" y="0" type="move" name="bottom"/>
    </contour>
  </outline>
</glyph>
<glyph name="w" format="1">
  <advance width="683"/>
  <unicode hex="0077"/>
  <outline>
    <contour>
      <point x="292" y="80" type="line"/>
      <point x="258" y="42"/>
      <point x="218" y="22"/>
      <point x="184" y="22" type="curve" smooth="yes"/>
      <point x="149" y="22"/>
      <point x="131" y="45"/>
      <point x="131" y="105" type="curve" smooth="yes"/>
      <point x="131" y="252"/>
      <point x="252" y="406"/>
      <point x="386" y="529" type="curve"/>
      <point x="365" y="539" type="line"/>
      <point x="352" y="520" type="line"/>
      <point x="326" y="501"/>
      <point x="301" y="493"/>
      <point x="274" y="493" type="curve" smooth="yes"/>
      <point x="227" y="493"/>
      <point x="211" y="528"/>
      <point x="172" y="528" type="curve" smooth="yes"/>
      <point x="137" y="528"/>
      <point x="104" y="506"/>
      <point x="78" y="426" type="curve" smooth="yes"/>
      <point x="55" y="353" type="line"/>
      <point x="74" y="353" type="line"/>
      <point x="85" y="386" type="line" smooth="yes"/>
      <point x="99" y="427"/>
      <point x="110" y="441"/>
      <point x="130" y="441" type="curve" smooth="yes"/>
      <point x="152" y="441"/>
      <point x="166" y="419"/>
      <point x="191" y="419" type="curve" smooth="yes"/>
      <point x="233" y="419"/>
      <point x="280" y="478"/>
      <point x="339" y="490" type="curve"/>
      <point x="328" y="489" type="line"/>
      <point x="171" y="373"/>
      <point x="8" y="232"/>
      <point x="8" y="104" type="curve" smooth="yes"/>
      <point x="8" y="41"/>
      <point x="45" y="-14"/>
      <point x="137" y="-14" type="curve" smooth="yes"/>
      <point x="201" y="-14"/>
      <point x="255" y="18"/>
      <point x="298" y="63" type="curve"/>
    </contour>
    <contour>
      <point x="361" y="29"/>
      <point x="336" y="97"/>
      <point x="336" y="167" type="curve" smooth="yes"/>
      <point x="336" y="252"/>
      <point x="380" y="337"/>
      <point x="411" y="337" type="curve" smooth="yes"/>
      <point x="425" y="337"/>
      <point x="429" y="317"/>
      <point x="429" y="290" type="curve" smooth="yes"/>
      <point x="429" y="218"/>
      <point x="389" y="141"/>
      <point x="329" y="90" type="curve"/>
      <point x="335" y="73" type="line"/>
      <point x="414" y="135"/>
      <point x="452" y="215"/>
      <point x="452" y="291" type="curve" smooth="yes"/>
      <point x="452" y="319"/>
      <point x="447" y="359"/>
      <point x="415" y="359" type="curve" smooth="yes"/>
      <point x="357" y="359"/>
      <point x="263" y="243"/>
      <point x="263" y="123" type="curve" smooth="yes"/>
      <point x="263" y="17"/>
      <point x="323" y="-14"/>
      <point x="388" y="-14" type="curve" smooth="yes"/>
      <point x="581" y="-14"/>
      <point x="647" y="233"/>
      <point x="623" y="387" type="curve" smooth="yes"/>
      <point x="614" y="455"/>
      <point x="592" y="529"/>
      <point x="540" y="529" type="curve" smooth="yes"/>
      <point x="513" y="529"/>
      <point x="491" y="510"/>
      <point x="491" y="477" type="curve" smooth="yes"/>
      <point x="491" y="413"/>
      <point x="555" y="382"/>
      <point x="602" y="368" type="curve"/>
      <point x="622" y="256"/>
      <point x="571" y="29"/>
      <point x="428" y="29" type="curve" smooth="yes"/>
    </contour>
    <contour>
      <point x="391" y="515" type="move" name="top"/>
    </contour>
    <contour>
      <point x="277" y="0" type="move" name="bottom"/>
    </contour>
  </outline>
</glyph>
<glyph name="x" format="1">
  <advance width="543"/>
  <unicode hex="0078"/>
  <outline>
    <contour>
      <point x="303" y="431" type="line" smooth="yes"/>
      <point x="294" y="507"/>
      <point x="262" y="529"/>
      <point x="208" y="529" type="curve" smooth="yes"/>
      <point x="161" y="529"/>
      <point x="112" y="509"/>
      <point x="83" y="427" type="curve" smooth="yes"/>
      <point x="58" y="354" type="line"/>
      <point x="77" y="354" type="line"/>
      <point x="90" y="391" type="line" smooth="yes"/>
      <point x="116" y="465"/>
      <point x="135" y="479"/>
      <point x="154" y="479" type="curve" smooth="yes"/>
      <point x="171" y="479"/>
      <point x="184" y="469"/>
      <point x="189" y="435" type="curve" smooth="yes"/>
      <point x="229" y="81" type="line" smooth="yes"/>
      <point x="237" y="8"/>
      <point x="276" y="-14"/>
      <point x="324" y="-14" type="curve" smooth="yes"/>
      <point x="369" y="-14"/>
      <point x="418" y="6"/>
      <point x="447" y="88" type="curve" smooth="yes"/>
      <point x="472" y="161" type="line"/>
      <point x="453" y="161" type="line"/>
      <point x="440" y="124" type="line" smooth="yes"/>
      <point x="414" y="50"/>
      <point x="395" y="35"/>
      <point x="376" y="35" type="curve" smooth="yes"/>
      <point x="359" y="35"/>
      <point x="347" y="46"/>
      <point x="342" y="81" type="curve" smooth="yes"/>
    </contour>
    <contour>
      <point x="424" y="437"/>
      <point x="451" y="421"/>
      <point x="484" y="421" type="curve" smooth="yes"/>
      <point x="522" y="421"/>
      <point x="547" y="447"/>
      <point x="547" y="480" type="curve" smooth="yes"/>
      <point x="547" y="511"/>
      <point x="523" y="529"/>
      <point x="490" y="529" type="curve" smooth="yes"/>
      <point x="456" y="529"/>
      <point x="423" y="514"/>
      <point x="386" y="468" type="curve" smooth="yes"/>
      <point x="324" y="395"/>
      <point x="294" y="306"/>
      <point x="280" y="261" type="curve"/>
      <point x="280" y="261"/>
      <point x="300" y="260"/>
      <point x="300" y="260" type="curve"/>
      <point x="319" y="320"/>
      <point x="353" y="407"/>
      <point x="410" y="464" type="curve"/>
    </contour>
    <contour>
      <point x="85" y="74"/>
      <point x="62" y="95"/>
      <point x="25" y="95" type="curve" smooth="yes"/>
      <point x="-10" y="95"/>
      <point x="-37" y="69"/>
      <point x="-37" y="34" type="curve" smooth="yes"/>
      <point x="-37" y="5"/>
      <point x="-17" y="-14"/>
      <point x="20" y="-14" type="curve" smooth="yes"/>
      <point x="53" y="-14"/>
      <point x="86" y="4"/>
      <point x="126" y="48" type="curve" smooth="yes"/>
      <point x="189" y="118"/>
      <point x="222" y="197"/>
      <point x="241" y="252" type="curve"/>
      <point x="241" y="252"/>
      <point x="223" y="255"/>
      <point x="223" y="255" type="curve"/>
      <point x="200" y="192"/>
      <point x="156" y="108"/>
      <point x="99" y="51" type="curve"/>
    </contour>
    <contour>
      <point x="340" y="515" type="move" name="top"/>
    </contour>
    <contour>
      <point x="171" y="0" type="move" name="bottom"/>
    </contour>
  </outline>
</glyph>
<glyph name="y" format="1">
  <advance width="482"/>
  <unicode hex="0079"/>
  <outline>
    <contour>
      <point x="242" y="430" type="line" smooth="yes"/>
      <point x="231" y="507"/>
      <point x="204" y="529"/>
      <point x="158" y="529" type="curve" smooth="yes"/>
      <point x="111" y="529"/>
      <point x="67" y="508"/>
      <point x="39" y="427" type="curve" smooth="yes"/>
      <point x="14" y="354" type="line"/>
      <point x="33" y="354" type="line"/>
      <point x="48" y="396" type="line" smooth="yes"/>
      <point x="73" y="466"/>
      <point x="87" y="480"/>
      <point x="102" y="480" type="curve" smooth="yes"/>
      <point x="118" y="480"/>
      <point x="124" y="467"/>
      <point x="131" y="429" type="curve" smooth="yes"/>
      <point x="209" y="-45" type="line"/>
      <point x="294" y="49" type="line"/>
    </contour>
    <contour>
      <point x="39" y="-110"/>
      <point x="8" y="-88"/>
      <point x="-28" y="-88" type="curve" smooth="yes"/>
      <point x="-62" y="-88"/>
      <point x="-89" y="-109"/>
      <point x="-89" y="-140" type="curve" smooth="yes"/>
      <point x="-89" y="-171"/>
      <point x="-64" y="-188"/>
      <point x="-30" y="-188" type="curve" smooth="yes"/>
      <point x="-12" y="-188"/>
      <point x="15" y="-183"/>
      <point x="50" y="-168" type="curve" smooth="yes"/>
      <point x="144" y="-128"/>
      <point x="219" y="-53"/>
      <point x="266" y="3" type="curve" smooth="yes"/>
      <point x="364" y="124"/>
      <point x="463" y="313"/>
      <point x="463" y="444" type="curve" smooth="yes"/>
      <point x="463" y="499"/>
      <point x="445" y="529"/>
      <point x="404" y="529" type="curve" smooth="yes"/>
      <point x="370" y="529"/>
      <point x="347" y="508"/>
      <point x="346" y="473" type="curve" smooth="yes"/>
      <point x="344" y="423"/>
      <point x="390" y="384"/>
      <point x="429" y="362" type="curve"/>
      <point x="404" y="248"/>
      <point x="338" y="126"/>
      <point x="261" y="29" type="curve" smooth="yes"/>
      <point x="191" y="-60"/>
      <point x="125" y="-110"/>
      <point x="66" y="-140" type="curve"/>
    </contour>
    <contour>
      <point x="292" y="515" type="move" name="top"/>
    </contour>
    <contour>
      <point x="332" y="0" type="move" name="bottom"/>
    </contour>
  </outline>
</glyph>
<glyph name="z" format="1">
  <advance width="453"/>
  <unicode hex="007A"/>
  <outline>
    <contour>
      <point x="492" y="515" type="line"/>
      <point x="464" y="515" type="line"/>
      <point x="436" y="484"/>
      <point x="410" y="475"/>
      <point x="373" y="475" type="curve" smooth="yes"/>
      <point x="294" y="475"/>
      <point x="267" y="522"/>
      <point x="192" y="522" type="curve" smooth="yes"/>
      <point x="101" y="522"/>
      <point x="64" y="465"/>
      <point x="64" y="408" type="curve" smooth="yes"/>
      <point x="64" y="355"/>
      <point x="101" y="323"/>
      <point x="164" y="308" type="curve"/>
      <point x="170" y="323" type="line"/>
      <point x="128" y="334"/>
      <point x="101" y="356"/>
      <point x="101" y="389" type="curve" smooth="yes"/>
      <point x="101" y="417"/>
      <point x="118" y="432"/>
      <point x="148" y="432" type="curve" smooth="yes"/>
      <point x="193" y="432"/>
      <point x="222" y="400"/>
      <point x="270" y="400" type="curve" smooth="yes"/>
      <point x="313" y="400"/>
      <point x="358" y="437"/>
      <point x="422" y="471" type="curve"/>
      <point x="-45" y="0" type="line"/>
      <point x="-17" y="0" type="line"/>
      <point x="11" y="31"/>
      <point x="38" y="40"/>
      <point x="73" y="40" type="curve" smooth="yes"/>
      <point x="154" y="40"/>
      <point x="182" y="-8"/>
      <point x="258" y="-8" type="curve" smooth="yes"/>
      <point x="344" y="-8"/>
      <point x="378" y="45"/>
      <point x="378" y="103" type="curve" smooth="yes"/>
      <point x="378" y="156"/>
      <point x="343" y="189"/>
      <point x="278" y="204" type="curve"/>
      <point x="272" y="189" type="line"/>
      <point x="311" y="181"/>
      <point x="341" y="158"/>
      <point x="341" y="124" type="curve" smooth="yes"/>
      <point x="341" y="96"/>
      <point x="324" y="80"/>
      <point x="294" y="80" type="curve" smooth="yes"/>
      <point x="248" y="80"/>
      <point x="220" y="112"/>
      <point x="172" y="112" type="curve" smooth="yes"/>
      <point x="130" y="112"/>
      <point x="88" y="80"/>
      <point x="29" y="46" type="curve"/>
    </contour>
    <contour>
      <point x="290" y="515" type="move" name="top"/>
    </contour>
    <contour>
      <point x="134" y="0" type="move" name="bottom"/>
    </contour>
  </outline>
</glyph>
<glyph name="bar" format="1">
  <advance width="341"/>
  <unicode hex="007C"/>
  <outline>
    <contour>
      <point x="150" y="858" type="line"/>
      <point x="150" y="-195" type="line"/>
      <point x="211" y="-195" type="line"/>
      <point x="211" y="858" type="line"/>
    </contour>
  </outline>
</glyph>
<glyph name="braceright" format="1">
  <advance width="330"/>
  <unicode hex="007D"/>
  <outline>
    <contour>
      <point x="143" y="763" type="line"/>
      <point x="180" y="762"/>
      <point x="200" y="754"/>
      <point x="200" y="713" type="curve" smooth="yes"/>
      <point x="201" y="682"/>
      <point x="191" y="632"/>
      <point x="171" y="551" type="curve" smooth="yes"/>
      <point x="142" y="434"/>
      <point x="138" y="334"/>
      <point x="274" y="299" type="curve"/>
      <point x="171" y="276"/>
      <point x="90" y="227"/>
      <point x="45" y="47" type="curve" smooth="yes"/>
      <point x="-4" y="-150"/>
      <point x="-22" y="-168"/>
      <point x="-87" y="-169" type="curve"/>
      <point x="-92" y="-188" type="line"/>
      <point x="47" y="-188"/>
      <point x="112" y="-140"/>
      <point x="159" y="47" type="curve" smooth="yes"/>
      <point x="205" y="234"/>
      <point x="233" y="285"/>
      <point x="296" y="290" type="curve" smooth="yes"/>
      <point x="301" y="290" type="line"/>
      <point x="304" y="308" type="line"/>
      <point x="299" y="308" type="line" smooth="yes"/>
      <point x="268" y="310"/>
      <point x="253" y="326"/>
      <point x="252" y="367" type="curve" smooth="yes"/>
      <point x="252" y="404"/>
      <point x="263" y="462"/>
      <point x="285" y="551" type="curve" smooth="yes"/>
      <point x="319" y="689"/>
      <point x="328" y="783"/>
      <point x="148" y="782" type="curve"/>
    </contour>
  </outline>
</glyph>
<glyph name="asciitilde" format="1">
  <advance width="647"/>
  <unicode hex="007E"/>
  <outline>
    <contour>
      <point x="492" y="226"/>
      <point x="559" y="276"/>
      <point x="592" y="355" type="curve"/>
      <point x="578" y="360" type="line"/>
      <point x="551" y="317"/>
      <point x="515" y="302"/>
      <point x="477" y="302" type="curve" smooth="yes"/>
      <point x="384" y="302"/>
      <point x="342" y="380"/>
      <point x="240" y="380" type="curve" smooth="yes"/>
      <point x="160" y="380"/>
      <point x="93" y="330"/>
      <point x="59" y="251" type="curve"/>
      <point x="73" y="246" type="line"/>
      <point x="100" y="289"/>
      <point x="137" y="304"/>
      <point x="175" y="304" type="curve" smooth="yes"/>
      <point x="268" y="304"/>
      <point x="310" y="226"/>
      <point x="411" y="226" type="curve" smooth="yes"/>
    </contour>
  </outline>
</glyph>
<glyph name="exclamdown" format="1">
  <advance width="270"/>
  <unicode hex="00A1"/>
  <outline>
    <contour>
      <point x="132" y="319" type="line"/>
      <point x="83" y="138"/>
      <point x="-17" y="-29"/>
      <point x="-36" y="-123" type="curve" smooth="yes"/>
      <point x="-44" y="-161"/>
      <point x="-25" y="-188"/>
      <point x="17" y="-188" type="curve" smooth="yes"/>
      <point x="56" y="-188"/>
      <point x="82" y="-165"/>
      <point x="86" y="-123" type="curve" smooth="yes"/>
      <point x="105" y="-17"/>
      <point x="108" y="151"/>
      <point x="150" y="316" type="curve"/>
    </contour>
    <component base="period" xOffset="110" yOffset="404"/>
  </outline>
</glyph>
<glyph name="cent" format="1">
  <advance width="453"/>
  <unicode hex="00A2"/>
  <outline>
    <contour>
      <point x="343" y="708" type="line"/>
      <point x="104" y="-181" type="line"/>
      <point x="126" y="-181" type="line"/>
      <point x="365" y="708" type="line"/>
    </contour>
    <component base="c" xOffset="-1"/>
  </outline>
</glyph>
<glyph name="sterling" format="1">
  <advance width="645"/>
  <unicode hex="00A3"/>
  <outline>
    <contour>
      <point x="63" y="317" type="line"/>
      <point x="57" y="297" type="line"/>
      <point x="411" y="297" type="line"/>
      <point x="417" y="317" type="line"/>
    </contour>
    <contour>
      <point x="90" y="417" type="line"/>
      <point x="84" y="397" type="line"/>
      <point x="438" y="397" type="line"/>
      <point x="444" y="417" type="line"/>
    </contour>
    <contour>
      <point x="533" y="721"/>
      <point x="556" y="712"/>
      <point x="557" y="700" type="curve"/>
      <point x="521" y="691"/>
      <point x="496" y="661"/>
      <point x="496" y="625" type="curve" smooth="yes"/>
      <point x="496" y="595"/>
      <point x="517" y="578"/>
      <point x="546" y="578" type="curve" smooth="yes"/>
      <point x="589" y="578"/>
      <point x="620" y="613"/>
      <point x="620" y="658" type="curve" smooth="yes"/>
      <point x="620" y="699"/>
      <point x="583" y="736"/>
      <point x="510" y="736" type="curve" smooth="yes"/>
      <point x="331" y="736"/>
      <point x="236" y="604"/>
      <point x="192" y="439" type="curve" smooth="yes"/>
      <point x="144" y="258" type="line" smooth="yes"/>
      <point x="118" y="162"/>
      <point x="96" y="114"/>
      <point x="73" y="69" type="curve"/>
      <point x="8" y="52"/>
      <point x="-26" y="16"/>
      <point x="-26" y="-4" type="curve" smooth="yes"/>
      <point x="-26" y="-12"/>
      <point x="-22" y="-14"/>
      <point x="-13" y="-14" type="curve" smooth="yes"/>
      <point x="16" y="-14"/>
      <point x="53" y="11"/>
      <point x="84" y="58" type="curve"/>
      <point x="115" y="71"/>
      <point x="142" y="75"/>
      <point x="169" y="75" type="curve" smooth="yes"/>
      <point x="272" y="75"/>
      <point x="313" y="-14"/>
      <point x="415" y="-14" type="curve" smooth="yes"/>
      <point x="497" y="-14"/>
      <point x="562" y="52"/>
      <point x="562" y="120" type="curve" smooth="yes"/>
      <point x="562" y="184"/>
      <point x="507" y="217"/>
      <point x="449" y="226" type="curve"/>
      <point x="444" y="209" type="line"/>
      <point x="488" y="200"/>
      <point x="511" y="179"/>
      <point x="511" y="146" type="curve" smooth="yes"/>
      <point x="511" y="108"/>
      <point x="477" y="85"/>
      <point x="440" y="85" type="curve" smooth="yes"/>
      <point x="371" y="85"/>
      <point x="323" y="128"/>
      <point x="245" y="128" type="curve" smooth="yes"/>
      <point x="190" y="128"/>
      <point x="139" y="105"/>
      <point x="92" y="74" type="curve"/>
      <point x="172" y="171"/>
      <point x="255" y="214"/>
      <point x="289" y="343" type="curve" smooth="yes"/>
      <point x="331" y="502" type="line" smooth="yes"/>
      <point x="363" y="620"/>
      <point x="399" y="721"/>
      <point x="508" y="721" type="curve" smooth="yes"/>
    </contour>
  </outline>
</glyph>
<glyph name="currency" format="1">
  <advance width="608"/>
  <unicode hex="00A4"/>
  <outline>
    <contour>
      <point x="173" y="379"/>
      <point x="233" y="440"/>
      <point x="307" y="440" type="curve" smooth="yes"/>
      <point x="380" y="440"/>
      <point x="440" y="378"/>
      <point x="440" y="300" type="curve" smooth="yes"/>
      <point x="440" y="221"/>
      <point x="380" y="161"/>
      <point x="307" y="161" type="curve" smooth="yes"/>
      <point x="234" y="161"/>
      <point x="173" y="221"/>
      <point x="173" y="300" type="curve" smooth="yes"/>
    </contour>
    <contour>
      <point x="144" y="84" type="line"/>
      <point x="194" y="134" type="line"/>
      <point x="225" y="111"/>
      <point x="264" y="98"/>
      <point x="306" y="98" type="curve" smooth="yes"/>
      <point x="348" y="98"/>
      <point x="387" y="112"/>
      <point x="419" y="134" type="curve"/>
      <point x="469" y="84" type="line"/>
      <point x="523" y="138" type="line"/>
      <point x="472" y="187" type="line"/>
      <point x="495" y="219"/>
      <point x="508" y="257"/>
      <point x="508" y="300" type="curve" smooth="yes"/>
      <point x="508" y="342"/>
      <point x="495" y="380"/>
      <point x="472" y="412" type="curve"/>
      <point x="523" y="463" type="line"/>
      <point x="470" y="517" type="line"/>
      <point x="419" y="466" type="line"/>
      <point x="387" y="489"/>
      <point x="348" y="503"/>
      <point x="306" y="503" type="curve" smooth="yes"/>
      <point x="264" y="503"/>
      <point x="225" y="489"/>
      <point x="194" y="466" type="curve"/>
      <point x="144" y="517" type="line"/>
      <point x="90" y="463" type="line"/>
      <point x="141" y="413" type="line"/>
      <point x="118" y="381"/>
      <point x="104" y="342"/>
      <point x="104" y="300" type="curve" smooth="yes"/>
      <point x="104" y="257"/>
      <point x="118" y="219"/>
      <point x="140" y="188" type="curve"/>
      <point x="90" y="138" type="line"/>
    </contour>
  </outline>
</glyph>
<glyph name="yen" format="1">
  <advance width="736"/>
  <unicode hex="00A5"/>
  <outline>
    <contour>
      <point x="143" y="217" type="line"/>
      <point x="138" y="197" type="line"/>
      <point x="537" y="197" type="line"/>
      <point x="542" y="217" type="line"/>
    </contour>
    <contour>
      <point x="165" y="297" type="line"/>
      <point x="160" y="277" type="line"/>
      <point x="559" y="277" type="line"/>
      <point x="564" y="297" type="line"/>
    </contour>
    <component base="Y" xOffset="12"/>
  </outline>
</glyph>
<glyph name="section" format="1">
  <advance width="538"/>
  <unicode hex="00A7"/>
  <outline>
    <contour>
      <point x="451" y="721"/>
      <point x="421" y="693"/>
      <point x="421" y="658" type="curve" smooth="yes"/>
      <point x="421" y="629"/>
      <point x="440" y="610"/>
      <point x="472" y="610" type="curve" smooth="yes"/>
      <point x="518" y="610"/>
      <point x="552" y="650"/>
      <point x="552" y="692" type="curve" smooth="yes"/>
      <point x="552" y="761"/>
      <point x="460" y="782"/>
      <point x="403" y="782" type="curve" smooth="yes"/>
      <point x="283" y="782"/>
      <point x="159" y="702"/>
      <point x="159" y="581" type="curve" smooth="yes"/>
      <point x="159" y="508"/>
      <point x="215" y="460"/>
      <point x="296" y="395" type="curve" smooth="yes"/>
      <point x="367" y="337"/>
      <point x="411" y="297"/>
      <point x="407" y="242" type="curve" smooth="yes"/>
      <point x="404" y="181"/>
      <point x="352" y="144"/>
      <point x="305" y="118" type="curve"/>
      <point x="312" y="105" type="line"/>
      <point x="406" y="147"/>
      <point x="498" y="214"/>
      <point x="498" y="316" type="curve" smooth="yes"/>
      <point x="498" y="379"/>
      <point x="453" y="420"/>
      <point x="385" y="478" type="curve" smooth="yes"/>
      <point x="324" y="529"/>
      <point x="266" y="571"/>
      <point x="266" y="633" type="curve" smooth="yes"/>
      <point x="266" y="727"/>
      <point x="338" y="763"/>
      <point x="404" y="763" type="curve" smooth="yes"/>
      <point x="433" y="763"/>
      <point x="477" y="756"/>
      <point x="485" y="733" type="curve"/>
    </contour>
    <contour>
      <point x="105" y="-169"/>
      <point x="61" y="-161"/>
      <point x="53" y="-139" type="curve"/>
      <point x="88" y="-127"/>
      <point x="117" y="-99"/>
      <point x="117" y="-61" type="curve" smooth="yes"/>
      <point x="117" y="-34"/>
      <point x="98" y="-16"/>
      <point x="66" y="-16" type="curve" smooth="yes"/>
      <point x="21" y="-16"/>
      <point x="-13" y="-55"/>
      <point x="-13" y="-96" type="curve" smooth="yes"/>
      <point x="-13" y="-168"/>
      <point x="77" y="-188"/>
      <point x="135" y="-188" type="curve" smooth="yes"/>
      <point x="255" y="-188"/>
      <point x="379" y="-108"/>
      <point x="379" y="13" type="curve" smooth="yes"/>
      <point x="379" y="86"/>
      <point x="323" y="134"/>
      <point x="243" y="199" type="curve" smooth="yes"/>
      <point x="176" y="254"/>
      <point x="130" y="296"/>
      <point x="130" y="346" type="curve" smooth="yes"/>
      <point x="130" y="408"/>
      <point x="187" y="450"/>
      <point x="234" y="476" type="curve"/>
      <point x="227" y="489" type="line"/>
      <point x="132" y="447"/>
      <point x="41" y="380"/>
      <point x="41" y="278" type="curve" smooth="yes"/>
      <point x="41" y="215"/>
      <point x="85" y="174"/>
      <point x="154" y="116" type="curve" smooth="yes"/>
      <point x="214" y="65"/>
      <point x="272" y="24"/>
      <point x="272" y="-38" type="curve" smooth="yes"/>
      <point x="272" y="-133"/>
      <point x="202" y="-169"/>
      <point x="134" y="-169" type="curve" smooth="yes"/>
    </contour>
  </outline>
</glyph>
<glyph name="copyright" format="1">
  <advance width="918"/>
  <unicode hex="00A9"/>
  <outline>
    <contour>
      <point x="85" y="164"/>
      <point x="263" y="-14"/>
      <point x="483" y="-14" type="curve" smooth="yes"/>
      <point x="703" y="-14"/>
      <point x="881" y="164"/>
      <point x="881" y="384" type="curve" smooth="yes"/>
      <point x="881" y="604"/>
      <point x="703" y="782"/>
      <point x="483" y="782" type="curve" smooth="yes"/>
      <point x="263" y="782"/>
      <point x="85" y="604"/>
      <point x="85" y="384" type="curve" smooth="yes"/>
    </contour>
    <contour>
      <point x="125" y="586"/>
      <point x="285" y="750"/>
      <point x="483" y="750" type="curve" smooth="yes"/>
      <point x="681" y="750"/>
      <point x="841" y="586"/>
      <point x="841" y="384" type="curve" smooth="yes"/>
      <point x="841" y="182"/>
      <point x="681" y="18"/>
      <point x="483" y="18" type="curve" smooth="yes"/>
      <point x="285" y="18"/>
      <point x="125" y="182"/>
      <point x="125" y="384" type="curve" smooth="yes"/>
    </contour>
    <contour>
      <point x="450" y="165"/>
      <point x="383" y="222"/>
      <point x="383" y="392" type="curve" smooth="yes"/>
      <point x="383" y="584"/>
      <point x="448" y="636"/>
      <point x="515" y="636" type="curve" smooth="yes"/>
      <point x="549" y="636"/>
      <point x="583" y="621"/>
      <point x="596" y="602" type="curve"/>
      <point x="566" y="595"/>
      <point x="543" y="571"/>
      <point x="543" y="538" type="curve" smooth="yes"/>
      <point x="543" y="498"/>
      <point x="570" y="474"/>
      <point x="608" y="474" type="curve" smooth="yes"/>
      <point x="645" y="474"/>
      <point x="672" y="500"/>
      <point x="672" y="541" type="curve" smooth="yes"/>
      <point x="672" y="616"/>
      <point x="587" y="657"/>
      <point x="502" y="657" type="curve" smooth="yes"/>
      <point x="362" y="657"/>
      <point x="262" y="551"/>
      <point x="262" y="380" type="curve" smooth="yes"/>
      <point x="262" y="205"/>
      <point x="362" y="112"/>
      <point x="489" y="112" type="curve" smooth="yes"/>
      <point x="599" y="112"/>
      <point x="658" y="190"/>
      <point x="679" y="260" type="curve"/>
      <point x="661" y="266" type="line"/>
      <point x="623" y="187"/>
      <point x="568" y="165"/>
      <point x="522" y="165" type="curve" smooth="yes"/>
    </contour>
  </outline>
</glyph>
<glyph name="ordfeminine" format="1">
  <advance width="489"/>
  <unicode hex="00AA"/>
  <outline>
    <contour>
      <point x="493" y="722" type="line"/>
      <point x="465" y="716"/>
      <point x="432" y="713"/>
      <point x="396" y="713" type="curve"/>
      <point x="326" y="466" type="line" smooth="yes"/>
      <point x="303" y="386"/>
      <point x="324" y="360"/>
      <point x="373" y="360" type="curve" smooth="yes"/>
      <point x="421" y="360"/>
      <point x="454" y="379"/>
      <point x="475" y="435" type="curve" smooth="yes"/>
      <point x="491" y="478" type="line"/>
      <point x="472" y="478" type="line"/>
      <point x="463" y="453" type="line" smooth="yes"/>
      <point x="448" y="411"/>
      <point x="433" y="398"/>
      <point x="414" y="398" type="curve" smooth="yes"/>
      <point x="395" y="398"/>
      <point x="393" y="412"/>
      <point x="402" y="439" type="curve" smooth="yes"/>
    </contour>
    <contour>
      <point x="206" y="395"/>
      <point x="198" y="412"/>
      <point x="198" y="443" type="curve" smooth="yes"/>
      <point x="198" y="571"/>
      <point x="296" y="698"/>
      <point x="356" y="698" type="curve" smooth="yes"/>
      <point x="371" y="698"/>
      <point x="382" y="685"/>
      <point x="381" y="651" type="curve"/>
      <point x="388" y="667" type="line"/>
      <point x="394" y="711"/>
      <point x="370" y="722"/>
      <point x="349" y="722" type="curve" smooth="yes"/>
      <point x="233" y="722"/>
      <point x="98" y="566"/>
      <point x="98" y="446" type="curve" smooth="yes"/>
      <point x="98" y="393"/>
      <point x="129" y="360"/>
      <point x="184" y="360" type="curve" smooth="yes"/>
      <point x="247" y="360"/>
      <point x="306" y="405"/>
      <point x="358" y="548" type="curve"/>
      <point x="372" y="627" type="line"/>
      <point x="345" y="511"/>
      <point x="267" y="395"/>
      <point x="222" y="395" type="curve" smooth="yes"/>
    </contour>
  </outline>
</glyph>
<glyph name="guillemotleft" format="1">
  <advance width="548"/>
  <unicode hex="00AB"/>
  <outline>
    <contour>
      <point x="322" y="529" type="line"/>
      <point x="231" y="420"/>
      <point x="136" y="327"/>
      <point x="23" y="251" type="curve"/>
      <point x="22" y="245" type="line"/>
      <point x="109" y="176"/>
      <point x="175" y="86"/>
      <point x="231" y="-14" type="curve"/>
      <point x="249" y="-14" type="line"/>
      <point x="236" y="66"/>
      <point x="181" y="199"/>
      <point x="130" y="248" type="curve"/>
      <point x="200" y="302"/>
      <point x="300" y="443"/>
      <point x="340" y="529" type="curve"/>
    </contour>
    <contour>
      <point x="498" y="519" type="line"/>
      <point x="411" y="414"/>
      <point x="321" y="324"/>
      <point x="212" y="251" type="curve"/>
      <point x="211" y="245" type="line"/>
      <point x="295" y="179"/>
      <point x="358" y="93"/>
      <point x="413" y="-3" type="curve"/>
      <point x="431" y="-3" type="line"/>
      <point x="417" y="73"/>
      <point x="365" y="201"/>
      <point x="317" y="248" type="curve"/>
      <point x="384" y="300"/>
      <point x="481" y="436"/>
      <point x="516" y="519" type="curve"/>
    </contour>
  </outline>
</glyph>
<glyph name="logicalnot" format="1">
  <advance width="654"/>
  <unicode hex="00AC"/>
  <outline>
    <contour>
      <point x="555" y="340" type="line"/>
      <point x="505" y="165" type="line"/>
      <point x="541" y="165" type="line"/>
      <point x="600" y="370" type="line"/>
      <point x="99" y="370" type="line"/>
      <point x="90" y="340" type="line"/>
    </contour>
  </outline>
</glyph>
<glyph name="registered" format="1">
  <advance width="693"/>
  <unicode hex="00AE"/>
  <outline>
    <contour>
      <point x="248" y="782"/>
      <point x="123" y="657"/>
      <point x="123" y="503" type="curve" smooth="yes"/>
      <point x="123" y="349"/>
      <point x="248" y="224"/>
      <point x="402" y="224" type="curve" smooth="yes"/>
      <point x="556" y="224"/>
      <point x="681" y="349"/>
      <point x="681" y="503" type="curve" smooth="yes"/>
      <point x="681" y="657"/>
      <point x="556" y="782"/>
      <point x="402" y="782" type="curve" smooth="yes"/>
    </contour>
    <contour>
      <point x="336" y="506" type="line"/>
      <point x="423" y="506"/>
      <point x="432" y="500"/>
      <point x="441" y="460" type="curve" smooth="yes"/>
      <point x="456" y="387" type="line" smooth="yes"/>
      <point x="463" y="358"/>
      <point x="479" y="345"/>
      <point x="518" y="345" type="curve" smooth="yes"/>
      <point x="541" y="345"/>
      <point x="556" y="350"/>
      <point x="565" y="365" type="curve"/>
      <point x="556" y="373" type="line"/>
      <point x="553" y="368"/>
      <point x="549" y="366"/>
      <point x="545" y="366" type="curve" smooth="yes"/>
      <point x="533" y="366"/>
      <point x="531" y="379"/>
      <point x="528" y="395" type="curve" smooth="yes"/>
      <point x="515" y="455" type="line" smooth="yes"/>
      <point x="508" y="491"/>
      <point x="489" y="509"/>
      <point x="423" y="514" type="curve"/>
      <point x="400" y="518"/>
      <point x="401" y="521"/>
      <point x="334" y="521" type="curve"/>
    </contour>
    <contour>
      <point x="534" y="750"/>
      <point x="639" y="638"/>
      <point x="639" y="503" type="curve" smooth="yes"/>
      <point x="639" y="368"/>
      <point x="534" y="256"/>
      <point x="402" y="256" type="curve" smooth="yes"/>
      <point x="270" y="256"/>
      <point x="165" y="368"/>
      <point x="165" y="503" type="curve" smooth="yes"/>
      <point x="165" y="638"/>
      <point x="270" y="750"/>
      <point x="402" y="750" type="curve" smooth="yes"/>
    </contour>
    <contour>
      <point x="398" y="676"/>
      <point x="363" y="675"/>
      <point x="326" y="675" type="curve" smooth="yes"/>
      <point x="307" y="675"/>
      <point x="285" y="675"/>
      <point x="272" y="676" type="curve"/>
      <point x="272" y="661" type="line"/>
      <point x="291" y="659"/>
      <point x="295" y="655"/>
      <point x="295" y="623" type="curve" smooth="yes"/>
      <point x="295" y="404" type="line" smooth="yes"/>
      <point x="295" y="373"/>
      <point x="291" y="369"/>
      <point x="272" y="367" type="curve"/>
      <point x="272" y="352" type="line"/>
      <point x="285" y="352"/>
      <point x="307" y="353"/>
      <point x="330" y="353" type="curve" smooth="yes"/>
      <point x="351" y="353"/>
      <point x="372" y="352"/>
      <point x="387" y="352" type="curve"/>
      <point x="387" y="367" type="line"/>
      <point x="368" y="369"/>
      <point x="364" y="373"/>
      <point x="364" y="404" type="curve" smooth="yes"/>
      <point x="364" y="630" type="line" smooth="yes"/>
      <point x="364" y="655"/>
      <point x="369" y="661"/>
      <point x="396" y="661" type="curve" smooth="yes"/>
      <point x="442" y="661"/>
      <point x="459" y="637"/>
      <point x="459" y="589" type="curve" smooth="yes"/>
      <point x="459" y="550"/>
      <point x="444" y="522"/>
      <point x="382" y="522" type="curve" smooth="yes"/>
      <point x="329" y="522" type="line"/>
      <point x="329" y="522"/>
      <point x="329" y="506"/>
      <point x="329" y="506" type="curve"/>
      <point x="389" y="509" type="line" smooth="yes"/>
      <point x="506" y="515"/>
      <point x="531" y="560"/>
      <point x="531" y="597" type="curve" smooth="yes"/>
      <point x="531" y="647"/>
      <point x="493" y="676"/>
      <point x="412" y="676" type="curve" smooth="yes"/>
    </contour>
  </outline>
</glyph>
<glyph name="degree" format="1">
  <advance width="334"/>
  <unicode hex="00B0"/>
  <outline>
    <contour>
      <point x="197" y="820"/>
      <point x="140" y="774"/>
      <point x="140" y="700" type="curve" smooth="yes"/>
      <point x="140" y="625"/>
      <point x="197" y="579"/>
      <point x="261" y="579" type="curve" smooth="yes"/>
      <point x="326" y="579"/>
      <point x="383" y="625"/>
      <point x="383" y="700" type="curve" smooth="yes"/>
      <point x="383" y="774"/>
      <point x="326" y="820"/>
      <point x="261" y="820" type="curve" smooth="yes"/>
    </contour>
    <contour>
      <point x="216" y="597"/>
      <point x="165" y="630"/>
      <point x="165" y="699" type="curve" smooth="yes"/>
      <point x="165" y="766"/>
      <point x="216" y="802"/>
      <point x="261" y="802" type="curve" smooth="yes"/>
      <point x="306" y="802"/>
      <point x="358" y="766"/>
      <point x="358" y="699" type="curve" smooth="yes"/>
      <point x="358" y="630"/>
      <point x="306" y="597"/>
      <point x="261" y="597" type="curve" smooth="yes"/>
    </contour>
  </outline>
</glyph>
<glyph name="uni00B2" format="1">
  <advance width="348"/>
  <unicode hex="00B2"/>
  <outline>
    <contour>
      <point x="224" y="754"/>
      <point x="169" y="717"/>
      <point x="137" y="679" type="curve"/>
      <point x="151" y="668" type="line"/>
      <point x="184" y="705"/>
      <point x="220" y="718"/>
      <point x="254" y="718" type="curve" smooth="yes"/>
      <point x="287" y="718"/>
      <point x="306" y="707"/>
      <point x="306" y="676" type="curve" smooth="yes"/>
      <point x="306" y="586"/>
      <point x="139" y="495"/>
      <point x="83" y="455" type="curve"/>
      <point x="79" y="437" type="line"/>
      <point x="106" y="448"/>
      <point x="123" y="453"/>
      <point x="157" y="451" type="curve" smooth="yes"/>
      <point x="210" y="448"/>
      <point x="243" y="433"/>
      <point x="285" y="433" type="curve" smooth="yes"/>
      <point x="345" y="433"/>
      <point x="376" y="464"/>
      <point x="376" y="502" type="curve" smooth="yes"/>
      <point x="376" y="516"/>
      <point x="371" y="530"/>
      <point x="364" y="541" type="curve"/>
      <point x="347" y="534" type="line"/>
      <point x="350" y="528"/>
      <point x="351" y="521"/>
      <point x="351" y="515" type="curve" smooth="yes"/>
      <point x="351" y="494"/>
      <point x="332" y="483"/>
      <point x="306" y="483" type="curve" smooth="yes"/>
      <point x="273" y="483"/>
      <point x="215" y="501"/>
      <point x="182" y="501" type="curve"/>
      <point x="245" y="549"/>
      <point x="381" y="616"/>
      <point x="381" y="697" type="curve" smooth="yes"/>
      <point x="381" y="738"/>
      <point x="346" y="754"/>
      <point x="297" y="754" type="curve" smooth="yes"/>
    </contour>
  </outline>
</glyph>
<glyph name="paragraph" format="1">
  <advance width="670"/>
  <unicode hex="00B6"/>
  <outline>
    <contour>
      <point x="263" y="334"/>
      <point x="143" y="346"/>
      <point x="144" y="351" type="curve" smooth="yes"/>
      <point x="145" y="355"/>
      <point x="272" y="369"/>
      <point x="425" y="369" type="curve"/>
      <point x="470" y="524"/>
      <point x="530" y="656"/>
      <point x="537" y="656" type="curve"/>
      <point x="535" y="652"/>
      <point x="374" y="48"/>
      <point x="374" y="48" type="curve" smooth="yes"/>
      <point x="368" y="48"/>
      <point x="376" y="173"/>
      <point x="416" y="334" type="curve"/>
    </contour>
    <contour>
      <point x="327" y="-109"/>
      <point x="297" y="-172"/>
      <point x="230" y="-172" type="curve" smooth="yes"/>
      <point x="218" y="-172"/>
      <point x="207" y="-170"/>
      <point x="198" y="-168" type="curve"/>
      <point x="224" y="-150"/>
      <point x="241" y="-126"/>
      <point x="241" y="-98" type="curve" smooth="yes"/>
      <point x="241" y="-72"/>
      <point x="220" y="-56"/>
      <point x="190" y="-56" type="curve" smooth="yes"/>
      <point x="148" y="-56"/>
      <point x="119" y="-89"/>
      <point x="119" y="-124" type="curve" smooth="yes"/>
      <point x="120" y="-169"/>
      <point x="170" y="-188"/>
      <point x="238" y="-188" type="curve" smooth="yes"/>
      <point x="386" y="-188"/>
      <point x="465" y="-73"/>
      <point x="507" y="86" type="curve" smooth="yes"/>
      <point x="648" y="621" type="line" smooth="yes"/>
      <point x="660" y="665"/>
      <point x="678" y="686"/>
      <point x="743" y="689" type="curve"/>
      <point x="748" y="708" type="line"/>
      <point x="723" y="706"/>
      <point x="697" y="706"/>
      <point x="672" y="706" type="curve" smooth="yes"/>
      <point x="621" y="706"/>
      <point x="569" y="709"/>
      <point x="509" y="709" type="curve" smooth="yes"/>
      <point x="245" y="709"/>
      <point x="38" y="494"/>
      <point x="38" y="229" type="curve" smooth="yes"/>
      <point x="38" y="85"/>
      <point x="125" y="-13"/>
      <point x="356" y="-13" type="curve"/>
    </contour>
  </outline>
</glyph>
<glyph name="ordmasculine" format="1">
  <advance width="447"/>
  <unicode hex="00BA"/>
  <outline>
    <contour>
      <point x="360" y="704"/>
      <point x="375" y="686"/>
      <point x="375" y="646" type="curve" smooth="yes"/>
      <point x="375" y="526"/>
      <point x="313" y="379"/>
      <point x="245" y="379" type="curve" smooth="yes"/>
      <point x="217" y="379"/>
      <point x="202" y="397"/>
      <point x="202" y="437" type="curve" smooth="yes"/>
      <point x="202" y="556"/>
      <point x="263" y="704"/>
      <point x="332" y="704" type="curve" smooth="yes"/>
    </contour>
    <contour>
      <point x="106" y="397"/>
      <point x="159" y="361"/>
      <point x="240" y="361" type="curve" smooth="yes"/>
      <point x="391" y="361"/>
      <point x="471" y="514"/>
      <point x="471" y="609" type="curve" smooth="yes"/>
      <point x="471" y="686"/>
      <point x="418" y="722"/>
      <point x="337" y="722" type="curve" smooth="yes"/>
      <point x="186" y="722"/>
      <point x="106" y="568"/>
      <point x="106" y="473" type="curve" smooth="yes"/>
    </contour>
  </outline>
</glyph>
<glyph name="guillemotright" format="1">
  <advance width="547"/>
  <unicode hex="00BB"/>
  <outline>
    <contour>
      <point x="279" y="529" type="line"/>
      <point x="293" y="450"/>
      <point x="348" y="316"/>
      <point x="398" y="267" type="curve"/>
      <point x="329" y="213"/>
      <point x="229" y="72"/>
      <point x="188" y="-14" type="curve"/>
      <point x="206" y="-14" type="line"/>
      <point x="298" y="95"/>
      <point x="392" y="188"/>
      <point x="506" y="264" type="curve"/>
      <point x="507" y="270" type="line"/>
      <point x="419" y="338"/>
      <point x="354" y="429"/>
      <point x="297" y="529" type="curve"/>
    </contour>
    <contour>
      <point x="98" y="519" type="line"/>
      <point x="111" y="442"/>
      <point x="164" y="314"/>
      <point x="212" y="267" type="curve"/>
      <point x="146" y="215"/>
      <point x="50" y="80"/>
      <point x="13" y="-3" type="curve"/>
      <point x="31" y="-3" type="line"/>
      <point x="118" y="102"/>
      <point x="208" y="191"/>
      <point x="317" y="264" type="curve"/>
      <point x="318" y="270" type="line"/>
      <point x="234" y="335"/>
      <point x="171" y="423"/>
      <point x="116" y="519" type="curve"/>
    </contour>
  </outline>
</glyph>
<glyph name="questiondown" format="1">
  <advance width="465"/>
  <unicode hex="00BF"/>
  <outline>
    <contour>
      <point x="97" y="-169"/>
      <point x="66" y="-141"/>
      <point x="66" y="-101" type="curve" smooth="yes"/>
      <point x="66" y="-51"/>
      <point x="104" y="-21"/>
      <point x="193" y="38" type="curve" smooth="yes"/>
      <point x="280" y="98"/>
      <point x="353" y="144"/>
      <point x="353" y="217" type="curve" smooth="yes"/>
      <point x="353" y="282"/>
      <point x="295" y="316"/>
      <point x="215" y="316" type="curve" smooth="yes"/>
      <point x="137" y="316"/>
      <point x="30" y="282"/>
      <point x="30" y="213" type="curve" smooth="yes"/>
      <point x="30" y="182"/>
      <point x="50" y="171"/>
      <point x="74" y="171" type="curve" smooth="yes"/>
      <point x="106" y="171"/>
      <point x="129" y="194"/>
      <point x="129" y="219" type="curve" smooth="yes"/>
      <point x="130" y="243"/>
      <point x="110" y="261"/>
      <point x="93" y="263" type="curve"/>
      <point x="109" y="285"/>
      <point x="150" y="298"/>
      <point x="185" y="298" type="curve" smooth="yes"/>
      <point x="229" y="298"/>
      <point x="252" y="267"/>
      <point x="252" y="233" type="curve" smooth="yes"/>
      <point x="252" y="178"/>
      <point x="206" y="152"/>
      <point x="118" y="90" type="curve" smooth="yes"/>
      <point x="2" y="13"/>
      <point x="-43" y="-23"/>
      <point x="-43" y="-84" type="curve" smooth="yes"/>
      <point x="-43" y="-151"/>
      <point x="23" y="-188"/>
      <point x="121" y="-188" type="curve" smooth="yes"/>
      <point x="223" y="-188"/>
      <point x="333" y="-148"/>
      <point x="333" y="-75" type="curve" smooth="yes"/>
      <point x="333" y="-43"/>
      <point x="312" y="-24"/>
      <point x="281" y="-24" type="curve" smooth="yes"/>
      <point x="248" y="-24"/>
      <point x="220" y="-46"/>
      <point x="218" y="-77" type="curve" smooth="yes"/>
      <point x="217" y="-106"/>
      <point x="237" y="-127"/>
      <point x="258" y="-131" type="curve"/>
      <point x="244" y="-157"/>
      <point x="188" y="-169"/>
      <point x="151" y="-169" type="curve" smooth="yes"/>
    </contour>
    <component base="period" xOffset="205" yOffset="404"/>
  </outline>
</glyph>
<glyph name="AE" format="1">
  <advance width="900"/>
  <unicode hex="00C6"/>
  <outline>
    <contour>
      <point x="602" y="773" type="line"/>
      <point x="3" y="84" type="line" smooth="yes"/>
      <point x="-34" y="42"/>
      <point x="-64" y="21"/>
      <point x="-83" y="20" type="curve"/>
      <point x="-83" y="0" type="line"/>
      <point x="-67" y="2"/>
      <point x="-40" y="3"/>
      <point x="-16" y="3" type="curve" smooth="yes"/>
      <point x="17" y="3"/>
      <point x="52" y="2"/>
      <point x="70" y="0" type="curve"/>
      <point x="70" y="20" type="line"/>
      <point x="-10" y="26"/>
      <point x="-2" y="50"/>
      <point x="37" y="94" type="curve" smooth="yes"/>
      <point x="628" y="773" type="line"/>
    </contour>
    <contour>
      <point x="707" y="346" type="line"/>
      <point x="711" y="366" type="line"/>
      <point x="263" y="366" type="line"/>
      <point x="244" y="346" type="line"/>
    </contour>
    <contour>
      <point x="636" y="346" type="line"/>
      <point x="711" y="341"/>
      <point x="683" y="280"/>
      <point x="683" y="234" type="curve"/>
      <point x="705" y="234" type="line"/>
      <point x="717" y="300"/>
      <point x="723" y="327"/>
      <point x="731" y="356" type="curve" smooth="yes"/>
      <point x="742" y="398"/>
      <point x="748" y="426"/>
      <point x="765" y="478" type="curve"/>
      <point x="743" y="478" type="line"/>
      <point x="721" y="420"/>
      <point x="700" y="366"/>
      <point x="640" y="366" type="curve"/>
    </contour>
    <contour>
      <point x="608" y="602" type="line" smooth="yes"/>
      <point x="627" y="675"/>
      <point x="642" y="685"/>
      <point x="708" y="685" type="curve" smooth="yes"/>
      <point x="788" y="685" type="line" smooth="yes"/>
      <point x="868" y="685"/>
      <point x="890" y="646"/>
      <point x="869" y="528" type="curve"/>
      <point x="891" y="528" type="line"/>
      <point x="893" y="543"/>
      <point x="897" y="566"/>
      <point x="904" y="590" type="curve" smooth="yes"/>
      <point x="911" y="613"/>
      <point x="925" y="661"/>
      <point x="942" y="708" type="curve"/>
      <point x="879" y="705"/>
      <point x="796" y="705"/>
      <point x="735" y="705" type="curve" smooth="yes"/>
      <point x="672" y="705"/>
      <point x="534" y="705"/>
      <point x="432" y="708" type="curve"/>
      <point x="427" y="688" type="line"/>
      <point x="494" y="685"/>
      <point x="505" y="675"/>
      <point x="486" y="602" type="curve" smooth="yes"/>
      <point x="354" y="106" type="line" smooth="yes"/>
      <point x="335" y="33"/>
      <point x="319" y="23"/>
      <point x="251" y="20" type="curve"/>
      <point x="247" y="0" type="line"/>
      <point x="350" y="3"/>
      <point x="488" y="3"/>
      <point x="551" y="3" type="curve" smooth="yes"/>
      <point x="618" y="3"/>
      <point x="709" y="3"/>
      <point x="777" y="0" type="curve"/>
      <point x="784" y="51"/>
      <point x="796" y="103"/>
      <point x="803" y="128" type="curve" smooth="yes"/>
      <point x="810" y="156"/>
      <point x="817" y="182"/>
      <point x="824" y="200" type="curve"/>
      <point x="802" y="200" type="line"/>
      <point x="757" y="68"/>
      <point x="719" y="23"/>
      <point x="623" y="23" type="curve" smooth="yes"/>
      <point x="533" y="23" type="line" smooth="yes"/>
      <point x="467" y="23"/>
      <point x="457" y="33"/>
      <point x="476" y="106" type="curve" smooth="yes"/>
    </contour>
    <contour>
      <point x="575" y="708" type="move" name="top"/>
    </contour>
  </outline>
</glyph>
<glyph name="multiply" format="1">
  <advance width="506"/>
  <unicode hex="00D7"/>
  <outline>
    <contour>
      <point x="38" y="160" type="line"/>
      <point x="262" y="334" type="line"/>
      <point x="386" y="161" type="line"/>
      <point x="411" y="179" type="line"/>
      <point x="286" y="352" type="line"/>
      <point x="513" y="528" type="line"/>
      <point x="497" y="550" type="line"/>
      <point x="270" y="373" type="line"/>
      <point x="147" y="548" type="line"/>
      <point x="121" y="530" type="line"/>
      <point x="246" y="355" type="line"/>
      <point x="23" y="182" type="line"/>
    </contour>
  </outline>
</glyph>
